<svg xmlns="http://www.w3.org/2000/svg" width="184.214" height="149.66" viewBox="0 0 184.214 149.66">
  <g id="Group_98" data-name="Group 98" transform="matrix(0.799, -0.602, 0.602, 0.799, -477.704, -317.753)">
    <path id="Path_842" data-name="Path 842" d="M5.114.954a2.326,2.326,0,1,0-1.6,2.877A2.329,2.329,0,0,0,5.114.954M1.173,2.084A1.773,1.773,0,1,1,3.366,3.3,1.775,1.775,0,0,1,1.173,2.084" transform="translate(278.719 710.564) rotate(-90)" fill="#f5579c"/>
    <path id="Path_844" data-name="Path 844" d="M3.761.7A1.711,1.711,0,1,0,2.588,2.818,1.713,1.713,0,0,0,3.761.7M1,1.492a1.158,1.158,0,1,1,1.432.794A1.159,1.159,0,0,1,1,1.492" transform="translate(300.111 653.083) rotate(-90)" fill="#f5579c"/>
    <path id="Path_845" data-name="Path 845" d="M6.238,1.163a2.838,2.838,0,1,0-1.946,3.51,2.841,2.841,0,0,0,1.946-3.51M1.314,2.575A2.285,2.285,0,1,1,4.14,4.142,2.288,2.288,0,0,1,1.314,2.575" transform="translate(263.547 643.988) rotate(-90)" fill="#f5579c"/>
    <path id="Path_849" data-name="Path 849" d="M130.775,403.766a1.2,1.2,0,1,1,1.2-1.2,1.2,1.2,0,0,1-1.2,1.2m0-1.844a.645.645,0,1,0,.645.646.646.646,0,0,0-.645-.646" transform="translate(539.653 527.153) rotate(90)" fill="#f5579c"/>
    <path id="Path_850" data-name="Path 850" d="M94.834,447.091a3.043,3.043,0,1,1,3.043-3.043,3.046,3.046,0,0,1-3.043,3.043m0-5.532a2.49,2.49,0,1,0,2.49,2.49,2.493,2.493,0,0,0-2.49-2.49" transform="translate(592.378 539.118) rotate(90)" fill="#f5579c"/>
    <path id="Path_851" data-name="Path 851" d="M81.009,344.244a1.813,1.813,0,1,1,1.813-1.814,1.815,1.815,0,0,1-1.813,1.814m0-3.074a1.26,1.26,0,1,0,1.26,1.26,1.261,1.261,0,0,0-1.26-1.26" transform="translate(517.769 521.079) rotate(90)" fill="#f5579c"/>
    <path id="Path_852" data-name="Path 852" d="M76.729,210.846a1.608,1.608,0,1,1,1.608-1.608,1.61,1.61,0,0,1-1.608,1.608m0-2.664a1.055,1.055,0,1,0,1.055,1.055,1.057,1.057,0,0,0-1.055-1.055" transform="translate(427.122 529.43) rotate(90)" fill="#f5579c"/>
    <path id="Path_853" data-name="Path 853" d="M27.028,139.225a1.916,1.916,0,1,1,1.915-1.915,1.918,1.918,0,0,1-1.915,1.915m0-3.278a1.363,1.363,0,1,0,1.362,1.363,1.364,1.364,0,0,0-1.362-1.363" transform="translate(378.541 582.479) rotate(90)" fill="#f5579c"/>
    <path id="Path_854" data-name="Path 854" d="M19.737,268.744a3.145,3.145,0,1,1,3.146-3.144,3.149,3.149,0,0,1-3.146,3.144m0-5.737a2.592,2.592,0,1,0,2.592,2.592,2.6,2.6,0,0,0-2.592-2.592" transform="translate(445.431 552.172) rotate(90)" fill="#f5579c"/>
    <path id="Path_855" data-name="Path 855" d="M2.86.534a1.3,1.3,0,1,0-.892,1.609A1.3,1.3,0,0,0,2.86.534M.89,1.1a.748.748,0,1,1,.925.513A.749.749,0,0,1,.89,1.1" transform="translate(231.107 734.934) rotate(-90)" fill="#f5579c"/>
    <path id="Path_856" data-name="Path 856" d="M5.337,1A2.428,2.428,0,1,0,3.673,4,2.431,2.431,0,0,0,5.337,1M1.2,2.182a1.875,1.875,0,1,1,2.32,1.285A1.878,1.878,0,0,1,1.2,2.182" transform="translate(202.769 738.061) rotate(-90)" fill="#f5579c"/>
    <path id="Path_857" data-name="Path 857" d="M5.562,1.038a2.53,2.53,0,1,0-1.734,3.13,2.533,2.533,0,0,0,1.734-3.13M1.229,2.28A1.977,1.977,0,1,1,3.675,3.636,1.979,1.979,0,0,1,1.229,2.28" transform="translate(266.096 736.362) rotate(-90)" fill="#f5579c"/>
    <path id="Path_858" data-name="Path 858" d="M1.57,5.474,5.009,5.2,7.183,7.878l.8-3.355,3.219-1.241-2.943-1.8L8.077-1.963,5.456.28,2.122-.608,3.445,2.577Z" transform="translate(278.252 676.372) rotate(-90)" fill="#f5579c"/>
    <path id="Path_859" data-name="Path 859" d="M.552,1.925l1.495.495.439,1.512.933-1.269,1.573.049L4.074,1.434,4.607-.048,3.107.43,1.862-.534,1.853,1.04Z" transform="translate(293.72 705.425) rotate(-90)" fill="#f5579c"/>
    <path id="Path_860" data-name="Path 860" d="M.319,1.112l.989.547.11,1.126.826-.772,1.1.243L2.87,1.232,3.443.257,2.32.4,1.57-.45,1.355.66Z" transform="translate(287.468 661.063) rotate(-90)" fill="#f5579c"/>
    <path id="Path_861" data-name="Path 861" d="M42.96,198.1l.235,3.667,3.153,1.885-3.415,1.356-.819,3.582-2.345-2.829-3.659.328,1.965-3.1-1.442-3.379,3.559.91Z" transform="translate(422.286 537.661) rotate(90)" fill="#f5579c"/>
    <path id="Path_862" data-name="Path 862" d="M39.8,178.3l.908.935,1.285-.218-.609,1.153.6,1.155L40.7,181.1l-.911.932-.185-1.29-1.168-.579,1.17-.575Z" transform="translate(413.436 536.623) rotate(90)" fill="#f5579c"/>
    <path id="Path_863" data-name="Path 863" d="M1.887,6.581,6.031,6.27l2.6,3.238L9.62,5.471,13.5,3.995,9.97,1.81l-.2-4.15L6.6.346,2.586-.741,4.161,3.1Z" transform="translate(249.481 713.246) rotate(-90)" fill="#f5579c"/>
    <path id="Path_864" data-name="Path 864" d="M.7,2.429l1.99.841.435,2.116L4.537,3.753l2.148.24L5.568,2.143,6.46.175l-2.1.489L2.759-.791,2.575,1.361Z" transform="translate(178.561 708.507) rotate(-90)" fill="#f5579c"/>
    <path id="Path_866" data-name="Path 866" d="M.747,2.605l1.6-.211,1.08,1.2.293-1.585,1.472-.657L3.772.581l-.17-1.6L2.434.088.857-.246l.694,1.455Z" transform="translate(279.193 724.082) rotate(-90)" fill="#f5579c"/>
    <path id="Path_871" data-name="Path 871" d="M263.137,439.533l1.4,1.738,2.229-.171-1.22,1.873.852,2.066-2.158-.581-1.7,1.448-.114-2.232-1.9-1.171,2.087-.8Z" transform="translate(708.184 347.377) rotate(90)" fill="#f5579c"/>
    <path id="Path_872" data-name="Path 872" d="M95.038,363.235l2.677,3.074,4.05-.463-2.1,3.5,1.691,3.709-3.972-.913-3,2.755-.359-4.06-3.548-2.006,3.75-1.6Z" transform="translate(540.25 527.866) rotate(90)" fill="#f5579c"/>
    <path id="Path_874" data-name="Path 874" d="M41.789,418.076l.393,2.556,2.329,1.126-2.31,1.164-.351,2.563-1.82-1.837-2.546.459,1.185-2.3-1.222-2.279,2.553.416Z" transform="translate(568.925 565.975) rotate(90)" fill="#f5579c"/>
    <path id="Path_875" data-name="Path 875" d="M135.964,436.983l-.152,2.394,1.886,1.483-2.324.6-.827,2.252-1.284-2.027-2.4-.091,1.53-1.847-.654-2.308,2.23.884Z" transform="translate(593.718 549.064) rotate(90)" fill="#f5579c"/>
    <path id="Path_876" data-name="Path 876" d="M4.091,4.454A2.7,2.7,0,1,0,.745,2.6,2.7,2.7,0,0,0,4.091,4.454" transform="translate(294.97 672.679) rotate(-90)" fill="#f5579c"/>
    <path id="Path_877" data-name="Path 877" d="M1.753,1.909A1.159,1.159,0,1,0,.319,1.114a1.159,1.159,0,0,0,1.434.795" transform="translate(301.939 676.309) rotate(-90)" fill="#f5579c"/>
    <path id="Path_878" data-name="Path 878" d="M.87.948A.576.576,0,1,0,.159.554.575.575,0,0,0,.87.948" transform="translate(304.127 665.686) rotate(-90)" fill="#f5579c"/>
    <path id="Path_879" data-name="Path 879" d="M1.837,2a1.215,1.215,0,1,0-1.5-.833A1.215,1.215,0,0,0,1.837,2" transform="translate(282.511 647.334) rotate(-90)" fill="#f5579c"/>
    <path id="Path_880" data-name="Path 880" d="M.87.948A.576.576,0,1,0,.159.553.575.575,0,0,0,.87.948" transform="translate(294.47 644.038) rotate(-90)" fill="#f5579c"/>
    <path id="Path_881" data-name="Path 881" d="M2.611,2.843A1.727,1.727,0,1,0,.476,1.66,1.726,1.726,0,0,0,2.611,2.843" transform="translate(284.521 637.179) rotate(-90)" fill="#f5579c"/>
    <path id="Path_886" data-name="Path 886" d="M195.828,433.356a.576.576,0,1,1-.575-.575.575.575,0,0,1,.575.575" transform="translate(563.759 468.082) rotate(90)" fill="#f5579c"/>
    <path id="Path_888" data-name="Path 888" d="M94.427,414.215a1.087,1.087,0,1,1-1.087-1.087,1.087,1.087,0,0,1,1.087,1.087" transform="translate(544.909 543.832) rotate(90)" fill="#f5579c"/>
    <path id="Path_889" data-name="Path 889" d="M106.695,405.321a2.366,2.366,0,1,1-2.366-2.366,2.366,2.366,0,0,1,2.366,2.366" transform="translate(540.362 539.493) rotate(90)" fill="#f5579c"/>
    <path id="Path_892" data-name="Path 892" d="M122.56,346.549a.7.7,0,1,1-.7-.7.7.7,0,0,1,.7.7" transform="translate(514.841 530.917) rotate(90)" fill="#f5579c"/>
    <path id="Path_893" data-name="Path 893" d="M126.274,360.775a1.982,1.982,0,1,1-1.982-1.982,1.982,1.982,0,0,1,1.982,1.982" transform="translate(520.627 530.4) rotate(90)" fill="#f5579c"/>
    <path id="Path_894" data-name="Path 894" d="M81.582,236.351a1.023,1.023,0,1,1-1.023-1.023,1.023,1.023,0,0,1,1.023,1.023" transform="translate(438.922 518.255) rotate(90)" fill="#f5579c"/>
    <path id="Path_895" data-name="Path 895" d="M60.807,237.177a3.005,3.005,0,1,1-3.005-3.005,3.005,3.005,0,0,1,3.005,3.005" transform="translate(438.405 529.311) rotate(90)" fill="#f5579c"/>
    <path id="Path_896" data-name="Path 896" d="M73.981,185.038a.576.576,0,1,1-.575-.575.575.575,0,0,1,.575.575" transform="translate(416.19 521.252) rotate(90)" fill="#f5579c"/>
    <path id="Path_897" data-name="Path 897" d="M1.063,1.158A.7.7,0,1,0,.194.676a.7.7,0,0,0,.87.483" transform="translate(219.749 716.891) rotate(-90)" fill="#f5579c"/>
    <path id="Path_898" data-name="Path 898" d="M1.064,1.158A.7.7,0,1,0,.194.676a.7.7,0,0,0,.87.482" transform="translate(184.817 723.583) rotate(-90)" fill="#f5579c"/>
    <path id="Path_899" data-name="Path 899" d="M2.321,2.527a1.535,1.535,0,1,0-1.9-1.052,1.535,1.535,0,0,0,1.9,1.052" transform="translate(246.965 741.283) rotate(-90)" fill="#f5579c"/>
    <path id="Path_900" data-name="Path 900" d="M2.224,2.422A1.471,1.471,0,1,0,.405,1.414,1.47,1.47,0,0,0,2.224,2.422" transform="translate(220.148 748.441) rotate(-90)" fill="#f5579c"/>
    <path id="Path_907" data-name="Path 907" d="M1.968,2.143a1.3,1.3,0,1,0-1.61-.892,1.3,1.3,0,0,0,1.61.892" transform="translate(319.807 653.035) rotate(-90)" fill="#f5579c"/>
  </g>
</svg>
