<svg xmlns="http://www.w3.org/2000/svg" width="26.999" height="26.999" viewBox="0 0 26.999 26.999">
  <path id="Icon_ion-call-sharp" data-name="Icon ion-call-sharp" d="M29.186,22.629a20.89,20.89,0,0,0-3.467-2.637,40.683,40.683,0,0,0-4.009-2.339.231.231,0,0,0-.236.03c-.7.547-1.881,1.551-1.944,1.6-.409.35-.409.35-.743.241a12.742,12.742,0,0,1-4.008-2.759,13.306,13.306,0,0,1-2.805-4.056c-.11-.335-.11-.335.241-.744.054-.063,1.059-1.243,1.606-1.944a.231.231,0,0,0,.03-.236A40.608,40.608,0,0,0,11.51,5.781,21,21,0,0,0,8.873,2.315a.235.235,0,0,0-.234-.052A19.427,19.427,0,0,0,5.263,3.8a20.37,20.37,0,0,0-2.932,2.07.231.231,0,0,0-.076.225,25.008,25.008,0,0,0,2.6,6.432,30.227,30.227,0,0,0,6.027,8.029,31.123,31.123,0,0,0,8.1,6.1,24.963,24.963,0,0,0,6.432,2.6.233.233,0,0,0,.226-.076,20.354,20.354,0,0,0,2.07-2.932,19.448,19.448,0,0,0,1.534-3.375.235.235,0,0,0-.052-.233Z" transform="translate(-2.25 -2.25)" fill="#fff"/>
</svg>
