<svg xmlns="http://www.w3.org/2000/svg" width="41.999" height="24.66" viewBox="0 0 41.999 24.66">
  <path id="Union_6" data-name="Union 6" d="M-8205.723,24.66a5.005,5.005,0,0,1-4.952-5.052,5.009,5.009,0,0,1,5.064-4.942,5.018,5.018,0,0,1,4.933,5.033,5,5,0,0,1-5.01,4.96Zm-2.62-5.026a2.673,2.673,0,0,0,2.647,2.7,2.673,2.673,0,0,0,2.685-2.658A2.669,2.669,0,0,0-8205.679,17h0A2.671,2.671,0,0,0-8208.343,19.634Zm-22.7,5.026A5,5,0,0,1-8236,19.613a5.006,5.006,0,0,1,5.058-4.947A5.017,5.017,0,0,1-8226,19.694a5,5,0,0,1-5.006,4.966Zm-2.624-5.024a2.671,2.671,0,0,0,2.605,2.693,2.672,2.672,0,0,0,2.724-2.617A2.67,2.67,0,0,0-8230.965,17H-8231A2.667,2.667,0,0,0-8233.666,19.635Zm8.6,1a5.978,5.978,0,0,0-1.76-5.28,5.872,5.872,0,0,0-4.254-1.7,6.052,6.052,0,0,0-5.875,6.961,2.9,2.9,0,0,1-2.948-2.241,3.713,3.713,0,0,1-.09-.824c-.006-2.6,0-5.192-.006-7.788a4.113,4.113,0,0,1,.439-1.884c.974-1.946,1.935-3.9,2.926-5.837a3.522,3.522,0,0,1,3.323-2.042q9.911-.015,19.822,0a2.944,2.944,0,0,1,2.692,1.5q1.765,2.919,3.583,5.807a1.379,1.379,0,0,0,.564.5c2.578,1.161,5.159,2.314,7.752,3.438a1.3,1.3,0,0,1,.9,1.369c-.029,1.679,0,3.359-.012,5.039a2.86,2.86,0,0,1-1.668,2.642,6.05,6.05,0,0,0-6.4-6.638,6.03,6.03,0,0,0-5.53,6.973Zm-7.355-11.3a.994.994,0,0,0-.907.967.983.983,0,0,0,.906,1.009,12.965,12.965,0,0,0,1.492,0,.985.985,0,0,0,.928-.989,1,1,0,0,0-.925-.992c-.234-.019-.471,0-.705,0h0c-.164,0-.327-.007-.491-.007C-8232.225,9.332-8232.323,9.335-8232.424,9.343Zm15.447,1.984c.235,0,.474.016.706,0a1,1,0,0,0,.928-.991.986.986,0,0,0-.924-.99,12.132,12.132,0,0,0-1.411,0,.983.983,0,0,0-.908.965,1,1,0,0,0,.906,1.012c.231.022.47,0,.7,0Zm-19.762-3.658a1.5,1.5,0,0,0,1.554-.943c.693-1.4,1.386-2.806,2.133-4.18.5-.919.351-1.171-.692-1.142a1.274,1.274,0,0,0-1.249.769c-.523,1.069-1.079,2.122-1.619,3.183-.382.749-.76,1.5-1.17,2.309.254,0,.473-.006.677-.006C-8236.979,7.661-8236.858,7.663-8236.738,7.67Zm6.027-5.564c-.672,1.322-1.367,2.633-2.048,3.952a1.014,1.014,0,0,0,.972,1.608c1.43,0,2.86,0,4.289,0s2.859,0,4.291,0c.823,0,1.2-.374,1.2-1.189q0-1.937,0-3.874c0-.813-.38-1.183-1.206-1.184h-2.04c-1.431,0-2.862,0-4.292-.007h-.015A1.169,1.169,0,0,0-8230.711,2.106Zm12.86-.687A1.022,1.022,0,0,0-8219,2.571q0,1.956,0,3.913a1.03,1.03,0,0,0,1.165,1.181c1.515,0,3.026,0,4.54,0h4.594c-.055-.113-.072-.164-.1-.209-1.191-1.936-2.379-3.875-3.587-5.8a.63.63,0,0,0-.462-.227c-.943-.009-1.885-.012-2.83-.012Q-8216.766,1.416-8217.851,1.42Z" transform="translate(8240.001 0)" fill="#fff"/>
</svg>
