<svg xmlns="http://www.w3.org/2000/svg" xmlns:xlink="http://www.w3.org/1999/xlink" width="50.036" height="16.687" viewBox="0 0 50.036 16.687">
  <defs>
    <linearGradient id="linear-gradient" x1="0.882" y1="1.196" x2="-0.117" y2="-0.323" gradientUnits="objectBoundingBox">
      <stop offset="0" stop-color="#8742f5"/>
      <stop offset="1" stop-color="#f5579c"/>
    </linearGradient>
  </defs>
  <path id="Union_7" data-name="Union 7" d="M-8199.134,16.687a4.369,4.369,0,0,1-4.354-4.4,4.372,4.372,0,0,1,4.375-4.328,4.376,4.376,0,0,1,4.354,4.4,4.37,4.37,0,0,1-4.36,4.327ZM-8201.1,12.3a1.992,1.992,0,0,0,1.961,2,1.991,1.991,0,0,0,2-1.961,1.99,1.99,0,0,0-1.961-2h-.022A1.99,1.99,0,0,0-8201.1,12.3Zm-28.2,4.384a4.368,4.368,0,0,1-4.343-4.409,4.369,4.369,0,0,1,4.385-4.318,4.376,4.376,0,0,1,4.344,4.411,4.371,4.371,0,0,1-4.364,4.317Zm.008-6.345a1.992,1.992,0,0,0-1.969,2,1.994,1.994,0,0,0,2,1.969,1.991,1.991,0,0,0,1.968-2,1.993,1.993,0,0,0-1.986-1.969Zm35,4.76a5.638,5.638,0,0,0,.348-4.778,5.417,5.417,0,0,0-2.143-2.655A5.541,5.541,0,0,0-8202.61,8c-2.069,1.67-2.548,4.072-1.383,7.081h-20.4c1.083-3.4.6-5.6-1.58-7.22a5.568,5.568,0,0,0-6.5-.091,5.618,5.618,0,0,0-1.989,6.633c-.882-.173-1.729-.337-2.574-.5q-.948-.187-1.894-.382a1.2,1.2,0,0,1-1.07-1.278q-.009-3.1,0-6.2a1.17,1.17,0,0,1,.854-1.2c.371-.137.75-.252,1.128-.371a26.51,26.51,0,0,0,5.669-2.419,14.171,14.171,0,0,1,5.462-1.965,7.885,7.885,0,0,1,.989-.055c.877,0,1.754,0,2.634.008,1.85.01,3.7.02,5.548-.027a12.756,12.756,0,0,1,5.844,1.28,20.122,20.122,0,0,1,2.633,1.367,11.462,11.462,0,0,0,4.866,1.7,34.465,34.465,0,0,0,4.832.405,10.62,10.62,0,0,1,8.474,4.119c.053.063.1.132.156.193a3.2,3.2,0,0,1,.924,2.612c-.071.687-.008,1.387-.015,2.082a1.206,1.206,0,0,1-1.31,1.337c-.379,0-.758,0-1.142,0Zm-26.947-5.554a1.2,1.2,0,0,0-1.293,1.2,1.191,1.191,0,0,0,1.265,1.177q2.3.015,4.6,0a1.191,1.191,0,0,0,1.268-1.173,1.2,1.2,0,0,0-1.289-1.2c-.742-.009-1.484,0-2.227,0l-1.418,0C-8220.635,9.544-8220.937,9.545-8221.239,9.548Zm14.164,0a1.2,1.2,0,0,0-1.172,1.165,1.2,1.2,0,0,0,1.177,1.21,1.2,1.2,0,0,0,1.2-1.191,1.2,1.2,0,0,0-1.188-1.185Zm-4.775,0a1.2,1.2,0,0,0-1.159,1.18,1.2,1.2,0,0,0,1.191,1.2,1.2,1.2,0,0,0,1.184-1.2,1.2,1.2,0,0,0-1.189-1.172Zm-9.967-4.466a2.219,2.219,0,0,0,.683.095q4.562.009,9.125,0a1.654,1.654,0,0,0,.675-.112c.748-.346,1.48-.727,2.335-1.154-1-.5-1.9-.979-2.817-1.413a12.878,12.878,0,0,0-5.938-1.3c-1.856.051-3.716.04-5.573.029-.854-.005-1.707-.01-2.561-.009a7.308,7.308,0,0,0-.939.044,17.035,17.035,0,0,0-6,2.229c-.016.008-.011.054-.019.107.151,0,.3.007.444,0q.766-.045,1.527-.045A28.53,28.53,0,0,1-8221.817,5.082Z" transform="translate(8239.999 0)" fill="url(#linear-gradient)"/>
</svg>
