<svg xmlns="http://www.w3.org/2000/svg" xmlns:xlink="http://www.w3.org/1999/xlink" width="41.813" height="21.19" viewBox="0 0 41.813 21.19">
  <defs>
    <linearGradient id="linear-gradient" x1="0.882" y1="1.196" x2="-0.117" y2="-0.323" gradientUnits="objectBoundingBox">
      <stop offset="0" stop-color="#8742f5"/>
      <stop offset="1" stop-color="#f5579c"/>
    </linearGradient>
  </defs>
  <path id="Union_8" data-name="Union 8" d="M-8230.384,21.19a4.464,4.464,0,0,1-4.3-4.624,4.46,4.46,0,0,1,4.325-4.552,4.47,4.47,0,0,1,4.3,4.625,4.461,4.461,0,0,1-4.308,4.551Zm0-6.7a2.063,2.063,0,0,0-1.976,2.106,2.065,2.065,0,0,0,2,2.126,2.063,2.063,0,0,0,1.976-2.106,2.065,2.065,0,0,0-1.99-2.126Zm23.869,6.7a4.467,4.467,0,0,1-4.286-4.637,4.46,4.46,0,0,1,4.338-4.539,4.471,4.471,0,0,1,4.284,4.638,4.458,4.458,0,0,1-4.312,4.538Zm.017-6.7a2.063,2.063,0,0,0-1.979,2.1,2.066,2.066,0,0,0,2,2.128,2.063,2.063,0,0,0,1.978-2.1,2.064,2.064,0,0,0-1.99-2.128Zm-33.483-.567c-.031-1.367-.023-2.735,0-4.1a3.067,3.067,0,0,1,2.923-3.1c.842-.017,1.686-.014,2.528,0a.666.666,0,0,0,.6-.286c1.265-1.6,2.563-3.163,3.811-4.774A3.982,3.982,0,0,1-8226.728,0c3.04.035,6.08.02,9.12.006a3.867,3.867,0,0,1,2.7,1.031c1.821,1.625,3.677,3.206,5.474,4.861a4.206,4.206,0,0,0,2.236,1.087c2.178.381,4.348.819,6.52,1.246a3.1,3.1,0,0,1,2.48,3.172c.008,1.059.018,2.118,0,3.176a3.1,3.1,0,0,1-2.691,3.069c-.118.012-.238,0-.363,0a5.585,5.585,0,0,0-5.267-6.7,5.587,5.587,0,0,0-5.2,6.676h-13.4a5.586,5.586,0,0,0-5.47-6.675,5.609,5.609,0,0,0-5.021,6.658,3.364,3.364,0,0,1-.7.073A3.8,3.8,0,0,1-8239.979,13.92Zm18.182-5.428a1.018,1.018,0,0,0-.939,1.03,1.032,1.032,0,0,0,.945,1.072c.232.017.469,0,.7,0h0c.248,0,.5.018.743,0a1.032,1.032,0,0,0,.921-1.053,1.021,1.021,0,0,0-.926-1.045c-.24-.014-.479-.02-.72-.02S-8221.556,8.48-8221.8,8.492Zm9.033-1.757c.276,0,.538-.022.639-.355a.63.63,0,0,0-.293-.709c-1.4-1.172-2.794-2.356-4.207-3.511a1.311,1.311,0,0,0-.756-.283c-1.534-.026-3.069-.018-4.6-.011a1.03,1.03,0,0,0-1.085,1.154c-.007.823,0,1.647,0,2.471s.38,1.223,1.144,1.226c1.52.006,3.041,0,4.561,0v.015h2.3Zm-14.664-4.854a1.592,1.592,0,0,0-.855.43c-.953,1.122-1.867,2.281-2.772,3.447a.754.754,0,0,0-.131.618.75.75,0,0,0,.555.327c.688.039,1.379.015,2.069.014.718,0,1.435.011,2.152,0a1,1,0,0,0,1.011-1.049q.025-1.365,0-2.732a1.011,1.011,0,0,0-1-1.065c-.2-.008-.405-.027-.607-.027A1.982,1.982,0,0,0-8227.429,1.881Z" transform="translate(8240 0.001)" fill="url(#linear-gradient)"/>
</svg>
