<svg xmlns="http://www.w3.org/2000/svg" xmlns:xlink="http://www.w3.org/1999/xlink" width="251.99" height="91.218" viewBox="0 0 251.99 91.218">
  <defs>
    <linearGradient id="linear-gradient" x1="1.112" y1="0.5" x2="-0.271" y2="0.411" gradientUnits="objectBoundingBox">
      <stop offset="0" stop-color="#8742f5"/>
      <stop offset="1" stop-color="#f5579c"/>
    </linearGradient>
  </defs>
  <path id="Union_2" data-name="Union 2" d="M148.791,60.372A31.041,31.041,0,0,1,210.133,53.6L162.621,72.759a21.444,21.444,0,0,0,17.924,9.286c8.78,0,14.914-3.667,18.882-10.548h10.587c-4.812,12.613-15.159,19.72-29.468,19.72C162.741,91.218,148.791,77.687,148.791,60.372Zm10.222-.113a20.916,20.916,0,0,0,.359,4.012l38.254-15.363a21.075,21.075,0,0,0-17.685-10.44A21.48,21.48,0,0,0,159.013,60.259Zm-80.829-.113V0h9.863V39.271a27.939,27.939,0,0,1,21.407-9.976c17.206,0,30.917,13.19,30.917,30.851a31.093,31.093,0,0,1-62.187,0Zm27.9-20.782a20.914,20.914,0,0,0-14.073,9.181,20.072,20.072,0,0,0-3.42,9.876,2.309,2.309,0,0,1-.068.318v2.625c.105.756.184,1.516.319,2.265a21.2,21.2,0,0,0,19.247,17.363,1.827,1.827,0,0,1,.275.066h2.646c.774-.106,1.551-.19,2.321-.32a21.163,21.163,0,0,0,16.933-15.829c.247-1.059.347-2.152.518-3.23.016-.106.046-.21.07-.315V58.739c-.109-.783-.189-1.57-.331-2.346a21.193,21.193,0,0,0-17.35-17.06c-.716-.121-1.44-.193-2.16-.287h-2.646C107.6,39.15,106.835,39.228,106.081,39.364ZM0,61.289V0H10.1V61.289c0,11.81,7.942,20.53,21.892,20.53,14.076,0,21.772-8.72,21.772-20.53V0H63.988V61.289c0,17.661-12.987,29.929-31.994,29.929C12.867,91.218,0,78.949,0,61.289ZM222.4,89.842V54.753c0-17.887,13.352-26.946,29.588-25.113V38.7C240.081,37.67,232.5,43.17,232.5,54.527V89.842ZM94.676,65.946a7.654,7.654,0,0,1,8.991,1.09,7.234,7.234,0,0,1,1.574,8.415A16.291,16.291,0,0,1,94.676,65.946Zm20.9,1.213a7.573,7.573,0,0,1,9.065-1.242c-1.045,3.886-6.8,9.064-10.542,9.479A7.169,7.169,0,0,1,115.58,67.159Zm-5.9-2.185a3.724,3.724,0,1,1,.006,0Zm-15.9-7.385a16.11,16.11,0,0,1,31.805,0c-.14,0-.272,0-.406,0-.5-.007-1.01-.005-1.515,0-1.135,0-2.271.007-3.4-.078a9.3,9.3,0,0,1-6.1-2.938,6.234,6.234,0,0,0-8.94-.017,9.577,9.577,0,0,1-5.6,2.9,16.755,16.755,0,0,1-2.182.128c-.486.008-.973.01-1.462.01C95.251,57.595,94.52,57.589,93.779,57.589Z" fill="url(#linear-gradient)"/>
</svg>
