<svg xmlns="http://www.w3.org/2000/svg" width="16.43" height="14.378" viewBox="0 0 16.43 14.378">
  <path id="Icon_fa-solid-comment-dots" data-name="Icon fa-solid-comment-dots" d="M8.212,15.6c4.537,0,8.214-2.987,8.214-6.674S12.749,2.25,8.212,2.25,0,5.237,0,8.924A5.848,5.848,0,0,0,1.529,12.8a4.671,4.671,0,0,1-.687,2.018,5.788,5.788,0,0,1-.488.693c-.067.08-.119.141-.157.183-.019.019-.032.035-.042.045l-.01.01a.508.508,0,0,0-.109.558.514.514,0,0,0,.475.318,6.778,6.778,0,0,0,2.618-.619,9.615,9.615,0,0,0,1.742-.982,9.824,9.824,0,0,0,3.34.574ZM4.105,7.9A1.027,1.027,0,1,1,3.078,8.924,1.027,1.027,0,0,1,4.105,7.9Zm4.107,0A1.027,1.027,0,1,1,7.185,8.924,1.027,1.027,0,0,1,8.212,7.9Zm3.08,1.027a1.027,1.027,0,1,1,1.027,1.027A1.027,1.027,0,0,1,11.292,8.924Z" transform="translate(0.004 -2.25)" fill="#e1ceff"/>
</svg>
