<svg xmlns="http://www.w3.org/2000/svg" width="21.061" height="16.146" viewBox="0 0 21.061 16.146">
  <g id="Icon_core-credit-card" data-name="Icon core-credit-card" transform="translate(-1.125 -5.063)">
    <path id="Path_1102" data-name="Path 1102" d="M21.133,5.063H2.178A1.054,1.054,0,0,0,1.125,6.116v14.04a1.054,1.054,0,0,0,1.053,1.053H21.133a1.054,1.054,0,0,0,1.053-1.053V6.116a1.054,1.054,0,0,0-1.053-1.053Zm-.351,1.4V9.275H2.529V6.467ZM2.529,19.8V12.083H20.782V19.8Z" fill="#dbd0e9"/>
    <path id="Path_1103" data-name="Path 1103" d="M6.188,21.938H9v1.4H6.188Zm4.212,0h2.808v1.4H10.4Z" transform="translate(-1.903 -6.345)" fill="#dbd0e9"/>
  </g>
</svg>
