<svg xmlns="http://www.w3.org/2000/svg" width="23.638" height="23.638" viewBox="0 0 23.638 23.638">
  <path id="Icon_material-my-location" data-name="Icon material-my-location" d="M13.319,9.021a4.3,4.3,0,1,0,4.3,4.3A4.3,4.3,0,0,0,13.319,9.021Zm9.605,3.223a9.663,9.663,0,0,0-8.531-8.531V1.5H12.244V3.713a9.663,9.663,0,0,0-8.531,8.531H1.5v2.149H3.713a9.663,9.663,0,0,0,8.531,8.531v2.213h2.149V22.924a9.663,9.663,0,0,0,8.531-8.531h2.213V12.244Zm-9.605,8.6a7.521,7.521,0,1,1,7.521-7.521A7.516,7.516,0,0,1,13.319,20.84Z" transform="translate(-1.5 -1.5)" fill="#8742f5"/>
</svg>
