<svg xmlns="http://www.w3.org/2000/svg" width="19.921" height="19.921" viewBox="0 0 19.921 19.921">
  <g id="Icon_feather-eye" data-name="Icon feather-eye" transform="translate(1.061 1.061)">
    <g id="Icon_feather-eye-off" data-name="Icon feather-eye-off" transform="translate(-1.5 -1.5)">
      <path id="Path_132" data-name="Path 132" d="M15.206,17.279A8.148,8.148,0,0,1,10.4,18.945c-5.664,0-8.9-6.473-8.9-6.473A14.928,14.928,0,0,1,5.594,7.667M8.7,6.194A7.379,7.379,0,0,1,10.4,6c5.664,0,8.9,6.473,8.9,6.473a14.968,14.968,0,0,1-1.748,2.581m-5.437-.866a2.427,2.427,0,1,1-3.431-3.431" transform="translate(0 -2.073)" fill="none" stroke="#c1c1c1" stroke-linecap="round" stroke-linejoin="round" stroke-width="1.5"/>
      <path id="Path_133" data-name="Path 133" d="M1.5,1.5,19.3,19.3" fill="none" stroke="#c1c1c1" stroke-linecap="round" stroke-linejoin="round" stroke-width="1.5"/>
    </g>
  </g>
</svg>
