<svg id="Group_78" data-name="Group 78" xmlns="http://www.w3.org/2000/svg" xmlns:xlink="http://www.w3.org/1999/xlink" width="251" height="250.008" viewBox="0 0 251 250.008">
  <defs>
    <clipPath id="clip-path">
      <rect id="Rectangle_362" data-name="Rectangle 362" width="251" height="250.008" fill="#fff"/>
    </clipPath>
  </defs>
  <g id="Group_77" data-name="Group 77" clip-path="url(#clip-path)">
    <path id="Path_815" data-name="Path 815" d="M207.293,183.062a1.335,1.335,0,0,1-1.309-1.073L198.8,145.907a1.335,1.335,0,0,1,1.048-1.57l20.693-4.121a1.335,1.335,0,0,1,1.569,1.048l7.187,36.081a1.335,1.335,0,0,1-1.568,1.57l-10.7-2.113-8.995,6.033a1.331,1.331,0,0,1-.743.226m-5.617-36.368,6.535,32.811L216,174.278a1.325,1.325,0,0,1,1-.2l9.282,1.834-6.536-32.817Z" transform="translate(-88.83 -62.651)" fill="#fff"/>
    <path id="Path_816" data-name="Path 816" d="M242.552,360.092a1.334,1.334,0,0,1-1.309-1.073l-6.128-30.771a1.335,1.335,0,0,1,1.048-1.57l20.693-4.121a1.335,1.335,0,0,1,1.569,1.048l6.129,30.771a1.335,1.335,0,0,1-1.048,1.57l-20.693,4.121a1.3,1.3,0,0,1-.261.025m-4.559-31.057,5.607,28.154,18.076-3.6-5.607-28.155Z" transform="translate(-105.06 -144.137)" fill="#fff"/>
    <path id="Path_817" data-name="Path 817" d="M132.093,280.144a2.6,2.6,0,0,1-2.551-2.106l-15.824-82.032-5.957,1.149a2.6,2.6,0,0,1-3.044-2.059l-8.542-44.284a2.6,2.6,0,0,1,2.059-3.044l132.207-25.5a2.6,2.6,0,0,1,3.044,2.06l8.542,44.284a2.6,2.6,0,0,1-2.06,3.044l-5.957,1.149,15.824,82.032a2.6,2.6,0,0,1-2.06,3.044L132.585,280.1a2.6,2.6,0,0,1-.492.047m-16.316-89.78a2.6,2.6,0,0,1,2.551,2.107L134.152,274.5l110.086-21.235-15.824-82.032a2.6,2.6,0,0,1,2.059-3.044l5.958-1.149-7.558-39.181-127.1,24.518,7.558,39.181,5.958-1.149a2.594,2.594,0,0,1,.492-.047" transform="translate(-42.959 -54.619)" fill="#fff"/>
    <path id="Path_818" data-name="Path 818" d="M220.978,101.625a2.6,2.6,0,0,1-2.6-2.723c.069-1.454,1.727-35.77,3.92-50.052.695-4.524,2.193-7.458,4.715-9.23,2.5-1.758,5.871-2.191,10.3-1.327,5.157,1.007,11.575,2.259,16.033,4.192a2.6,2.6,0,0,1-.7,4.961c-5.3.69-8.117,5.594-11.095,10.785l-.322.561c-7.241,12.594-17.715,40.851-17.82,41.135a2.6,2.6,0,0,1-2.435,1.7m12.253-58.573a5.517,5.517,0,0,0-3.227.819c-1.268.892-2.108,2.778-2.567,5.768-1.191,7.754-2.242,21.979-2.947,33.2C228.13,73.867,232.819,63,236.728,56.2l.319-.557c2.128-3.708,4.437-7.734,7.9-10.413-2.863-.715-5.923-1.311-8.621-1.838a16.386,16.386,0,0,0-3.09-.342" transform="translate(-97.592 -16.921)" fill="#fff"/>
    <path id="Path_819" data-name="Path 819" d="M221.691,105.024a2.6,2.6,0,0,1-2.55-3.1s.142-.72.4-1.909a2.552,2.552,0,0,1,.108-.362c2.478-6.553,11.057-28.786,17.4-39.811l.313-.545c3.161-5.509,6.743-11.755,13.95-13.2a2.49,2.49,0,0,1,.293-.041c.249-.021.495-.038.732-.047,3.731-.15,8.05,3.618,8.8,10.873,1.344,12.952-18.32,37.547-38.255,47.85a2.6,2.6,0,0,1-1.193.289m30.5-53.8c-4.8,1.042-7.484,5.715-10.32,10.659l-.316.549h0c-5.039,8.766-11.628,25.073-15.185,34.222,16.672-11.038,30.521-30.374,29.6-39.235-.488-4.706-2.819-6.21-3.435-6.216-.111,0-.227.011-.346.02M239.3,61.137h0Z" transform="translate(-97.911 -20.56)" fill="#fff"/>
    <path id="Path_820" data-name="Path 820" d="M223.675,111.479a2.6,2.6,0,0,1-.534-5.142c4.013-.846,23.082-7.256,43.074-23.154A84.7,84.7,0,0,0,284.207,63.13c.49-.721.935-1.376,1.342-1.955a2.6,2.6,0,0,1,4.251,2.99c-.393.559-.823,1.191-1.294,1.886a89.4,89.4,0,0,1-19.056,21.2c-20.438,16.254-40,23.066-45.235,24.171a2.58,2.58,0,0,1-.539.057" transform="translate(-98.799 -26.846)" fill="#fff"/>
    <path id="Path_821" data-name="Path 821" d="M181.763,108.348a2.593,2.593,0,0,1-1.928-.856c-.2-.224-20.436-22.558-31.841-31.555l-.509-.4c-4.7-3.711-9.132-7.216-14.309-5.884a2.6,2.6,0,0,1-2.21-4.592c1.685-1.268,3.279-2.506,4.685-3.6,2.4-1.863,4.293-3.335,5.77-4.3,5.289-3.464,9.4-4.694,12.935-3.871,2.964.69,5.351,2.717,7.514,6.379,7.348,12.441,21.65,43.679,22.256,45a2.6,2.6,0,0,1-2.362,3.679M139.8,64.817c4.082,1.248,7.63,4.053,10.905,6.641l.5.4c6.158,4.857,14.552,13.2,21.266,20.171C167.651,81.876,161.384,69.064,157.4,62.31c-1.829-3.1-3.283-3.743-4.219-3.96-2.028-.473-4.944.559-8.909,3.156-1.109.726-2.661,1.913-4.466,3.311" transform="translate(-58.065 -23.704)" fill="#fff"/>
    <path id="Path_822" data-name="Path 822" d="M178.987,117.257c-.082,0-.166,0-.249-.012C156.4,115.1,129,99.58,125.429,87.057c-2-7.014.633-12.122,4.125-13.366.225-.08.458-.156.7-.229a2.51,2.51,0,0,1,.289-.071c7.227-1.342,12.874,3.122,17.856,7.06l.5.392c9.987,7.877,26.219,25.324,30.957,30.484a2.637,2.637,0,0,1,.235.3c.685,1.007,1.084,1.623,1.084,1.623a2.6,2.6,0,0,1-2.18,4.012M131.632,78.474q-.172.054-.335.112c-.564.233-2.168,2.5-.871,7.045C132.869,94.2,152.916,107,172.5,111.041c-6.7-7.169-18.886-19.855-26.825-26.118l-.5-.394c-4.47-3.533-8.7-6.875-13.541-6.054" transform="translate(-55.745 -32.689)" fill="#fff"/>
    <path id="Path_823" data-name="Path 823" d="M139.729,140.159c-8.995,0-23.089-1.965-44.094-10.716-8.646-3.6-16.225-4.425-21.343-2.314a11.45,11.45,0,0,0-6.355,6.452,2.6,2.6,0,1,1-4.8-1.993,16.693,16.693,0,0,1,9.174-9.263c6.493-2.678,15.25-1.876,25.323,2.321,31.347,13.061,46.209,10.4,51.8,9.4l.525-.093a2.6,2.6,0,0,1,.9,5.12l-.505.09a55.828,55.828,0,0,1-10.624,1" transform="translate(-28.126 -53.973)" fill="#fff"/>
    <path id="Path_824" data-name="Path 824" d="M400.507,77.089c-1.466,1.348-28.447,21.277-28.447,21.277s22.1-25.235,23.563-26.584a3.606,3.606,0,1,1,4.884,5.307" transform="translate(-166.272 -31.653)" fill="#fff"/>
    <path id="Path_825" data-name="Path 825" d="M398.044,124.423c-1.32.025-23.477-1.952-23.477-1.952s22.067-2.805,23.387-2.83a2.392,2.392,0,0,1,.09,4.782" transform="translate(-167.392 -53.467)" fill="#fff"/>
    <path id="Path_826" data-name="Path 826" d="M377.518,75.512c-.464,1.237-10.473,21.1-10.473,21.1s5.531-21.546,6-22.782a2.391,2.391,0,0,1,4.478,1.68" transform="translate(-164.03 -32.302)" fill="#fff"/>
    <path id="Path_827" data-name="Path 827" d="M57.1,298.907c1.441-1.375,23.081-27,23.081-27s-26.618,20.411-28.059,21.786a3.606,3.606,0,1,0,4.978,5.219" transform="translate(-22.794 -121.512)" fill="#fff"/>
    <path id="Path_828" data-name="Path 828" d="M104.632,298.229c.111-1.316-.421-23.554-.421-23.554s-4.234,21.838-4.345,23.154a2.391,2.391,0,1,0,4.766.4" transform="translate(-44.626 -122.751)" fill="#fff"/>
    <path id="Path_829" data-name="Path 829" d="M57.957,275.7c1.264-.382,21.738-9.08,21.738-9.08s-21.859,4.12-23.124,4.5a2.391,2.391,0,1,0,1.386,4.577" transform="translate(-24.522 -119.15)" fill="#fff"/>
    <path id="Path_830" data-name="Path 830" d="M329.2,171.64a.276.276,0,0,1-.271-.224l-6.262-32.972L312,140.535a.277.277,0,0,1-.107-.543l11.209-2.2,6.365,33.518a.277.277,0,0,1-.22.324.286.286,0,0,1-.053,0" transform="translate(-139.284 -61.579)" fill="#fff"/>
    <path id="Path_831" data-name="Path 831" d="M256.36,149.856a.276.276,0,0,1-.053-.548l21.168-4.151a.276.276,0,1,1,.107.542l-21.167,4.15a.264.264,0,0,1-.054.006" transform="translate(-114.443 -64.868)" fill="#fff"/>
    <path id="Path_832" data-name="Path 832" d="M255.327,183.136a.277.277,0,0,1-.271-.224L250.5,159.286a.277.277,0,0,1,.544-.105l4.556,23.626a.277.277,0,0,1-.219.324.291.291,0,0,1-.053,0" transform="translate(-111.945 -71.037)" fill="#fff"/>
    <path id="Path_833" data-name="Path 833" d="M162.237,345.145a.277.277,0,0,1-.271-.225l-9.084-47.727a.277.277,0,0,1,.543-.1l9.084,47.727a.277.277,0,0,1-.22.324.347.347,0,0,1-.053,0" transform="translate(-68.32 -132.668)" fill="#fff"/>
    <path id="Path_834" data-name="Path 834" d="M291.062,368.235a.277.277,0,0,1-.055-.548l3.318-.673a.277.277,0,0,1,.111.542l-3.318.673a.278.278,0,0,1-.056.006" transform="translate(-129.951 -164.015)" fill="#fff"/>
    <path id="Path_835" data-name="Path 835" d="M198.246,383.852a.277.277,0,0,1-.055-.548l22.891-4.643a.277.277,0,0,1,.11.543L198.3,383.846a.283.283,0,0,1-.056.005" transform="translate(-88.472 -169.219)" fill="#fff"/>
    <path id="Path_836" data-name="Path 836" d="M306.348,362.983a.277.277,0,0,1-.057-.547l18.939-3.993a.277.277,0,0,1,.114.542l-18.939,3.993a.3.3,0,0,1-.058.006" transform="translate(-136.782 -160.183)" fill="#fff"/>
    <path id="Path_837" data-name="Path 837" d="M350.145,305.968a.276.276,0,0,1-.27-.223l-9.883-50.035a.276.276,0,1,1,.542-.107l9.883,50.035a.276.276,0,0,1-.217.325.259.259,0,0,1-.054.006" transform="translate(-151.938 -114.128)" fill="#fff"/>
    <path id="Path_838" data-name="Path 838" d="M234.852,356.136a.277.277,0,0,1-.27-.221l-3.905-19.01a.277.277,0,0,1,.543-.111l3.9,19.009a.277.277,0,0,1-.215.327.282.282,0,0,1-.056.006" transform="translate(-103.085 -150.413)" fill="#fff"/>
    <path id="Path_839" data-name="Path 839" d="M152.813,171.422a.276.276,0,0,1-.053-.548l16.2-3.18a.273.273,0,0,1,.325.217.276.276,0,0,1-.217.325l-16.2,3.18a.266.266,0,0,1-.054.006" transform="translate(-68.168 -74.939)" fill="#fff"/>
    <path id="Path_840" data-name="Path 840" d="M116.506,193.317a.277.277,0,0,1-.272-.227l-2.663-14.7,17.52-3.438a.276.276,0,1,1,.107.542l-16.985,3.333,2.565,14.164a.277.277,0,0,1-.223.321.3.3,0,0,1-.05,0" transform="translate(-50.755 -78.183)" fill="#fff"/>
    <path id="Path_841" data-name="Path 841" d="M121.805,225.113a.277.277,0,0,1-.272-.227l-1.084-5.986a.277.277,0,1,1,.544-.1l1.084,5.986a.277.277,0,0,1-.223.321.3.3,0,0,1-.05,0" transform="translate(-53.826 -97.68)" fill="#fff"/>
    <path id="Path_842" data-name="Path 842" d="M368.69,35.351a2.326,2.326,0,1,1,2.326-2.326,2.329,2.329,0,0,1-2.326,2.326m0-4.1a1.773,1.773,0,1,0,1.773,1.773,1.775,1.775,0,0,0-1.773-1.773" transform="translate(-163.726 -13.719)" fill="#fff"/>
    <path id="Path_843" data-name="Path 843" d="M438.085,40.726a3.778,3.778,0,1,1,3.778-3.778,3.782,3.782,0,0,1-3.778,3.778m0-7a3.225,3.225,0,1,0,3.225,3.225,3.229,3.229,0,0,0-3.225-3.225" transform="translate(-194.089 -14.823)" fill="#fff"/>
    <path id="Path_844" data-name="Path 844" d="M379.851,198.086a1.711,1.711,0,1,1,1.711-1.711,1.713,1.713,0,0,1-1.711,1.711m0-2.869a1.158,1.158,0,1,0,1.158,1.158,1.159,1.159,0,0,0-1.158-1.158" transform="translate(-168.989 -86.994)" fill="#fff"/>
    <path id="Path_845" data-name="Path 845" d="M376.162,252.572A2.838,2.838,0,1,1,379,249.734a2.841,2.841,0,0,1-2.838,2.838m0-5.123a2.285,2.285,0,1,0,2.285,2.285,2.288,2.288,0,0,0-2.285-2.285" transform="translate(-166.837 -110.337)" fill="#fff"/>
    <path id="Path_846" data-name="Path 846" d="M419.756,357.169a1.608,1.608,0,1,1,1.608-1.608,1.609,1.609,0,0,1-1.608,1.608m0-2.663a1.055,1.055,0,1,0,1.055,1.055,1.056,1.056,0,0,0-1.055-1.055" transform="translate(-186.868 -158.18)" fill="#fff"/>
    <path id="Path_847" data-name="Path 847" d="M325.767,414.422a1.711,1.711,0,1,1,1.711-1.711,1.713,1.713,0,0,1-1.711,1.711m0-2.869a1.158,1.158,0,1,0,1.158,1.158,1.159,1.159,0,0,0-1.158-1.158" transform="translate(-144.819 -183.674)" fill="#fff"/>
    <path id="Path_848" data-name="Path 848" d="M409.289,409.952a4.477,4.477,0,1,1,4.477-4.476,4.481,4.481,0,0,1-4.477,4.476m0-8.4a3.924,3.924,0,1,0,3.924,3.924,3.929,3.929,0,0,0-3.924-3.924" transform="translate(-180.908 -179.204)" fill="#fff"/>
    <path id="Path_849" data-name="Path 849" d="M130.775,403.766a1.2,1.2,0,1,1,1.2-1.2,1.2,1.2,0,0,1-1.2,1.2m0-1.844a.645.645,0,1,0,.645.646.646.646,0,0,0-.645-.646" transform="translate(-57.907 -179.37)" fill="#fff"/>
    <path id="Path_850" data-name="Path 850" d="M94.834,447.091a3.043,3.043,0,1,1,3.043-3.043,3.046,3.046,0,0,1-3.043,3.043m0-5.532a2.49,2.49,0,1,0,2.49,2.49,2.493,2.493,0,0,0-2.49-2.49" transform="translate(-41.021 -197.083)" fill="#fff"/>
    <path id="Path_851" data-name="Path 851" d="M81.009,344.244a1.813,1.813,0,1,1,1.813-1.814,1.815,1.815,0,0,1-1.813,1.814m0-3.074a1.26,1.26,0,1,0,1.26,1.26,1.261,1.261,0,0,0-1.26-1.26" transform="translate(-35.392 -152.22)" fill="#fff"/>
    <path id="Path_852" data-name="Path 852" d="M76.729,210.846a1.608,1.608,0,1,1,1.608-1.608,1.61,1.61,0,0,1-1.608,1.608m0-2.664a1.055,1.055,0,1,0,1.055,1.055,1.057,1.057,0,0,0-1.055-1.055" transform="translate(-33.571 -92.788)" fill="#fff"/>
    <path id="Path_853" data-name="Path 853" d="M27.028,139.225a1.916,1.916,0,1,1,1.915-1.915,1.918,1.918,0,0,1-1.915,1.915m0-3.278a1.363,1.363,0,1,0,1.362,1.363,1.364,1.364,0,0,0-1.362-1.363" transform="translate(-11.222 -60.507)" fill="#fff"/>
    <path id="Path_854" data-name="Path 854" d="M19.737,268.744a3.145,3.145,0,1,1,3.146-3.144,3.149,3.149,0,0,1-3.146,3.144m0-5.737a2.592,2.592,0,1,0,2.592,2.592,2.6,2.6,0,0,0-2.592-2.592" transform="translate(-7.414 -117.289)" fill="#fff"/>
    <path id="Path_855" data-name="Path 855" d="M107.538,58.722a1.3,1.3,0,1,1,1.3-1.3,1.3,1.3,0,0,1-1.3,1.3m0-2.049a.748.748,0,1,0,.748.748.749.749,0,0,0-.748-.748" transform="translate(-47.477 -25.08)" fill="#fff"/>
    <path id="Path_856" data-name="Path 856" d="M42.727,44.676a2.428,2.428,0,1,1,2.428-2.428,2.431,2.431,0,0,1-2.428,2.428m0-4.3A1.875,1.875,0,1,0,44.6,42.249a1.878,1.878,0,0,0-1.875-1.876" transform="translate(-18.009 -17.795)" fill="#fff"/>
    <path id="Path_857" data-name="Path 857" d="M189.894,16.357a2.53,2.53,0,1,1,2.53-2.53,2.533,2.533,0,0,1-2.53,2.53m0-4.507a1.977,1.977,0,1,0,1.977,1.977,1.979,1.979,0,0,0-1.977-1.977" transform="translate(-83.732 -5.049)" fill="#fff"/>
    <path id="Path_858" data-name="Path 858" d="M384.523,155.433l.685,3.381,3.174,1.352-3,1.7-.305,3.436-2.542-2.332-3.362.772L380.6,160.6l-1.773-2.96,3.427.393Z" transform="translate(-169.297 -69.462)" fill="#fff"/>
    <path id="Path_859" data-name="Path 859" d="M397,32.154l.888,1.3,1.574.006-.962,1.246.481,1.5-1.482-.53-1.277.921.046-1.574-1.27-.93,1.511-.442Z" transform="translate(-176.522 -14.369)" fill="#fff"/>
    <path id="Path_860" data-name="Path 860" d="M403.632,177.447l.8.8,1.112-.2-.514,1.007.538.995-1.117-.178-.779.819-.176-1.117-1.02-.488,1.008-.513Z" transform="translate(-179.864 -79.3)" fill="#fff"/>
    <path id="Path_861" data-name="Path 861" d="M42.96,198.1l.235,3.667,3.153,1.885-3.415,1.356-.819,3.582-2.345-2.829-3.659.328,1.965-3.1-1.442-3.379,3.559.91Z" transform="translate(-16.138 -88.531)" fill="#fff"/>
    <path id="Path_862" data-name="Path 862" d="M39.8,178.3l.908.935,1.285-.218-.609,1.153.6,1.155L40.7,181.1l-.911.932-.185-1.29-1.168-.579,1.17-.575Z" transform="translate(-17.177 -79.681)" fill="#fff"/>
    <path id="Path_863" data-name="Path 863" d="M73.419,67.834l.843,4.069,3.83,1.611-3.609,2.06-.349,4.141-3.074-2.8-4.045.947,1.709-3.788-2.151-3.555,4.13.455Z" transform="translate(-29.751 -30.315)" fill="#fff"/>
    <path id="Path_864" data-name="Path 864" d="M107.51,23.184l1.357,1.681,2.154-.165-1.18,1.81.822,2-2.086-.563-1.646,1.4-.11-2.158-1.84-1.133L107,25.284Z" transform="translate(-46.916 -10.361)" fill="#fff"/>
    <path id="Path_865" data-name="Path 865" d="M330.26,0l2.065,4.185,4.618.671L333.6,8.114l.789,4.6-4.131-2.171-4.131,2.171.789-4.6-3.342-3.257,4.618-.671Z" transform="translate(-144.605 0)" fill="#fff"/>
    <path id="Path_866" data-name="Path 866" d="M363.162,6.969l.238,1.594,1.447.708-1.443.718-.226,1.6-1.129-1.15-1.587.279.745-1.43-.756-1.424,1.59.267Z" transform="translate(-161.084 -3.114)" fill="#fff"/>
    <path id="Path_867" data-name="Path 867" d="M413.564,275.328l1.295,4.517,4.455,1.494-3.9,2.628-.044,4.7-3.7-2.893-4.482,1.41,1.607-4.415-2.726-3.827,4.7.164Z" transform="translate(-181.471 -123.043)" fill="#fff"/>
    <path id="Path_868" data-name="Path 868" d="M432.962,258.088l1.36,1.478,1.99-.283-.986,1.751.883,1.8-1.969-.4-1.444,1.4-.231-2-1.775-.941,1.826-.837Z" transform="translate(-192.518 -115.338)" fill="#fff"/>
    <path id="Path_869" data-name="Path 869" d="M358.808,415.564l.837,3.925,3.709,1.535-3.474,2.009-.314,4-2.985-2.683-3.9.938,1.629-3.668-2.1-3.422,3.992.417Z" transform="translate(-157.401 -185.714)" fill="#fff"/>
    <path id="Path_870" data-name="Path 870" d="M382.891,430.249l1.226,1.214,1.7-.322-.776,1.541.83,1.513-1.705-.262-1.183,1.257-.278-1.7-1.561-.736,1.534-.791Z" transform="translate(-170.329 -192.276)" fill="#fff"/>
    <path id="Path_871" data-name="Path 871" d="M263.137,439.533l1.4,1.738,2.229-.171-1.22,1.873.852,2.066-2.158-.581-1.7,1.448-.114-2.232-1.9-1.171,2.087-.8Z" transform="translate(-116.427 -196.425)" fill="#fff"/>
    <path id="Path_872" data-name="Path 872" d="M95.038,363.235l2.677,3.074,4.05-.463-2.1,3.5,1.691,3.709-3.972-.913-3,2.755-.359-4.06-3.548-2.006,3.75-1.6Z" transform="translate(-40.433 -162.328)" fill="#fff"/>
    <path id="Path_873" data-name="Path 873" d="M43.73,357.517l.676,1.371,1.513.22-1.095,1.068.258,1.507-1.353-.712-1.353.712.258-1.507-1.095-1.068,1.513-.22Z" transform="translate(-18.564 -159.773)" fill="#fff"/>
    <path id="Path_874" data-name="Path 874" d="M41.789,418.076l.393,2.556,2.329,1.126-2.31,1.164-.351,2.563-1.82-1.837-2.546.459,1.185-2.3-1.222-2.279,2.553.416Z" transform="translate(-16.734 -186.836)" fill="#fff"/>
    <path id="Path_875" data-name="Path 875" d="M135.964,436.983l-.152,2.394,1.886,1.483-2.324.6-.827,2.252-1.284-2.027-2.4-.091,1.53-1.847-.654-2.308,2.23.884Z" transform="translate(-58.483 -195.286)" fill="#fff"/>
    <path id="Path_876" data-name="Path 876" d="M415.132,156.226a2.7,2.7,0,1,1-2.7-2.7,2.7,2.7,0,0,1,2.7,2.7" transform="translate(-183.103 -68.608)" fill="#fff"/>
    <path id="Path_877" data-name="Path 877" d="M422.344,144.9a1.159,1.159,0,1,1-1.159-1.159,1.159,1.159,0,0,1,1.159,1.159" transform="translate(-187.707 -64.236)" fill="#fff"/>
    <path id="Path_878" data-name="Path 878" d="M430.274,161.686a.576.576,0,1,1-.575-.575.575.575,0,0,1,.575.575" transform="translate(-191.773 -72)" fill="#fff"/>
    <path id="Path_879" data-name="Path 879" d="M407.045,232.844a1.215,1.215,0,1,1-1.215-1.215,1.215,1.215,0,0,1,1.215,1.215" transform="translate(-180.82 -103.514)" fill="#fff"/>
    <path id="Path_880" data-name="Path 880" d="M428.193,231.973a.576.576,0,1,1-.575-.575.575.575,0,0,1,.575.575" transform="translate(-190.843 -103.411)" fill="#fff"/>
    <path id="Path_881" data-name="Path 881" d="M416.622,250a1.727,1.727,0,1,1-1.726-1.726A1.726,1.726,0,0,1,416.622,250" transform="translate(-184.643 -110.953)" fill="#fff"/>
    <path id="Path_882" data-name="Path 882" d="M399.134,344.03a.959.959,0,1,1-.959-.959.959.959,0,0,1,.959.959" transform="translate(-177.514 -153.317)" fill="#fff"/>
    <path id="Path_883" data-name="Path 883" d="M381.848,401.512a.639.639,0,1,1-.639-.639.64.64,0,0,1,.639.639" transform="translate(-170.074 -179.148)" fill="#fff"/>
    <path id="Path_884" data-name="Path 884" d="M385.887,409.324a3.133,3.133,0,1,0,3.133-3.133,3.133,3.133,0,0,0-3.133,3.133" transform="translate(-172.451 -181.525)" fill="#fff"/>
    <path id="Path_885" data-name="Path 885" d="M300.025,440.484a.767.767,0,1,1-.767-.767.767.767,0,0,1,.767.767" transform="translate(-133.394 -196.507)" fill="#fff"/>
    <path id="Path_886" data-name="Path 886" d="M195.828,433.356a.576.576,0,1,1-.575-.575.575.575,0,0,1,.575.575" transform="translate(-87 -193.408)" fill="#fff"/>
    <path id="Path_887" data-name="Path 887" d="M199.995,436.312a3.069,3.069,0,1,0,3.069-3.069,3.069,3.069,0,0,0-3.069,3.069" transform="translate(-89.377 -193.614)" fill="#fff"/>
    <path id="Path_888" data-name="Path 888" d="M94.427,414.215a1.087,1.087,0,1,1-1.087-1.087,1.087,1.087,0,0,1,1.087,1.087" transform="translate(-41.227 -184.625)" fill="#fff"/>
    <path id="Path_889" data-name="Path 889" d="M106.695,405.321a2.366,2.366,0,1,1-2.366-2.366,2.366,2.366,0,0,1,2.366,2.366" transform="translate(-45.567 -180.078)" fill="#fff"/>
    <path id="Path_890" data-name="Path 890" d="M2.685,398.517a1.343,1.343,0,1,1-1.343-1.343,1.343,1.343,0,0,1,1.343,1.343" transform="translate(0 -177.495)" fill="#fff"/>
    <path id="Path_891" data-name="Path 891" d="M16.77,345.791a.639.639,0,1,1-.639-.639.64.64,0,0,1,.639.639" transform="translate(-6.923 -154.247)" fill="#fff"/>
    <path id="Path_892" data-name="Path 892" d="M122.56,346.549a.7.7,0,1,1-.7-.7.7.7,0,0,1,.7.7" transform="translate(-54.143 -154.556)" fill="#fff"/>
    <path id="Path_893" data-name="Path 893" d="M126.274,360.775a1.982,1.982,0,1,1-1.982-1.982,1.982,1.982,0,0,1,1.982,1.982" transform="translate(-54.66 -160.343)" fill="#fff"/>
    <path id="Path_894" data-name="Path 894" d="M81.582,236.351a1.023,1.023,0,1,1-1.023-1.023,1.023,1.023,0,0,1,1.023,1.023" transform="translate(-35.544 -105.167)" fill="#fff"/>
    <path id="Path_895" data-name="Path 895" d="M60.807,237.177a3.005,3.005,0,1,1-3.005-3.005,3.005,3.005,0,0,1,3.005,3.005" transform="translate(-24.488 -104.65)" fill="#fff"/>
    <path id="Path_896" data-name="Path 896" d="M73.981,185.038a.576.576,0,1,1-.575-.575.575.575,0,0,1,.575.575" transform="translate(-32.547 -82.436)" fill="#fff"/>
    <path id="Path_897" data-name="Path 897" d="M96.9,93.838a.7.7,0,1,1-.7-.7.7.7,0,0,1,.7.7" transform="translate(-42.674 -41.622)" fill="#fff"/>
    <path id="Path_898" data-name="Path 898" d="M32.852,99.619a.7.7,0,1,1-.7-.7.7.7,0,0,1,.7.7" transform="translate(-14.053 -44.205)" fill="#fff"/>
    <path id="Path_899" data-name="Path 899" d="M133.7,38.717a1.535,1.535,0,1,1-1.534-1.535,1.535,1.535,0,0,1,1.534,1.535" transform="translate(-58.379 -16.616)" fill="#fff"/>
    <path id="Path_900" data-name="Path 900" d="M83.4,39.578a1.471,1.471,0,1,1-1.471-1.471A1.47,1.47,0,0,1,83.4,39.578" transform="translate(-35.957 -17.03)" fill="#fff"/>
    <path id="Path_901" data-name="Path 901" d="M277.445,24.81a.576.576,0,1,1-.575-.575.575.575,0,0,1,.575.575" transform="translate(-123.474 -10.83)" fill="#fff"/>
    <path id="Path_902" data-name="Path 902" d="M290.495,5.094a3.517,3.517,0,1,1-3.517-3.517,3.517,3.517,0,0,1,3.517,3.517" transform="translate(-126.677 -0.705)" fill="#fff"/>
    <path id="Path_903" data-name="Path 903" d="M300.251,32.745a1.343,1.343,0,1,1-1.343-1.343,1.343,1.343,0,0,1,1.343,1.343" transform="translate(-132.981 -14.033)" fill="#fff"/>
    <path id="Path_904" data-name="Path 904" d="M398.855,11.991a.7.7,0,1,1-.7-.7.7.7,0,0,1,.7.7" transform="translate(-177.617 -5.044)" fill="#fff"/>
    <path id="Path_905" data-name="Path 905" d="M416.927,5.536a2.11,2.11,0,1,1-2.11-2.11,2.11,2.11,0,0,1,2.11,2.11" transform="translate(-184.437 -1.531)" fill="#fff"/>
    <path id="Path_906" data-name="Path 906" d="M415.343,30.408a1.087,1.087,0,1,1-1.087-1.086,1.087,1.087,0,0,1,1.087,1.086" transform="translate(-184.643 -13.104)" fill="#fff"/>
    <path id="Path_907" data-name="Path 907" d="M451.7,107.489a1.3,1.3,0,1,1-1.3-1.3,1.3,1.3,0,0,1,1.3,1.3" transform="translate(-200.698 -47.455)" fill="#fff"/>
  </g>
</svg>
