<svg xmlns="http://www.w3.org/2000/svg" width="17.154" height="15.296" viewBox="0 0 17.154 15.296">
  <g id="Icon_akar-heart" data-name="Icon akar-heart" transform="translate(-3 -4.5)" fill="none" stroke-linecap="round" stroke-linejoin="round">
    <path d="M7.289,4.5A4.267,4.267,0,0,0,3,8.746c0,1.893.75,6.386,8.138,10.927a.845.845,0,0,0,.878,0c7.387-4.542,8.138-9.034,8.138-10.927A4.267,4.267,0,0,0,15.866,4.5c-2.368,0-4.289,2.573-4.289,2.573S9.657,4.5,7.289,4.5Z" stroke="none"/>
    <path d="M 7.288516998291016 6.199996948242188 C 5.861207962036133 6.199996948242188 4.699996948242188 7.341957092285156 4.699996948242188 8.745627403259277 C 4.699996948242188 9.898667335510254 5.070516586303711 11.15091705322266 5.77149772644043 12.36699771881104 C 6.901498794555664 14.32734489440918 8.853303909301758 16.20116996765137 11.57702732086182 17.94177055358887 C 14.30075073242188 16.20116996765137 16.25255584716797 14.32734489440918 17.3825569152832 12.36699771881104 C 18.08353805541992 11.15091705322266 18.45405769348145 9.898667335510254 18.45405769348145 8.745627403259277 C 18.45405769348145 7.341957092285156 17.2928466796875 6.199996948242188 15.86553764343262 6.199996948242188 C 14.65163421630859 6.199996948242188 13.31510639190674 7.597055435180664 12.93793106079102 8.091943740844727 C 12.61907768249512 8.525275230407715 12.11800193786621 8.776531219482422 11.57988739013672 8.778757095336914 C 11.04093933105469 8.781215667724609 10.53700733184814 8.521848678588867 10.21463775634766 8.089906692504883 C 9.91669750213623 7.690696716308594 8.546907424926758 6.199996948242188 7.288516998291016 6.199996948242188 M 7.288516998291016 4.499998092651367 C 9.656627655029297 4.499998092651367 11.57702732086182 7.07310676574707 11.57702732086182 7.07310676574707 C 11.57702732086182 7.07310676574707 13.49741744995117 4.499998092651367 15.86553764343262 4.499998092651367 C 18.23365783691406 4.499998092651367 20.15405654907227 6.400667190551758 20.15405654907227 8.745627403259277 C 20.15405654907227 10.63857746124268 19.40356826782227 15.13122749328613 12.01616764068604 19.67275810241699 C 11.74641704559326 19.8368968963623 11.40763759613037 19.8368968963623 11.1378870010376 19.67275810241699 C 3.750486373901367 15.13122749328613 2.999998092651367 10.63857746124268 2.999998092651367 8.745627403259277 C 2.999998092651367 6.400667190551758 4.92039680480957 4.499998092651367 7.288516998291016 4.499998092651367 Z" stroke="none" fill="#f5579c"/>
  </g>
</svg>
