<svg xmlns="http://www.w3.org/2000/svg" width="19.002" height="19.002" viewBox="0 0 19.002 19.002">
  <g id="Icon_akar-info" data-name="Icon akar-info" transform="translate(-3 -3)">
    <g id="Path_1130" data-name="Path 1130" fill="none">
      <path d="M22,12.5A9.5,9.5,0,1,1,12.5,3,9.5,9.5,0,0,1,22,12.5Z" stroke="none"/>
      <path d="M 12.5010986328125 4.69999885559082 C 8.199558258056641 4.69999885559082 4.69999885559082 8.199558258056641 4.69999885559082 12.5010986328125 C 4.69999885559082 16.80263900756836 8.199558258056641 20.30219841003418 12.5010986328125 20.30219841003418 C 16.80263900756836 20.30219841003418 20.30219841003418 16.80263900756836 20.30219841003418 12.5010986328125 C 20.30219841003418 8.199558258056641 16.80263900756836 4.69999885559082 12.5010986328125 4.69999885559082 M 12.5010986328125 2.999998092651367 C 17.74840927124023 2.999998092651367 22.00219917297363 7.253787994384766 22.00219917297363 12.5010986328125 C 22.00219917297363 17.74840927124023 17.74840927124023 22.00219917297363 12.5010986328125 22.00219917297363 C 7.253787994384766 22.00219917297363 2.999998092651367 17.74840927124023 2.999998092651367 12.5010986328125 C 2.999998092651367 7.253787994384766 7.253787994384766 2.999998092651367 12.5010986328125 2.999998092651367 Z" stroke="none" fill="#f5579c"/>
    </g>
    <path id="Path_1131" data-name="Path 1131" d="M18,10.5h.01" transform="translate(-5.499 -2.749)" fill="none" stroke="#f5579c" stroke-linecap="round" stroke-width="1.7"/>
    <path id="Path_1132" data-name="Path 1132" d="M15,16.5h1.9v4.751m-1.9,0h3.8" transform="translate(-4.399 -4.949)" fill="none" stroke="#f5579c" stroke-linecap="round" stroke-linejoin="round" stroke-width="1.7"/>
  </g>
</svg>
