<svg xmlns="http://www.w3.org/2000/svg" width="24.094" height="16.866" viewBox="0 0 24.094 16.866">
  <path id="Icon_fa-solid-square-envelope" data-name="Icon fa-solid-square-envelope" d="M16.1,19.74,4.515,12.263a2.407,2.407,0,0,1,2.394-2.138H26.184a2.407,2.407,0,0,1,2.394,2.138L17,19.74a.821.821,0,0,1-.9,0Zm2.214,2.025,10.285-6.641v9.457a2.407,2.407,0,0,1-2.409,2.409H6.909A2.407,2.407,0,0,1,4.5,24.581V15.124l10.285,6.641a3.247,3.247,0,0,0,3.524,0Z" transform="translate(-4.5 -10.125)" fill="#fff"/>
</svg>
