<svg xmlns="http://www.w3.org/2000/svg" width="16.43" height="19.417" viewBox="0 0 16.43 19.417">
  <path id="Icon_ion-md-notifications-outline" data-name="Icon ion-md-notifications-outline" d="M13.887,6.758A6.748,6.748,0,0,1,15,6.967a4.757,4.757,0,0,1,3.626,4.661v5.956l.435.437.364.365H8.253l.364-.365.435-.437V11.627a4.757,4.757,0,0,1,3.626-4.661,8.263,8.263,0,0,1,1.116-.209m.047-3.383a1.427,1.427,0,0,0-1.45,1.456v.68a6.293,6.293,0,0,0-4.832,6.117v5.34L5.625,18.909v.971h16.43v-.971l-1.933-1.942v-5.34A6.293,6.293,0,0,0,15.29,5.511v-.68A1.427,1.427,0,0,0,13.84,3.375Zm1.933,17.476H11.907a1.933,1.933,0,1,0,3.866,0Z" transform="translate(-5.625 -3.375)" fill="#f5579c"/>
</svg>
