<svg id="Group_76" data-name="Group 76" xmlns="http://www.w3.org/2000/svg" xmlns:xlink="http://www.w3.org/1999/xlink" width="273.361" height="272.379" viewBox="0 0 273.361 272.379">
  <defs>
    <clipPath id="clip-path">
      <rect id="Rectangle_138" data-name="Rectangle 138" width="273.361" height="272.379" fill="none"/>
    </clipPath>
    <clipPath id="clip-path-5">
      <rect id="Rectangle_123" data-name="Rectangle 123" width="25.944" height="15.027" fill="none"/>
    </clipPath>
    <clipPath id="clip-path-6">
      <rect id="Rectangle_125" data-name="Rectangle 125" width="29.183" height="29.183" fill="none"/>
    </clipPath>
    <clipPath id="clip-path-7">
      <rect id="Rectangle_126" data-name="Rectangle 126" width="13.275" height="16.417" fill="none"/>
    </clipPath>
    <clipPath id="clip-path-9">
      <rect id="Rectangle_130" data-name="Rectangle 130" width="10.696" height="9.245" fill="none"/>
    </clipPath>
    <clipPath id="clip-path-10">
      <rect id="Rectangle_131" data-name="Rectangle 131" width="86.912" height="20.964" fill="none"/>
    </clipPath>
    <clipPath id="clip-path-12">
      <rect id="Rectangle_133" data-name="Rectangle 133" width="19.382" height="7.313" fill="none"/>
    </clipPath>
    <clipPath id="clip-path-13">
      <rect id="Rectangle_134" data-name="Rectangle 134" width="2.057" height="2.01" fill="none"/>
    </clipPath>
    <clipPath id="clip-path-14">
      <rect id="Rectangle_135" data-name="Rectangle 135" width="7.834" height="19.136" fill="none"/>
    </clipPath>
    <clipPath id="clip-path-15">
      <rect id="Rectangle_136" data-name="Rectangle 136" width="2.075" height="2.092" fill="none"/>
    </clipPath>
  </defs>
  <g id="Group_75" data-name="Group 75" clip-path="url(#clip-path)">
    <g id="Group_36" data-name="Group 36">
      <g id="Group_35" data-name="Group 35" clip-path="url(#clip-path)">
        <path id="Path_615" data-name="Path 615" d="M372.7,252.989a20.9,20.9,0,1,1-23.677-17.625A20.873,20.873,0,0,1,372.7,252.989" transform="translate(-99.56 -70.701)" fill="#f5f5f5"/>
        <path id="Path_616" data-name="Path 616" d="M369.92,255.838a15.924,15.924,0,1,1-18.043-13.432,15.906,15.906,0,0,1,18.043,13.432" transform="translate(-101.698 -72.834)" fill="#ebebeb"/>
        <path id="Path_617" data-name="Path 617" d="M369.72,255.085a9.4,9.4,0,0,1-.692-1.834,16.878,16.878,0,0,0-2.519-4.566,16.318,16.318,0,0,0-2.5-2.56,15.977,15.977,0,0,0-3.479-2.151,15.615,15.615,0,0,0-4.329-1.246,15.49,15.49,0,0,0-2.382-.138,15.52,15.52,0,0,0-4.825.856,15.5,15.5,0,0,0-2.189.95,15.6,15.6,0,0,0-3.636,2.661,15.928,15.928,0,0,0-2.526,3.218,16.357,16.357,0,0,0-1.468,3.265,16.909,16.909,0,0,0-.792,5.153,9.309,9.309,0,0,1-.017,1.96,4.677,4.677,0,0,1-.457-1.934,14.732,14.732,0,0,1,.438-5.42,15.958,15.958,0,0,1,4.025-7.032,15.392,15.392,0,0,1,1.781-1.573,15.7,15.7,0,0,1,2.086-1.347,16.259,16.259,0,0,1,2.355-1.043,16.318,16.318,0,0,1,5.2-.924,16.219,16.219,0,0,1,2.569.169A16.226,16.226,0,0,1,361,242.957a15.954,15.954,0,0,1,6.2,5.216,14.745,14.745,0,0,1,2.279,4.938,4.676,4.676,0,0,1,.238,1.974" transform="translate(-101.574 -72.574)" fill="#e0e0e0"/>
        <path id="Path_618" data-name="Path 618" d="M361.116,269.324l.438,2.739-2.446.391-.427-2.665a11.737,11.737,0,0,1-6.4-.981l.866-3.2a10.007,10.007,0,0,0,5.023.976l-.655-4.084c-2.82-.225-6-.644-6.556-4.141-.415-2.592,1.111-5.119,4.9-6.177l-.435-2.715,2.446-.392.427,2.666a11.2,11.2,0,0,1,5.2.7l-.741,3.2a10.155,10.155,0,0,0-3.946-.673l.666,4.158c2.815.2,5.944.629,6.5,4.076.407,2.544-1.1,5.042-4.864,6.121m-4.176-10.417-.557-3.472c-1.249.5-1.648,1.292-1.52,2.1.137.856.945,1.2,2.076,1.373m5.15,5.221c-.138-.857-.92-1.207-2.032-1.406l.541,3.375c1.18-.464,1.616-1.186,1.491-1.969" transform="translate(-105.503 -74.89)" fill="#e0e0e0"/>
        <path id="Path_619" data-name="Path 619" d="M17.829,266.961a22.01,22.01,0,0,0-9.417-3.241,6.274,6.274,0,0,0-4.454.819.916.916,0,0,0-.459.813.988.988,0,0,0,.436.557,13.462,13.462,0,0,0,13.894,1.052" transform="translate(-1.05 -79.272)" fill="#e0e0e0"/>
        <path id="Path_620" data-name="Path 620" d="M19.346,261.657a45.881,45.881,0,0,1-6.082-5.351,15.38,15.38,0,0,1-3.813-7.053,2.842,2.842,0,0,1,.3-2.36c4.848,3.786,8.657,8.684,9.594,14.764" transform="translate(-2.807 -74.233)" fill="#e0e0e0"/>
        <path id="Path_621" data-name="Path 621" d="M23.79,262.066a22,22,0,0,1,.113-7.986,10.8,10.8,0,0,1,4.254-6.59c.838,1.958.478,4.214-.113,6.261a30.444,30.444,0,0,1-4.218,8.88" transform="translate(-7.06 -74.413)" fill="#e0e0e0"/>
        <path id="Path_622" data-name="Path 622" d="M25.615,280.511a13.91,13.91,0,0,0-7.552,3.823,14.282,14.282,0,0,0-4.32,7.416c2.829-.175,5.23-2.171,6.972-4.409s2.948-4.693,4.861-6.786" transform="translate(-4.132 -84.341)" fill="#e0e0e0"/>
        <path id="Path_623" data-name="Path 623" d="M31.637,274.883a18.627,18.627,0,0,1,2.15-17.619,22.427,22.427,0,0,1-2.15,17.619" transform="translate(-9.122 -77.352)" fill="#e0e0e0"/>
        <path id="Path_624" data-name="Path 624" d="M35.554,293.14a13.468,13.468,0,0,0-12.878,7.414c-.16.319-.3.724-.087,1.01a.96.96,0,0,0,.855.251c2.538-.164,4.787-1.692,6.644-3.43a63.611,63.611,0,0,1,5.524-5.252" transform="translate(-6.759 -88.131)" fill="#e0e0e0"/>
        <path id="Path_625" data-name="Path 625" d="M40.424,284.9a23.982,23.982,0,0,1-.239-13.4c.472-1.725,1.264-3.54,2.859-4.349a.561.561,0,0,1,.438-.077.576.576,0,0,1,.276.32,8.064,8.064,0,0,1,.674,3.844,24.082,24.082,0,0,1-.6,3.891c-.5,2.378-.769,4.934-2.074,6.986a14.265,14.265,0,0,0-.829,1.534c-.248.522-.249.7-.476,1.12" transform="translate(-11.83 -80.295)" fill="#e0e0e0"/>
        <path id="Path_626" data-name="Path 626" d="M64.459,289.764a17.275,17.275,0,0,1,3.027-14.2c.217-.283.506-.586.861-.553.543.05.685.775.66,1.32a25.667,25.667,0,0,1-4.548,13.437" transform="translate(-19.242 -82.686)" fill="#e0e0e0"/>
        <path id="Path_627" data-name="Path 627" d="M66.8,295.464a20.661,20.661,0,0,0,16.955-3.448,13.73,13.73,0,0,0-9.178-1.127,13.1,13.1,0,0,0-7.777,4.575" transform="translate(-20.085 -87.361)" fill="#e0e0e0"/>
        <path id="Path_628" data-name="Path 628" d="M68.608,289.29A19.594,19.594,0,0,1,84,280.392a9.479,9.479,0,0,1-5.032,5.565,27.951,27.951,0,0,1-7.387,2.16c-.983.191-2.331.4-2.968,1.173" transform="translate(-20.628 -84.306)" fill="#e0e0e0"/>
        <path id="Path_629" data-name="Path 629" d="M64.16,263.765a44.725,44.725,0,0,0,1.968-9.012,15,15,0,0,0-1.8-8.914,19.624,19.624,0,0,0-.262,18.235" transform="translate(-18.626 -73.917)" fill="#e0e0e0"/>
        <path id="Path_630" data-name="Path 630" d="M79.445,259.028c3.482-6.328,10.586-11.383,17.774-12.092-2.773,6.9-10.335,12.24-17.774,12.092" transform="translate(-23.887 -74.246)" fill="#e0e0e0"/>
        <path id="Path_631" data-name="Path 631" d="M76.313,265.554c5.193.791,9.617,4.108,14.47,6.118a6.489,6.489,0,0,0,3.271.627,2.561,2.561,0,0,0,1.6-4.53,7,7,0,0,0-2.376-1.441,26.408,26.408,0,0,0-16.522-.921" transform="translate(-22.945 -79.532)" fill="#e0e0e0"/>
        <path id="Path_632" data-name="Path 632" d="M72.016,271.1a6.131,6.131,0,0,1,2.508,1.738A27.068,27.068,0,0,0,85.5,278.475c.419.1.969.145,1.177-.234.181-.331-.048-.731-.284-1.026a15.1,15.1,0,0,0-6.625-4.5c-2.532-.943-4.726-2.08-7.749-1.836" transform="translate(-21.653 -81.436)" fill="#e0e0e0"/>
        <path id="Path_633" data-name="Path 633" d="M67.167,239.512a20.764,20.764,0,0,0,15.921,5.416,1.091,1.091,0,0,0,.725-.259c.4-.436-.08-1.109-.547-1.473a18.341,18.341,0,0,0-16.1-3.684" transform="translate(-20.195 -71.845)" fill="#e0e0e0"/>
        <path id="Path_634" data-name="Path 634" d="M72.916,235.79a22.19,22.19,0,0,1,19.867-3.278,15.775,15.775,0,0,1-9.467,4.156,29.961,29.961,0,0,1-10.4-.878" transform="translate(-21.924 -69.595)" fill="#e0e0e0"/>
        <path id="Path_635" data-name="Path 635" d="M69.477,217.154c-.459-4.672-.162-8.36-.486-13.054-.026-.375-.106-.827-.457-.962-.489-.188-.9.413-1.056.911a14.963,14.963,0,0,0,1.992,13" transform="translate(-20.083 -61.067)" fill="#e0e0e0"/>
        <path id="Path_636" data-name="Path 636" d="M70.15,217.618a27.459,27.459,0,0,0,7.739-7.522c1.529-2.092,2.818-4.6,2.47-7.164a7.4,7.4,0,0,0-5.582,2.772,15.569,15.569,0,0,0-2.846,5.725c-.62,2.056-1.053,4.168-1.78,6.188" transform="translate(-21.092 -61.016)" fill="#e0e0e0"/>
        <path id="Path_637" data-name="Path 637" d="M80.98,215.881a62.4,62.4,0,0,0,19.046-11.231c-2.275-.916-4.879-.368-7.154.55A22.555,22.555,0,0,0,80.881,215.83" transform="translate(-24.319 -61.391)" fill="#e0e0e0"/>
        <path id="Path_638" data-name="Path 638" d="M73.207,225.219a38.709,38.709,0,0,0,10.576.052,44.9,44.9,0,0,0,9.872-3.28,1.166,1.166,0,0,0,.671-.509.773.773,0,0,0-.241-.845,2.039,2.039,0,0,0-.842-.4,18.287,18.287,0,0,0-10.67.639,49.51,49.51,0,0,0-9.368,4.339" transform="translate(-22.011 -66.06)" fill="#e0e0e0"/>
        <path id="Path_639" data-name="Path 639" d="M43.743,233.324a18.707,18.707,0,0,1-.171-15.482c1.459,2.222,1.636,5.053,1.37,7.7s-1.072,5.367-1.124,8.026" transform="translate(-12.622 -65.499)" fill="#e0e0e0"/>
        <path id="Path_640" data-name="Path 640" d="M23.9,233.068A21.594,21.594,0,0,0,7.852,239.9a15,15,0,0,0,8.787-1.629,44.678,44.678,0,0,0,7.53-5.039" transform="translate(-2.361 -70.076)" fill="#e0e0e0"/>
        <path id="Path_641" data-name="Path 641" d="M15.1,229.868c-2.929-.238-5.749-.6-8.566.263A10.274,10.274,0,0,0,0,235.666a15.482,15.482,0,0,0,8.031-1.516,46.235,46.235,0,0,0,7.064-4.283" transform="translate(0 -69.03)" fill="#e0e0e0"/>
        <path id="Path_642" data-name="Path 642" d="M27.84,228.2c-2.636-1.727-5.342-3.485-8.411-4.2s-6.625-.187-8.765,2.126c2.484,1.458,5.5,1.63,8.379,1.628s6.411-.035,9.127.926" transform="translate(-3.206 -67.26)" fill="#e0e0e0"/>
        <path id="Path_643" data-name="Path 643" d="M33.049,222.408c-4.506-4.425-6.214-12.373-4.4-18.422a28.07,28.07,0,0,1,4.4,18.422" transform="translate(-8.399 -61.333)" fill="#e0e0e0"/>
        <path id="Path_644" data-name="Path 644" d="M52.965,206.151c.85-1.976,1.448-4.049,2.21-6.06a17.411,17.411,0,0,1,3.15-5.586,8.3,8.3,0,0,1,5.581-2.892,22.474,22.474,0,0,1-10.831,14.571" transform="translate(-15.925 -57.612)" fill="#e0e0e0"/>
        <path id="Path_645" data-name="Path 645" d="M44.748,212.724c-1.406-1.936-3.031-4.563-4.938-6.008a8.262,8.262,0,0,0-6.718-1.764,15.644,15.644,0,0,0,11.656,7.772" transform="translate(-9.95 -61.572)" fill="#e0e0e0"/>
        <path id="Path_646" data-name="Path 646" d="M49.374,206.391a33.416,33.416,0,0,1-2.223-7.2,11.231,11.231,0,0,1,1.127-7.32c2.474,4.676,3.27,9.695,1.222,14.572" transform="translate(-14.128 -57.69)" fill="#e0e0e0"/>
        <path id="Path_647" data-name="Path 647" d="M53,187.611c1.4-4.635,5.645-8.048,10.227-9.614a3.814,3.814,0,0,1,1.793-.269,1.557,1.557,0,0,1,1.322,1.1c.167.788-.484,1.5-1.1,2.018A34.818,34.818,0,0,1,53,187.611" transform="translate(-15.935 -53.43)" fill="#e0e0e0"/>
        <path id="Path_648" data-name="Path 648" d="M53.038,179.754a33.205,33.205,0,0,1,1.336-8.852,11.19,11.19,0,0,1,5.571-6.727c.464,3.018-.868,6.021-2.474,8.619s-3.541,5.049-4.506,7.946" transform="translate(-15.925 -49.363)" fill="#e0e0e0"/>
        <path id="Path_649" data-name="Path 649" d="M49.228,182.407c-1.158-3.378-1.278-7.668-3.3-10.612-1.414-2.057-3.678-3.458-4.9-5.637a8.576,8.576,0,0,0,.285,6.4,18.523,18.523,0,0,0,3.742,5.357c1.5,1.6,2.778,2.8,4.17,4.492" transform="translate(-12.188 -49.959)" fill="#e0e0e0"/>
        <path id="Path_650" data-name="Path 650" d="M52.923,288.365c-.09,0-.168-22.534-.174-50.325s.062-50.33.152-50.33.168,22.53.174,50.33-.062,50.325-.152,50.325" transform="translate(-15.86 -56.439)" fill="#e0e0e0"/>
        <path id="Path_651" data-name="Path 651" d="M72.677,235.117a4.835,4.835,0,0,1-.848.318l-2.332.787c-1.966.669-4.667,1.639-7.6,2.841-2.9,1.245-5.64,2.256-7.2,3.606a5.294,5.294,0,0,0-1.446,1.913c-.223.529-.264.853-.293.848a.649.649,0,0,1,.01-.237,3.641,3.641,0,0,1,.165-.657,5.091,5.091,0,0,1,1.412-2.039,12.626,12.626,0,0,1,3.123-1.941c1.249-.583,2.634-1.191,4.1-1.8,2.94-1.2,5.662-2.143,7.65-2.758.994-.311,1.8-.538,2.367-.69a4.839,4.839,0,0,1,.884-.2" transform="translate(-15.922 -70.692)" fill="#e0e0e0"/>
        <path id="Path_652" data-name="Path 652" d="M79.8,212.447a1.357,1.357,0,0,1-.237.255l-.723.679c-.672.61-1.586,1.439-2.7,2.452l-8.984,8c-3.507,3.121-6.538,6.1-8.639,8.351-1.052,1.122-1.88,2.051-2.445,2.7l-.653.745a1.438,1.438,0,0,1-.243.248,1.337,1.337,0,0,1,.192-.289c.136-.181.335-.451.607-.785.536-.676,1.34-1.629,2.373-2.775a113.973,113.973,0,0,1,8.591-8.437c3.519-3.115,6.722-5.912,9.049-7.929,1.142-.981,2.079-1.784,2.768-2.375l.763-.634a1.419,1.419,0,0,1,.281-.2" transform="translate(-16.589 -63.876)" fill="#e0e0e0"/>
        <path id="Path_653" data-name="Path 653" d="M66.888,229.912c-.092-.041.641-1.733,1.371-3.872s1.084-3.944,1.177-3.93a13.188,13.188,0,0,1-.869,4.034,26.213,26.213,0,0,1-1.091,2.708,4.192,4.192,0,0,1-.588,1.059" transform="translate(-20.109 -66.782)" fill="#e0e0e0"/>
        <path id="Path_654" data-name="Path 654" d="M47.411,245.7a4.017,4.017,0,0,1-.541-.627l-1.385-1.776c-1.163-1.5-2.771-3.578-4.572-5.849s-3.46-4.308-4.66-5.782L34.84,229.91a3.991,3.991,0,0,1-.488-.669,4.043,4.043,0,0,1,.584.586c.361.392.872.967,1.5,1.685,1.246,1.437,2.932,3.454,4.738,5.728s3.385,4.374,4.5,5.914c.558.769,1,1.4,1.3,1.838a4.053,4.053,0,0,1,.438.7" transform="translate(-10.328 -68.926)" fill="#e0e0e0"/>
        <path id="Path_655" data-name="Path 655" d="M45.89,241.914a7.947,7.947,0,0,1-1.809-3.386,9.671,9.671,0,0,1-.41-3.414l.144.011c-.064.262-.112.4-.138.394s-.027-.149-.006-.418l.144.012a15.551,15.551,0,0,0,.578,3.321,25.3,25.3,0,0,0,1.5,3.479" transform="translate(-13.124 -70.688)" fill="#e0e0e0"/>
        <path id="Path_656" data-name="Path 656" d="M34.688,234.222a5.831,5.831,0,0,0-1.263-.734,8.45,8.45,0,0,0-3.506-.279,21.7,21.7,0,0,0-3.531.57,10.722,10.722,0,0,1-1.453.349,5.072,5.072,0,0,1,1.392-.571,16.109,16.109,0,0,1,3.568-.673,7.649,7.649,0,0,1,3.618.39,2.24,2.24,0,0,1,1.176.947" transform="translate(-7.497 -70.007)" fill="#e0e0e0"/>
        <path id="Path_657" data-name="Path 657" d="M31.1,231.5c-.024.05-.736-.3-1.935-.7a19.482,19.482,0,0,0-9.751-.743c-1.247.223-2,.457-2.019.4a1.836,1.836,0,0,1,.513-.219,11.972,11.972,0,0,1,1.461-.41,17.2,17.2,0,0,1,9.875.752,12.037,12.037,0,0,1,1.382.627,1.854,1.854,0,0,1,.474.294" transform="translate(-5.23 -68.982)" fill="#e0e0e0"/>
        <path id="Path_658" data-name="Path 658" d="M51.883,217.862a40.021,40.021,0,0,1-1.411-4.9,39.956,39.956,0,0,1-1.1-4.981,39.929,39.929,0,0,1,1.411,4.9,40.048,40.048,0,0,1,1.1,4.981" transform="translate(-14.843 -62.533)" fill="#e0e0e0"/>
        <path id="Path_659" data-name="Path 659" d="M51.43,219.826a23.707,23.707,0,0,0-1.564-2.934,12.9,12.9,0,0,0-2.3-2.376,2.132,2.132,0,0,1,.888.458,7.167,7.167,0,0,1,1.68,1.73,6.506,6.506,0,0,1,1.3,3.122" transform="translate(-14.301 -64.497)" fill="#e0e0e0"/>
        <path id="Path_660" data-name="Path 660" d="M44.122,300.323c-.035,0-.1-.542-.355-1.5a21.372,21.372,0,0,0-1.506-3.9,54.043,54.043,0,0,0-7.99-11.256c-1.784-2.038-3.514-3.96-4.983-5.8a40.831,40.831,0,0,1-3.563-5.139,24.688,24.688,0,0,1-1.8-3.814c-.166-.47-.287-.836-.353-1.091a1.866,1.866,0,0,1-.093-.389c.029-.009.193.515.564,1.434a27.906,27.906,0,0,0,1.879,3.743,43.142,43.142,0,0,0,3.6,5.067c1.474,1.822,3.208,3.734,4.995,5.775a51.181,51.181,0,0,1,7.951,11.37,19.506,19.506,0,0,1,1.422,3.971,11.117,11.117,0,0,1,.2,1.131,1.853,1.853,0,0,1,.033.4" transform="translate(-7.059 -80.409)" fill="#e0e0e0"/>
        <path id="Path_661" data-name="Path 661" d="M70.792,285.722a8.271,8.271,0,0,1-.932.524,20.383,20.383,0,0,0-2.42,1.6,27.841,27.841,0,0,0-3.176,2.9c-1.115,1.178-2.264,2.546-3.436,4.011-2.344,2.941-4.536,5.543-5.848,7.62-.666,1.03-1.151,1.9-1.469,2.508a8.11,8.11,0,0,1-.513.939.889.889,0,0,1,.086-.265c.07-.168.164-.42.314-.73a23.655,23.655,0,0,1,1.387-2.576,83.972,83.972,0,0,1,5.79-7.7c1.174-1.469,2.337-2.839,3.473-4.015a25.769,25.769,0,0,1,3.255-2.874,17.057,17.057,0,0,1,2.5-1.527c.309-.155.562-.25.728-.322a.88.88,0,0,1,.264-.089" transform="translate(-15.934 -85.908)" fill="#e0e0e0"/>
        <path id="Path_662" data-name="Path 662" d="M73.654,295.037a13.515,13.515,0,0,1-1.971.286,26.054,26.054,0,0,0-4.675.921,14.062,14.062,0,0,0-4.185,2.2c-.965.745-1.42,1.362-1.464,1.327a1.483,1.483,0,0,1,.292-.454,7.4,7.4,0,0,1,1.027-1.051,12.685,12.685,0,0,1,4.231-2.328,21.114,21.114,0,0,1,4.752-.84,10.8,10.8,0,0,1,1.994-.057" transform="translate(-18.448 -88.702)" fill="#e0e0e0"/>
        <path id="Path_663" data-name="Path 663" d="M62.176,297.916c-.1-.058.785-1.415,1.475-3.24.646-1.842.8-3.457.913-3.438a3.1,3.1,0,0,1-.032,1.057,11.352,11.352,0,0,1-.576,2.492,12.061,12.061,0,0,1-1.143,2.285,3.189,3.189,0,0,1-.638.844" transform="translate(-18.692 -87.567)" fill="#e0e0e0"/>
        <path id="Path_664" data-name="Path 664" d="M76.558,260.691a1.513,1.513,0,0,1-.316.168l-.926.421c-.406.174-.9.394-1.454.687s-1.206.583-1.883.99l-1.076.611c-.373.215-.741.469-1.133.715-.794.481-1.588,1.073-2.436,1.678a41.784,41.784,0,0,0-9.376,9.7c-.575.868-1.14,1.682-1.593,2.491-.232.4-.474.778-.676,1.158s-.39.746-.575,1.1c-.382.69-.656,1.349-.924,1.916s-.477,1.064-.637,1.476l-.389.94a1.536,1.536,0,0,1-.157.321,1.4,1.4,0,0,1,.094-.343l.333-.964c.143-.42.329-.929.588-1.5s.513-1.246.886-1.946l.559-1.113c.2-.385.434-.769.663-1.175.447-.82,1.007-1.645,1.58-2.524a40.231,40.231,0,0,1,9.445-9.774c.858-.6,1.664-1.19,2.469-1.664.4-.243.772-.494,1.15-.7l1.093-.6c.688-.4,1.348-.679,1.915-.952s1.067-.483,1.483-.639l.952-.366a1.451,1.451,0,0,1,.34-.106" transform="translate(-15.937 -78.382)" fill="#e0e0e0"/>
        <path id="Path_665" data-name="Path 665" d="M66.544,273.173a2.264,2.264,0,0,1,.774-1.153,4.891,4.891,0,0,1,3.12-1.2,8.548,8.548,0,0,1,3.283.641,4.676,4.676,0,0,1,1.241.6,7.576,7.576,0,0,1-1.317-.386,9.918,9.918,0,0,0-3.2-.533,5.08,5.08,0,0,0-2.981,1.045,9.217,9.217,0,0,0-.925.979" transform="translate(-20.007 -81.428)" fill="#e0e0e0"/>
        <path id="Path_666" data-name="Path 666" d="M63.532,274.757a8.327,8.327,0,0,0,.687-5.891,1.91,1.91,0,0,1,.366.839,5.959,5.959,0,0,1-.5,4.319c-.275.5-.518.755-.549.733" transform="translate(-19.1 -80.84)" fill="#e0e0e0"/>
        <path id="Path_667" data-name="Path 667" d="M30.743,319.081c.485,8.612,3.081,17.37,7.072,26.225H55.173c3.806-8.767,6.223-17.512,6.652-26.225Z" transform="translate(-9.244 -95.938)" fill="#e0e0e0"/>
        <path id="Path_668" data-name="Path 668" d="M60.19,338.937c0,.09-5.715.163-12.763.163s-12.764-.073-12.764-.163,5.714-.163,12.764-.163,12.763.073,12.763.163" transform="translate(-10.422 -101.859)" fill="#fafafa"/>
        <path id="Path_669" data-name="Path 669" d="M60.321,343.4c0,.09-5.358.163-11.965.163s-11.966-.073-11.966-.163,5.356-.163,11.966-.163,11.965.073,11.965.163" transform="translate(-10.941 -103.201)" fill="#fafafa"/>
        <path id="Path_670" data-name="Path 670" d="M41.186,327.166a49.133,49.133,0,0,1,0,8,49.131,49.131,0,0,1,0-8" transform="translate(-12.334 -98.369)" fill="#fafafa"/>
        <path id="Path_671" data-name="Path 671" d="M54.484,327.166a52.686,52.686,0,0,1,0,8.281,52.684,52.684,0,0,1,0-8.281" transform="translate(-16.333 -98.369)" fill="#fafafa"/>
        <path id="Path_672" data-name="Path 672" d="M66.969,327.065a54.8,54.8,0,0,1,0,8.446,54.8,54.8,0,0,1,0-8.446" transform="translate(-20.087 -98.339)" fill="#fafafa"/>
        <path id="Path_673" data-name="Path 673" d="M61.526,327.1c0,.09-6.7.163-14.97.163s-14.971-.073-14.971-.163,6.7-.163,14.971-.163,14.97.073,14.97.163" transform="translate(-9.497 -98.299)" fill="#fafafa"/>
      </g>
    </g>
    <g id="Group_38" data-name="Group 38">
      <g id="Group_37" data-name="Group 37" clip-path="url(#clip-path)">
        <path id="Path_674" data-name="Path 674" d="M203.452,357.276c-101.294,0-183.381-.044-183.381-.1s82.087-.1,183.381-.1q151.888,0,0,.2" transform="translate(-6.035 -107.363)" fill="#263238"/>
      </g>
    </g>
    <g id="Group_52" data-name="Group 52">
      <g id="Group_51" data-name="Group 51" clip-path="url(#clip-path)">
        <path id="Path_675" data-name="Path 675" d="M329.573,157.316a19.45,19.45,0,1,1-9.141-25.944,19.451,19.451,0,0,1,9.141,25.944" transform="translate(-87.969 -38.925)" fill="#f5579c"/>
        <g id="Group_41" data-name="Group 41" transform="translate(206.519 90.535)" opacity="0.1">
          <g id="Group_40" data-name="Group 40">
            <g id="Group_39" data-name="Group 39" clip-path="url(#clip-path-5)">
              <path id="Path_676" data-name="Path 676" d="M321.254,131.373a19.45,19.45,0,0,0-25.944,9.142s12.063,6.455,17.406,2.911,8.538-12.052,8.538-12.052" transform="translate(-295.31 -129.46)" fill="#fff"/>
            </g>
          </g>
        </g>
        <path id="Path_677" data-name="Path 677" d="M327.165,156.719A14.786,14.786,0,1,1,320.215,137a14.786,14.786,0,0,1,6.949,19.722" transform="translate(-89.912 -40.754)" fill="#c7447d"/>
        <path id="Path_679" data-name="Path 679" d="M327.485,157.895a14.588,14.588,0,1,1-6.856-19.457,14.587,14.587,0,0,1,6.856,19.457" transform="translate(-90.122 -41.193)" fill="#ff72b0"/>
        <path id="Path_681" data-name="Path 681" d="M318.672,153.258l1.612-3.366.017.008a7.641,7.641,0,0,1,1.566,1.323,6.213,6.213,0,0,1,.585.93l.094-.083,1.1-.963.252-.222-.3-.918-.351-.008a6.983,6.983,0,0,0-2.1-1.871l.886-1.851-.354-.741-.222.464-.791-.379-.9,1.885c-2.721-1-4.666-.1-5.481,1.6-1.111,2.318.587,3.869,2.222,5.206l-1.6,3.335a7.1,7.1,0,0,1-2.729-2.864l-1.557,1.325a8.1,8.1,0,0,0,3.423,3.341l-.669,1.4-.657-.3.44.754,1.367.655.895-1.868c2.746.987,4.7.119,5.514-1.583,1.111-2.318-.628-3.868-2.264-5.205m-1.2-1c-.831-.747-1.373-1.457-.99-2.257.351-.734,1.139-1.094,2.411-.711Zm2.813-2.364h0m-3.993,8.339,1.413-2.952c.865.763,1.415,1.5,1.024,2.315-.343.717-1.132,1.036-2.437.637" transform="translate(-93.395 -43.747)" fill="#c7447d"/>
        <path id="Path_683" data-name="Path 683" d="M314.925,159.04l-.894,1.869-1.368-.655.887-1.852a8.1,8.1,0,0,1-3.423-3.341l1.557-1.325a7.1,7.1,0,0,0,2.729,2.865l1.6-3.337c-1.636-1.336-3.333-2.888-2.223-5.206.815-1.7,2.76-2.6,5.482-1.6l.9-1.885,1.368.655-.887,1.851a7.93,7.93,0,0,1,2.9,2.639l-1.491,1.357a7.667,7.667,0,0,0-2.271-2.194l-1.614,3.369c1.636,1.337,3.375,2.888,2.264,5.206-.815,1.7-2.769,2.57-5.516,1.583m2.051-7.793,1.422-2.969c-1.271-.383-2.06-.022-2.411.711-.383.8.158,1.511.99,2.258m1.257,5.339c.392-.818-.159-1.553-1.024-2.315l-1.414,2.953c1.306.4,2.094.08,2.438-.637" transform="translate(-93.246 -43.469)" fill="#f5579c"/>
        <path id="Path_684" data-name="Path 684" d="M311.158,165.232a.818.818,0,0,1,.113.04l.328.129.531.215a5.44,5.44,0,0,0,.734.266l.937.279a4.023,4.023,0,0,0,.544.126l.593.115c.206.034.415.094.637.109l.686.064c.236.017.477.056.727.057l.768,0a15.53,15.53,0,0,0,3.4-.429l.9-.269c.152-.048.308-.089.46-.141l.453-.184c.3-.128.618-.24.922-.385l.909-.476.232-.12c.076-.044.147-.094.221-.141l.443-.289.448-.292a5.33,5.33,0,0,0,.429-.329c.28-.229.576-.448.853-.693l.8-.782a14.573,14.573,0,0,0,3.965-8.278q.053-.562.106-1.115c.017-.369,0-.736.006-1.1-.007-.182.01-.363-.014-.541s-.036-.356-.054-.532-.035-.352-.052-.527c-.01-.087-.015-.175-.029-.261l-.051-.256q-.1-.51-.2-1.006c-.078-.329-.187-.644-.278-.959q-.07-.236-.141-.469c-.055-.152-.12-.3-.178-.447q-.18-.443-.355-.871a15.51,15.51,0,0,0-1.8-2.915l-.479-.6c-.158-.194-.339-.357-.5-.53l-.48-.494c-.151-.164-.329-.288-.485-.427l-.461-.39a3.977,3.977,0,0,0-.439-.345l-.8-.555a5.482,5.482,0,0,0-.667-.4l-.5-.279-.306-.175a.729.729,0,0,1-.1-.064.783.783,0,0,1,.109.05l.313.162.508.267a5.5,5.5,0,0,1,.677.394l.815.548a3.96,3.96,0,0,1,.445.342l.467.387c.157.138.338.262.492.426l.486.493c.163.173.347.336.507.53l.486.6a15.469,15.469,0,0,1,1.824,2.927l.362.876c.059.149.126.3.182.45s.1.313.143.472c.092.318.2.636.283.967s.136.672.2,1.015l.052.258c.013.087.019.175.029.263q.027.264.055.531c.018.178.038.357.055.537s.008.363.015.546c0,.366.013.736,0,1.109q-.052.558-.106,1.127a14.659,14.659,0,0,1-4,8.358l-.811.788c-.28.247-.578.467-.862.7a5.439,5.439,0,0,1-.434.331l-.454.294-.448.29c-.075.048-.148.1-.224.142l-.232.121-.92.477c-.307.146-.625.258-.931.385l-.457.184c-.155.053-.311.094-.465.141l-.909.268a15.5,15.5,0,0,1-3.424.415l-.773,0c-.251,0-.494-.043-.731-.063l-.689-.07c-.224-.017-.433-.08-.64-.115l-.594-.121a4.016,4.016,0,0,1-.546-.132l-.938-.292a5.54,5.54,0,0,1-.731-.28l-.527-.229-.322-.143a.66.66,0,0,1-.107-.053" transform="translate(-93.556 -41.661)" fill="#263238"/>
        <path id="Path_685" data-name="Path 685" d="M293.377,152.229a.822.822,0,0,1-.017-.175c0-.129-.012-.3-.02-.5a7.9,7.9,0,0,1,0-.8c.013-.311.013-.665.059-1.054q.028-.293.059-.611c.022-.211.064-.43.1-.657.059-.458.172-.936.28-1.443a19.287,19.287,0,0,1,2.654-6.155c.293-.427.564-.837.856-1.194.143-.18.273-.361.413-.522s.275-.315.4-.463c.25-.3.509-.544.725-.766s.413-.4.578-.548l.379-.33a.657.657,0,0,1,.138-.107.86.86,0,0,1-.12.129l-.359.35c-.159.149-.351.334-.559.563s-.462.475-.706.778l-.4.466c-.136.163-.263.343-.4.524-.285.357-.55.768-.839,1.194a19.887,19.887,0,0,0-2.636,6.113c-.111.5-.227.977-.292,1.429-.036.226-.08.443-.1.654s-.046.413-.068.606c-.053.387-.059.738-.08,1.047s-.027.575-.026.793,0,.372-.007.5a.823.823,0,0,1-.013.176" transform="translate(-88.196 -41.163)" fill="#fff"/>
        <path id="Path_686" data-name="Path 686" d="M315.935,150.962a1.224,1.224,0,0,1-.2-.569,2.287,2.287,0,0,1,1.283-2.453,1.232,1.232,0,0,1,.584-.157c.006.024-.22.073-.537.249a2.371,2.371,0,0,0-1.229,2.347c.036.362.125.576.1.583" transform="translate(-94.922 -44.433)" fill="#fff"/>
        <path id="Path_687" data-name="Path 687" d="M323.789,146.6a1.337,1.337,0,0,1,.2-.58c.145-.3.292-.534.328-.517a1.331,1.331,0,0,1-.2.58c-.145.3-.292.534-.328.517" transform="translate(-97.351 -43.747)" fill="#fff"/>
        <path id="Path_688" data-name="Path 688" d="M326.289,136.934a2.972,2.972,0,0,1-.42-.222c-.132-.077-.294-.169-.489-.264s-.409-.218-.659-.326-.518-.238-.819-.352-.62-.23-.961-.347a15.2,15.2,0,0,0-4.606-.736c-.36.006-.7,0-1.022.031s-.617.047-.887.079-.513.072-.728.1-.4.067-.547.1a2.972,2.972,0,0,1-.469.08,2.978,2.978,0,0,1,.457-.136c.148-.041.329-.086.544-.124s.457-.1.729-.126.57-.078.892-.1.667-.035,1.03-.044a14.442,14.442,0,0,1,4.648.742c.342.122.669.231.964.363s.571.249.818.371.463.242.654.347.351.2.479.287a2.981,2.981,0,0,1,.392.271" transform="translate(-94.616 -40.456)" fill="#fff"/>
        <path id="Path_689" data-name="Path 689" d="M308.769,180.516a1.7,1.7,0,0,1-.353-.065c-.226-.049-.549-.138-.942-.266A14.055,14.055,0,0,1,302,176.836c-.292-.292-.52-.538-.666-.718a1.691,1.691,0,0,1-.218-.285,1.752,1.752,0,0,1,.26.248c.159.166.4.4.7.682a15.722,15.722,0,0,0,5.433,3.325c.386.14.7.244.923.309a1.718,1.718,0,0,1,.338.12" transform="translate(-90.537 -52.868)" fill="#fff"/>
      </g>
    </g>
    <g id="Group_60" data-name="Group 60">
      <g id="Group_59" data-name="Group 59" clip-path="url(#clip-path)">
        <path id="Path_690" data-name="Path 690" d="M241.247,249.978l-84.932-.05a18.5,18.5,0,0,1-18.49-18.5L137.866,18.5A18.5,18.5,0,0,1,156.378,0L241.31.05a18.5,18.5,0,0,1,18.49,18.5l-.042,212.926a18.5,18.5,0,0,1-18.511,18.5" transform="translate(-41.44 0)" fill="#1c3a3e"/>
        <path id="Path_691" data-name="Path 691" d="M243.64,10.82l-16.467-.01a4.091,4.091,0,0,0-4,4.178v2.987a4.09,4.09,0,0,1-4,4.178l-32.1-.019a4.093,4.093,0,0,1-4-4.182V14.964a4.1,4.1,0,0,0-4-4.182l-5.792,0-14.412-.008a12.957,12.957,0,0,0-12.965,12.954l-.041,207.832a12.957,12.957,0,0,0,12.949,12.96l84.762.05a12.957,12.957,0,0,0,12.964-12.954l.041-207.832A12.958,12.958,0,0,0,243.64,10.82" transform="translate(-43.859 -3.238)" fill="#fafafa"/>
        <path id="Path_692" data-name="Path 692" d="M158.571,48.295a1,1,0,0,1,.162-.013l.445-.018,1.639-.045-.057.058c-.007-.366-.014-.764-.022-1.19,0-.223-.02-.427,0-.689a.647.647,0,0,1,.564-.519c.269-.006.5-.018.788,0a.654.654,0,0,1,.554.65q.01.834.021,1.736l-.1-.094,2.071-.022-.1.1c-.008-.834-.015-1.7-.023-2.581q0-.33-.006-.657a.65.65,0,0,0-.285-.476l-.9-.892-.873-.862-.423-.419c-.147-.142-.257-.282-.42-.315a.535.535,0,0,0-.459.087c-.122.1-.259.255-.384.376l-.744.749c-.467.484-.957.932-1.308,1.344a1.446,1.446,0,0,0-.1.764q0,.383,0,.728-.007.663-.012,1.174c0,.292-.008.541-.012.753a2.207,2.207,0,0,1-.013.274,1.479,1.479,0,0,1-.017-.246c-.007-.209-.015-.452-.024-.738-.009-.345-.019-.74-.031-1.186,0-.236-.01-.485-.015-.746a1.574,1.574,0,0,1,.108-.85c.387-.476.84-.887,1.311-1.389l.737-.757c.134-.131.239-.258.4-.4a.72.72,0,0,1,.616-.122,1.128,1.128,0,0,1,.506.36l.425.416.876.859.908.89a.849.849,0,0,1,.346.613c0,.22,0,.44.006.662.007.883.013,1.746.02,2.581v.1h-.1l-2.071.013h-.1v-.094c0-.6,0-1.181-.008-1.736a.481.481,0,0,0-.4-.486c-.231-.013-.519-.006-.746,0a.492.492,0,0,0-.434.39c-.02.2-.006.45-.01.659q0,.641,0,1.191v.059h-.057l-1.672-.018-.434-.01a.645.645,0,0,1-.141-.01" transform="translate(-47.649 -12.58)" fill="#263238"/>
        <path id="Path_693" data-name="Path 693" d="M216.538,47.919c0,.512-.406.808-1.185.808h-1.532V45.764h1.447c.741,0,1.122.309,1.122.771a.713.713,0,0,1-.394.652.731.731,0,0,1,.541.732M214.5,46.281v.7h.682c.334,0,.516-.118.516-.351s-.182-.347-.516-.347Zm1.346,1.566c0-.25-.19-.369-.546-.369h-.8v.732h.8c.356,0,.546-.11.546-.364" transform="translate(-64.29 -13.76)" fill="#263238"/>
        <path id="Path_694" data-name="Path 694" d="M220.23,48.092h-1.376l-.262.635h-.7l1.32-2.962h.678l1.325,2.962h-.72Zm-.216-.52-.469-1.134-.47,1.134Z" transform="translate(-65.513 -13.76)" fill="#263238"/>
        <path id="Path_695" data-name="Path 695" d="M225.794,45.765v2.962h-.562l-1.477-1.8v1.8h-.677V45.765h.566l1.473,1.8v-1.8Z" transform="translate(-67.073 -13.76)" fill="#263238"/>
        <path id="Path_696" data-name="Path 696" d="M229.04,47.563l-.4.415v.749h-.682V45.764h.682v1.384l1.312-1.384h.762l-1.227,1.32,1.3,1.642h-.8Z" transform="translate(-68.541 -13.76)" fill="#263238"/>
        <path id="Path_697" data-name="Path 697" d="M286.519,43.24a.619.619,0,1,1-.616-.621.618.618,0,0,1,.616.621" transform="translate(-85.776 -12.814)" fill="#263238"/>
        <path id="Path_698" data-name="Path 698" d="M286.507,46.421a.619.619,0,1,1-.616-.621.619.619,0,0,1,.616.621" transform="translate(-85.772 -13.771)" fill="#263238"/>
        <path id="Path_699" data-name="Path 699" d="M286.5,49.6a.619.619,0,1,1-.616-.621.618.618,0,0,1,.616.621" transform="translate(-85.769 -14.727)" fill="#263238"/>
        <path id="Path_700" data-name="Path 700" d="M254.317,150.007h-80.9A3.007,3.007,0,0,1,170.411,147V97.876a3.007,3.007,0,0,1,3.007-3.007h80.9a3.007,3.007,0,0,1,3.007,3.007V147a3.007,3.007,0,0,1-3.007,3.007" transform="translate(-51.238 -28.524)" fill="#f5f5f5"/>
        <path id="Path_701" data-name="Path 701" d="M250.9,144.889H170a3.007,3.007,0,0,1-3.007-3.007V92.758A3.007,3.007,0,0,1,170,89.751h80.9a3.007,3.007,0,0,1,3.007,3.007v49.124a3.007,3.007,0,0,1-3.007,3.007" transform="translate(-50.21 -26.986)" fill="#e0e0e0"/>
        <path id="Path_702" data-name="Path 702" d="M246.958,140.634h-80.9a3.007,3.007,0,0,1-3.007-3.007V88.5a3.007,3.007,0,0,1,3.007-3.006h80.9a3.006,3.006,0,0,1,3.006,3.007v49.124a3.006,3.006,0,0,1-3.006,3.007" transform="translate(-49.025 -25.706)" fill="#a447dd"/>
        <path id="Path_703" data-name="Path 703" d="M181.91,102.231c0,.706-.56,1.113-1.632,1.113h-2.11v-4.08h1.993c1.02,0,1.545.425,1.545,1.061a.981.981,0,0,1-.542.9,1.008,1.008,0,0,1,.746,1.008m-2.8-2.256v.962h.939c.46,0,.711-.164.711-.484s-.251-.478-.711-.478Zm1.853,2.157c0-.343-.262-.507-.752-.507h-1.1v1.008h1.1c.49,0,.752-.152.752-.5" transform="translate(-53.57 -29.846)" fill="#fff"/>
        <path id="Path_704" data-name="Path 704" d="M187,102.47H185.1l-.362.874h-.967l1.818-4.08h.933l1.825,4.08h-.992Zm-.3-.717-.647-1.562-.647,1.562Z" transform="translate(-55.255 -29.846)" fill="#fff"/>
        <path id="Path_705" data-name="Path 705" d="M194.66,99.264v4.08h-.776l-2.034-2.477v2.477h-.933v-4.08h.781l2.028,2.477V99.264Z" transform="translate(-57.403 -29.846)" fill="#fff"/>
        <path id="Path_706" data-name="Path 706" d="M199.134,101.741l-.548.571v1.032h-.939v-4.08h.939v1.906l1.806-1.906h1.049l-1.69,1.818,1.789,2.262h-1.1Z" transform="translate(-59.427 -29.846)" fill="#fff"/>
        <path id="Path_707" data-name="Path 707" d="M181.03,126.578h-.749v.985H179.9v-.985h-2.113V126.3l1.985-2.482h.429l-1.915,2.418h1.627v-.866h.374v.866h.749Z" transform="translate(-53.454 -37.228)" fill="#fff"/>
        <path id="Path_708" data-name="Path 708" d="M185.194,126.487c0,.626-.455,1.107-1.359,1.107a1.946,1.946,0,0,1-1.348-.481l.187-.3a1.638,1.638,0,0,0,1.161.434c.62,0,.963-.29.963-.755,0-.45-.316-.743-1.011-.743h-.268v-.284l1.038-1.3h-1.915v-.343h2.408v.273l-1.059,1.332c.8.043,1.2.465,1.2,1.064" transform="translate(-54.868 -37.228)" fill="#fff"/>
        <path id="Path_709" data-name="Path 709" d="M189.526,126.46c0,.636-.444,1.134-1.359,1.134a1.934,1.934,0,0,1-1.343-.482l.187-.3a1.621,1.621,0,0,0,1.15.434c.637,0,.974-.31.974-.765,0-.482-.3-.781-1.252-.781h-.8l.193-1.878h2.049v.343h-1.712l-.129,1.193h.482c1.129,0,1.557.444,1.557,1.108" transform="translate(-56.173 -37.228)" fill="#fff"/>
        <path id="Path_710" data-name="Path 710" d="M194.2,126.43a1.167,1.167,0,0,1-1.279,1.15c-.994,0-1.535-.69-1.535-1.872,0-1.273.7-1.937,1.712-1.937a1.724,1.724,0,0,1,.888.2l-.155.311a1.311,1.311,0,0,0-.728-.176c-.808,0-1.327.518-1.327,1.535,0,.086.006.192.016.3a1.2,1.2,0,0,1,1.145-.642,1.134,1.134,0,0,1,1.263,1.123m-.38.011c0-.492-.364-.808-.941-.808a.867.867,0,0,0-.963.818c0,.412.343.8.99.8a.819.819,0,0,0,.915-.813" transform="translate(-57.544 -37.214)" fill="#fff"/>
        <path id="Path_711" data-name="Path 711" d="M206.025,127.963l-.893-1.177-.9,1.177h-.429l1.113-1.444-1.059-1.37h.428l.845,1.1.845-1.1h.418l-1.059,1.37,1.124,1.444Z" transform="translate(-61.278 -37.629)" fill="#fff"/>
        <path id="Path_712" data-name="Path 712" d="M210.111,127.963l-.893-1.177-.9,1.177h-.429L209,126.519l-1.059-1.37h.428l.846,1.1.845-1.1h.418l-1.059,1.37,1.124,1.444Z" transform="translate(-62.507 -37.629)" fill="#fff"/>
        <path id="Path_713" data-name="Path 713" d="M214.2,127.963l-.893-1.177-.9,1.177h-.429l1.113-1.444-1.06-1.37h.428l.845,1.1.845-1.1h.417l-1.059,1.37,1.124,1.444Z" transform="translate(-63.735 -37.629)" fill="#fff"/>
        <path id="Path_714" data-name="Path 714" d="M218.28,127.963l-.893-1.177-.9,1.177h-.429l1.113-1.444-1.059-1.37h.428l.845,1.1.845-1.1h.417l-1.059,1.37,1.124,1.444Z" transform="translate(-64.963 -37.629)" fill="#fff"/>
        <path id="Path_715" data-name="Path 715" d="M232.385,127.963l-.893-1.177-.9,1.177h-.429l1.113-1.444-1.059-1.37h.428l.845,1.1.845-1.1h.417l-1.059,1.37,1.124,1.444Z" transform="translate(-69.204 -37.629)" fill="#fff"/>
        <path id="Path_716" data-name="Path 716" d="M236.47,127.963l-.893-1.177-.9,1.177h-.429l1.113-1.444-1.06-1.37h.428l.845,1.1.845-1.1h.418l-1.059,1.37,1.124,1.444Z" transform="translate(-70.432 -37.629)" fill="#fff"/>
        <path id="Path_717" data-name="Path 717" d="M240.555,127.963l-.893-1.177-.9,1.177h-.429l1.113-1.444-1.059-1.37h.428l.845,1.1.845-1.1h.417l-1.059,1.37,1.124,1.444Z" transform="translate(-71.66 -37.629)" fill="#fff"/>
        <path id="Path_718" data-name="Path 718" d="M244.64,127.963l-.893-1.177-.9,1.177h-.429l1.113-1.444-1.059-1.37h.428l.845,1.1.845-1.1h.418l-1.06,1.37,1.124,1.444Z" transform="translate(-72.888 -37.629)" fill="#fff"/>
        <path id="Path_719" data-name="Path 719" d="M257.717,123.817v3.745h-.385v-3.4h-.883v-.343Z" transform="translate(-77.107 -37.228)" fill="#fff"/>
        <path id="Path_720" data-name="Path 720" d="M261.917,126.487c0,.626-.455,1.107-1.359,1.107a1.946,1.946,0,0,1-1.348-.481l.187-.3a1.639,1.639,0,0,0,1.161.434c.62,0,.963-.29.963-.755,0-.45-.316-.743-1.011-.743h-.268v-.284l1.038-1.3h-1.916v-.343h2.408v.273l-1.059,1.332c.8.043,1.2.465,1.2,1.064" transform="translate(-77.937 -37.228)" fill="#fff"/>
        <path id="Path_721" data-name="Path 721" d="M267.008,126.578h-.749v.985h-.385v-.985h-2.113V126.3l1.985-2.482h.429l-1.915,2.418h1.626v-.866h.374v.866h.749Z" transform="translate(-79.305 -37.228)" fill="#fff"/>
        <path id="Path_722" data-name="Path 722" d="M271.358,127.206v.343h-2.627v-.273l1.557-1.525c.423-.417.5-.669.5-.926,0-.433-.3-.7-.877-.7a1.27,1.27,0,0,0-1.022.417l-.273-.235a1.682,1.682,0,0,1,1.327-.535c.76,0,1.241.385,1.241,1.011a1.54,1.54,0,0,1-.615,1.171l-1.273,1.252Z" transform="translate(-80.766 -37.215)" fill="#fff"/>
        <path id="Path_723" data-name="Path 723" d="M175.029,139.891a.985.985,0,0,1,1.706-.608l-.266.245a.576.576,0,0,0-.449-.21.572.572,0,1,0,0,1.144.569.569,0,0,0,.449-.212l.266.245a.982.982,0,0,1-1.706-.6" transform="translate(-52.626 -41.783)" fill="#fff"/>
        <path id="Path_724" data-name="Path 724" d="M178.894,140.414h-.829l-.159.383h-.423l.8-1.787h.408l.8,1.787h-.434Zm-.13-.315-.283-.684-.283.684Z" transform="translate(-53.364 -41.796)" fill="#fff"/>
        <path id="Path_725" data-name="Path 725" d="M181.758,140.8l-.345-.5h-.38v.5h-.413V139.01h.773c.478,0,.776.248.776.648a.581.581,0,0,1-.367.564l.4.575Zm-.388-1.45h-.337v.623h.337c.253,0,.381-.117.381-.312s-.128-.311-.381-.311" transform="translate(-54.307 -41.796)" fill="#fff"/>
        <path id="Path_726" data-name="Path 726" d="M183.1,140.607l.141-.311a1.049,1.049,0,0,0,.59.186c.245,0,.345-.081.345-.192,0-.334-1.039-.1-1.039-.768,0-.3.245-.557.753-.557a1.2,1.2,0,0,1,.62.158l-.127.315a1.007,1.007,0,0,0-.5-.141c-.245,0-.339.092-.339.2,0,.329,1.039.1,1.039.759,0,.3-.248.554-.759.554a1.277,1.277,0,0,1-.727-.207" transform="translate(-55.054 -41.783)" fill="#fff"/>
        <path id="Path_727" data-name="Path 727" d="M188.312,139.01V140.8H187.9v-.732h-.812v.732h-.413V139.01h.413v.7h.812v-.7Z" transform="translate(-56.127 -41.796)" fill="#fff"/>
        <path id="Path_728" data-name="Path 728" d="M189.467,139.891a.979.979,0,1,1,.978.925.924.924,0,0,1-.978-.925m1.536,0a.559.559,0,1,0-.559.572.545.545,0,0,0,.559-.572" transform="translate(-56.967 -41.783)" fill="#fff"/>
        <path id="Path_729" data-name="Path 729" d="M192.714,139.01h.413v1.45h.9v.336h-1.31Z" transform="translate(-57.943 -41.796)" fill="#fff"/>
        <path id="Path_730" data-name="Path 730" d="M194.922,139.01h.811a.9.9,0,1,1,0,1.787h-.811Zm.791,1.448a.555.555,0,1,0,0-1.108h-.378v1.108Z" transform="translate(-58.607 -41.796)" fill="#fff"/>
        <path id="Path_731" data-name="Path 731" d="M199.326,140.465v.332h-1.383V139.01h1.35v.332h-.94v.388h.83v.322h-.83v.413Z" transform="translate(-59.516 -41.796)" fill="#fff"/>
        <path id="Path_732" data-name="Path 732" d="M201.534,140.8l-.345-.5h-.38v.5H200.4V139.01h.773c.477,0,.776.248.776.648a.581.581,0,0,1-.367.564l.4.575Zm-.388-1.45h-.337v.623h.337c.253,0,.381-.117.381-.312s-.128-.311-.381-.311" transform="translate(-60.253 -41.796)" fill="#fff"/>
        <path id="Path_733" data-name="Path 733" d="M174.773,148.984l.443-.531a.791.791,0,0,0,.639.378c.32,0,.487-.192.487-.571v-1.638h-1.21v-.639h2v2.233a1.113,1.113,0,0,1-1.239,1.269,1.386,1.386,0,0,1-1.122-.5" transform="translate(-52.549 -43.893)" fill="#fff"/>
        <path id="Path_734" data-name="Path 734" d="M178.877,150.071a.477.477,0,0,1,.955,0,.477.477,0,1,1-.955,0" transform="translate(-53.783 -44.98)" fill="#fff"/>
        <path id="Path_735" data-name="Path 735" d="M185.87,145.984l-1.127,3.443h-.856l-.757-2.331-.781,2.331H181.5l-1.132-3.443h.827l.777,2.42.811-2.42h.738l.787,2.439.8-2.439Z" transform="translate(-54.231 -43.893)" fill="#fff"/>
        <path id="Path_736" data-name="Path 736" d="M188.721,145.8a.438.438,0,0,1,.478-.427.43.43,0,0,1,.476.413.479.479,0,0,1-.954.015m.094.8h.767v2.646h-.767Z" transform="translate(-56.743 -43.709)" fill="#fff"/>
        <rect id="Rectangle_128" data-name="Rectangle 128" width="0.767" height="3.649" transform="translate(133.551 101.885)" fill="#fff"/>
        <rect id="Rectangle_129" data-name="Rectangle 129" width="0.767" height="3.649" transform="translate(135.03 101.885)" fill="#fff"/>
        <path id="Path_737" data-name="Path 737" d="M195.066,145.8a.438.438,0,0,1,.477-.427.43.43,0,0,1,.477.413.479.479,0,0,1-.954.015m.094.8h.767v2.646h-.767Z" transform="translate(-58.651 -43.709)" fill="#fff"/>
        <path id="Path_738" data-name="Path 738" d="M199.581,148.244v1.51h-.718v-.329a.869.869,0,0,1-.806.369c-.62,0-.989-.344-.989-.8s.33-.792,1.136-.792h.61c0-.329-.2-.521-.61-.521a1.273,1.273,0,0,0-.762.246l-.275-.536a2.034,2.034,0,0,1,1.141-.32c.807,0,1.274.373,1.274,1.176m-.767.673v-.271h-.527c-.359,0-.472.133-.472.31,0,.192.162.32.433.32a.566.566,0,0,0,.566-.359" transform="translate(-59.253 -44.219)" fill="#fff"/>
        <path id="Path_739" data-name="Path 739" d="M206.12,148.239v1.515h-.767v-1.4c0-.427-.192-.625-.5-.625-.345,0-.586.222-.586.694v1.328H203.5v-1.4c0-.427-.182-.625-.5-.625-.339,0-.58.222-.58.694v1.328h-.767v-2.646h.733v.3a1.072,1.072,0,0,1,.831-.344.987.987,0,0,1,.871.433,1.19,1.19,0,0,1,.955-.433,1.025,1.025,0,0,1,1.082,1.171" transform="translate(-60.63 -44.219)" fill="#fff"/>
        <path id="Path_740" data-name="Path 740" d="M208.654,149.507l.256-.551a1.8,1.8,0,0,0,.92.256c.354,0,.487-.093.487-.241,0-.432-1.6.01-1.6-1.047,0-.5.452-.856,1.225-.856a2.176,2.176,0,0,1,1.018.231l-.255.545a1.521,1.521,0,0,0-.763-.2c-.344,0-.492.108-.492.245,0,.452,1.6.015,1.6,1.058,0,.492-.457.841-1.25.841a2.269,2.269,0,0,1-1.146-.285" transform="translate(-62.736 -44.219)" fill="#fff"/>
        <path id="Path_741" data-name="Path 741" d="M252.791,147.829c0-1.136.629-1.78,1.476-1.78s1.476.644,1.476,1.78-.625,1.781-1.476,1.781-1.476-.645-1.476-1.781m2.149,0c0-.782-.275-1.107-.673-1.107s-.669.325-.669,1.107.276,1.106.669,1.106.673-.324.673-1.106" transform="translate(-76.007 -43.913)" fill="#fff"/>
        <path id="Path_742" data-name="Path 742" d="M260.4,148.464a1.183,1.183,0,0,1-1.3,1.146c-.95,0-1.54-.594-1.54-1.706a1.676,1.676,0,0,1,1.756-1.854,1.862,1.862,0,0,1,.959.236l-.3.585a1.135,1.135,0,0,0-.645-.172.914.914,0,0,0-.969,1,1.159,1.159,0,0,1,.85-.3,1.092,1.092,0,0,1,1.185,1.072m-.772.039a.519.519,0,0,0-.585-.516.538.538,0,0,0-.6.516c0,.3.222.512.6.512a.515.515,0,0,0,.576-.512" transform="translate(-77.441 -43.913)" fill="#fff"/>
        <path id="Path_743" data-name="Path 743" d="M263.224,145.135h.684l-1.623,4.633H261.6Z" transform="translate(-78.656 -43.638)" fill="#fff"/>
        <path id="Path_744" data-name="Path 744" d="M267.354,148.9v.649h-2.6v-.516l1.328-1.254c.3-.29.359-.468.359-.634,0-.271-.187-.428-.552-.428a.842.842,0,0,0-.713.344l-.58-.374a1.6,1.6,0,0,1,1.367-.639c.768,0,1.279.394,1.279,1.018a1.376,1.376,0,0,1-.576,1.087l-.792.747Z" transform="translate(-79.556 -43.913)" fill="#fff"/>
        <path id="Path_745" data-name="Path 745" d="M272.072,148.854h-.56v.723h-.777v-.723H268.88v-.536l1.623-2.183h.836l-1.506,2.07h.924v-.644h.753v.644h.56Z" transform="translate(-80.844 -43.938)" fill="#fff"/>
        <g id="Group_55" data-name="Group 55" transform="translate(166.249 71.186)" opacity="0.2">
          <g id="Group_54" data-name="Group 54">
            <g id="Group_53" data-name="Group 53" clip-path="url(#clip-path-9)">
              <path id="Path_746" data-name="Path 746" d="M248.281,105.731a5.382,5.382,0,0,0-5.664-3.927,6.742,6.742,0,0,0-2.3.543,4.174,4.174,0,0,0-2.445,4.788,5.736,5.736,0,0,0,3.439,3.141c1.538.672,3.344,1.11,4.862.4a4.228,4.228,0,0,0,2.239-3.988,4.954,4.954,0,0,0-.136-.953" transform="translate(-237.726 -101.792)" fill="#fff"/>
            </g>
          </g>
        </g>
        <g id="Group_58" data-name="Group 58" transform="translate(114.028 59.79)" opacity="0.2">
          <g id="Group_57" data-name="Group 57">
            <g id="Group_56" data-name="Group 56" clip-path="url(#clip-path-10)">
              <path id="Path_747" data-name="Path 747" d="M247.085,85.5H165.932a2.88,2.88,0,0,0-2.88,2.88v14.559c5.13,3.575,12.17,4.2,18.418,2.9,7.365-1.54,14.034-5.305,20.9-8.393s14.4-5.565,21.816-4.293c7,1.2,12.964,5.559,19.289,8.785a37.6,37.6,0,0,0,6.494,2.616V88.376a2.88,2.88,0,0,0-2.88-2.88" transform="translate(-163.053 -85.496)" fill="#fff"/>
            </g>
          </g>
        </g>
        <path id="Path_748" data-name="Path 748" d="M234.123,294.137H185.777a10.909,10.909,0,0,1-10.91-10.91v-1.256a10.909,10.909,0,0,1,10.91-10.91h48.346a10.91,10.91,0,0,1,10.91,10.91v1.256a10.91,10.91,0,0,1-10.91,10.91" transform="translate(-52.577 -81.5)" fill="#f5579c"/>
      </g>
    </g>
    <text id="Pay" transform="translate(152.06 202.485)" fill="#fff" font-size="7" font-family="MyriadPro-Regular, Myriad Pro"><tspan x="0" y="0" letter-spacing="-0.025em">P</tspan><tspan y="0" letter-spacing="-0.008em">a</tspan><tspan y="0">y</tspan></text>
    <g id="Group_74" data-name="Group 74">
      <g id="Group_73" data-name="Group 73" clip-path="url(#clip-path)">
        <path id="Path_749" data-name="Path 749" d="M93.927,320.513s-37.6-22.46-46.659-11.808S54.552,329.1,57.7,331.256s35.425,15.259,35.425,15.259l9.228-8.764Z" transform="translate(-13.399 -91.956)" fill="#f5579c"/>
        <path id="Path_750" data-name="Path 750" d="M78.723,341l-15.944,7.425-14.3,2.237a1.8,1.8,0,0,0-.418,3.443c3.435,1.425,16.1,6.606,17.234,6,1.316-.7,17.338-6.716,17.338-6.716Z" transform="translate(-14.117 -102.529)" fill="#1c3a3e"/>
        <g id="Group_63" data-name="Group 63" transform="translate(32.879 250.314)" opacity="0.6">
          <g id="Group_62" data-name="Group 62">
            <g id="Group_61" data-name="Group 61" clip-path="url(#clip-path-12)">
              <path id="Path_751" data-name="Path 751" d="M47.015,357.934,66.4,364.718l-.683.3a2.706,2.706,0,0,1-1.869.117c-1.65-.5-6.178-1.966-15.749-5.887a1.8,1.8,0,0,1-1.082-1.313" transform="translate(-47.015 -357.934)" fill="#fff"/>
            </g>
          </g>
        </g>
        <g id="Group_66" data-name="Group 66" transform="translate(54.424 251.368)" opacity="0.6">
          <g id="Group_65" data-name="Group 65">
            <g id="Group_64" data-name="Group 64" clip-path="url(#clip-path-13)">
              <path id="Path_752" data-name="Path 752" d="M79.408,359.588a1.091,1.091,0,0,0-1.424.3,1.049,1.049,0,0,0,.283,1.415,1.151,1.151,0,0,0,1.506-.324,1.088,1.088,0,0,0-.458-1.439" transform="translate(-77.823 -359.441)" fill="#fff"/>
            </g>
          </g>
        </g>
        <path id="Path_753" data-name="Path 753" d="M59.385,357.08a3.89,3.89,0,0,0,.176-3.972c.034-.031.248.118.466.472a2.867,2.867,0,0,1-.136,3.071c-.249.334-.476.463-.506.429" transform="translate(-17.853 -106.168)" fill="#263238"/>
        <path id="Path_754" data-name="Path 754" d="M55.4,357.038a5.379,5.379,0,0,0-.419-3.392c.062-.082.743.543.87,1.615a2,2,0,0,1-.451,1.778" transform="translate(-16.528 -106.329)" fill="#263238"/>
        <path id="Path_755" data-name="Path 755" d="M64.586,357.832a9.255,9.255,0,0,0-.206-5.3,4.926,4.926,0,0,1,.206,5.3" transform="translate(-19.353 -105.996)" fill="#263238"/>
        <path id="Path_756" data-name="Path 756" d="M71.163,355.62c-.115,0-.134-1.054-.6-2.23-.45-1.183-1.146-1.972-1.062-2.05a4.471,4.471,0,0,1,1.661,4.281" transform="translate(-20.895 -105.636)" fill="#263238"/>
        <path id="Path_757" data-name="Path 757" d="M77.776,352.688a5.72,5.72,0,0,0-2.034-4.239c.022-.041.3.046.678.323a3.928,3.928,0,0,1,1.528,3.183c-.02.468-.126.741-.172.732" transform="translate(-22.772 -104.766)" fill="#263238"/>
        <path id="Path_758" data-name="Path 758" d="M79.06,349.157a1.523,1.523,0,0,1,.6-.289,4.616,4.616,0,0,1,1.808-.215,2.053,2.053,0,0,1,1.249.413.724.724,0,0,1,.18.813,1.174,1.174,0,0,1-.615.573,2.547,2.547,0,0,1-3.055-1.1,2.954,2.954,0,0,1,.251-3.278,1.024,1.024,0,0,1,.762-.387.711.711,0,0,1,.643.53,2.514,2.514,0,0,1-.087,1.3,5.15,5.15,0,0,1-.77,1.648c-.25.35-.431.506-.448.492a8.226,8.226,0,0,0,.952-2.2,2.352,2.352,0,0,0,.048-1.138.379.379,0,0,0-.348-.291.7.7,0,0,0-.486.283,2.637,2.637,0,0,0-.185,2.845,2.212,2.212,0,0,0,2.58.971.861.861,0,0,0,.447-.383.393.393,0,0,0-.093-.45,1.851,1.851,0,0,0-1.051-.369,6.813,6.813,0,0,0-2.381.232" transform="translate(-23.706 -103.938)" fill="#263238"/>
        <path id="Path_759" data-name="Path 759" d="M84.293,332.656s37.829-20.009,42.927-22.467c4.38-2.113,18.094-6.553,22.069,6.576s-22.57,30.612-22.57,30.612l-21.652-.292-7.048-3.171-8.333,2.041Z" transform="translate(-25.344 -92.526)" fill="#f5579c"/>
        <path id="Path_760" data-name="Path 760" d="M165.858,339.514a3.524,3.524,0,0,1-.385.725c-.256.465-.7,1.088-1.249,1.858a54.555,54.555,0,0,1-4.863,5.543c-2.021,2.052-3.947,3.811-5.372,5.045-.713.618-1.3,1.106-1.712,1.434a3.411,3.411,0,0,1-.667.479,3.74,3.74,0,0,1,.574-.586l1.633-1.519c1.378-1.281,3.271-3.064,5.285-5.109a71.679,71.679,0,0,0,4.918-5.445c1.167-1.471,1.782-2.46,1.839-2.426" transform="translate(-45.584 -102.082)" fill="#455a64"/>
        <path id="Path_761" data-name="Path 761" d="M119.9,360.253l16.01,7.284,11,9.412a1.8,1.8,0,0,0,2.887-1.921c-1.15-3.536-5.449-16.525-6.651-16.992-1.392-.541-16.378-8.8-16.378-8.8Z" transform="translate(-36.049 -105.004)" fill="#1c3a3e"/>
        <g id="Group_69" data-name="Group 69" transform="translate(106.025 252.517)" opacity="0.6">
          <g id="Group_68" data-name="Group 68">
            <g id="Group_67" data-name="Group 67" clip-path="url(#clip-path-14)">
              <path id="Path_762" data-name="Path 762" d="M159.06,380.22l-7.45-19.136.671.324a2.716,2.716,0,0,1,1.3,1.344c.7,1.576,2.523,5.972,5.768,15.792a1.8,1.8,0,0,1-.294,1.676" transform="translate(-151.61 -361.084)" fill="#fff"/>
            </g>
          </g>
        </g>
        <g id="Group_72" data-name="Group 72" transform="translate(99.322 252.102)" opacity="0.6">
          <g id="Group_71" data-name="Group 71">
            <g id="Group_70" data-name="Group 70" clip-path="url(#clip-path-15)">
              <path id="Path_763" data-name="Path 763" d="M142.05,361.689a1.09,1.09,0,0,0,1.152.888,1.049,1.049,0,0,0,.89-1.135,1.15,1.15,0,0,0-1.225-.934,1.087,1.087,0,0,0-.8,1.283" transform="translate(-142.025 -360.491)" fill="#fff"/>
            </g>
          </g>
        </g>
        <path id="Path_764" data-name="Path 764" d="M153.5,378.444a3.887,3.887,0,0,0-3.132,2.449c-.045,0-.071-.265.055-.661a2.873,2.873,0,0,1,2.423-1.894c.415-.027.66.061.655.106" transform="translate(-45.201 -113.754)" fill="#263238"/>
        <path id="Path_765" data-name="Path 765" d="M156.112,381.556c.032.108-.728.368-1.359,1.074s-.835,1.472-.946,1.45a2.528,2.528,0,0,1,2.3-2.525" transform="translate(-46.232 -114.713)" fill="#263238"/>
        <path id="Path_766" data-name="Path 766" d="M150.751,373.6a17.985,17.985,0,0,0-2.208,1.516,18.077,18.077,0,0,0-1.683,2.085,4.927,4.927,0,0,1,3.891-3.6" transform="translate(-44.152 -112.326)" fill="#263238"/>
        <path id="Path_767" data-name="Path 767" d="M144.779,369.861c.074.088-.714.787-1.3,1.906-.606,1.111-.752,2.153-.867,2.14a4.468,4.468,0,0,1,2.172-4.046" transform="translate(-42.862 -111.204)" fill="#263238"/>
        <path id="Path_768" data-name="Path 768" d="M138.189,366.633a5.725,5.725,0,0,0-1.9,4.3c-.046.01-.161-.259-.2-.726a3.925,3.925,0,0,1,1.425-3.232c.368-.289.644-.385.668-.345" transform="translate(-40.918 -110.233)" fill="#263238"/>
        <path id="Path_769" data-name="Path 769" d="M134.306,367.3a1.517,1.517,0,0,1-.61-.268,4.633,4.633,0,0,1-1.339-1.234,2.052,2.052,0,0,1-.5-1.217.724.724,0,0,1,.5-.665,1.181,1.181,0,0,1,.836.094,2.548,2.548,0,0,1,1.151,3.035,2.955,2.955,0,0,1-2.654,1.942,1.029,1.029,0,0,1-.789-.327.711.711,0,0,1-.015-.833,2.519,2.519,0,0,1,1.046-.782,5.15,5.15,0,0,1,1.753-.487,1.563,1.563,0,0,1,.665.021,8.2,8.2,0,0,0-2.294.709,2.356,2.356,0,0,0-.9.7.379.379,0,0,0,.006.455.706.706,0,0,0,.531.185,2.637,2.637,0,0,0,2.281-1.71,2.211,2.211,0,0,0-.941-2.591.856.856,0,0,0-.58-.09.391.391,0,0,0-.281.363,1.848,1.848,0,0,0,.4,1.038,6.824,6.824,0,0,0,1.725,1.658" transform="translate(-39.316 -109.406)" fill="#263238"/>
        <path id="Path_770" data-name="Path 770" d="M121.775,364.162c-.446-.265-18.5-8.872-18.5-8.872l18.918-8.033,10.747,6.38Z" transform="translate(-31.051 -104.41)" fill="#f5579c"/>
        <path id="Path_771" data-name="Path 771" d="M140.16,335.037s-.088.015-.257.059l-.744.2-2.855.8-10.484,3.007-34.569,9.984-1.671.409.164.084-5.4-13.3-.061.168,22.065-11.792,6.354-3.423,1.69-.922.433-.243a.789.789,0,0,0,.143-.09,1.066,1.066,0,0,0-.154.069l-.443.223-1.709.885-6.39,3.355-22.113,11.7-.106.056.045.113c1.68,4.147,3.5,8.634,5.388,13.3l.045.113.119-.029,1.675-.411c.859-.193,1.692-.455,2.525-.7l2.481-.723,4.851-1.415,9.17-2.679,15.524-4.553,10.46-3.093,2.841-.855.736-.229c.166-.053.248-.087.248-.087" transform="translate(-25.272 -96.211)" fill="#455a64"/>
        <path id="Path_772" data-name="Path 772" d="M129.73,365.006a6.133,6.133,0,0,0,.725-.614l1.906-1.75c1.6-1.487,3.8-3.555,6.215-5.851l2.43-2.318.133-.127-.159-.089-5.456-3.047-1.6-.862a3.5,3.5,0,0,0-.589-.283,3.375,3.375,0,0,0,.544.362l1.556.932,5.407,3.133-.026-.215-2.438,2.309c-2.416,2.3-4.593,4.387-6.158,5.911l-1.844,1.815a6.218,6.218,0,0,0-.65.694" transform="translate(-39.006 -105.254)" fill="#455a64"/>
        <path id="Path_773" data-name="Path 773" d="M79.366,317.044c-.034.07,4.4,2.312,9.907,5.007s10,4.824,10.032,4.754-4.4-2.312-9.908-5.008-10-4.823-10.031-4.753" transform="translate(-23.863 -95.325)" fill="#455a64"/>
        <path id="Path_774" data-name="Path 774" d="M112.012,239.72c.385.022,13.731.671,16.267,3.52S134,287.657,134,287.657a22.642,22.642,0,0,0-6.636,2.1l-23.442,11.9-9.519-5.673a2.467,2.467,0,0,1-.478-3.783L83.623,244.24a24.173,24.173,0,0,1,6.558-3.088c3.93-1.187,21.831-1.432,21.831-1.432" transform="translate(-25.143 -72.077)" fill="#8742f5"/>
        <path id="Path_775" data-name="Path 775" d="M79.269,244.015s-4.063.653-5.743,3.04c-3.937,5.593-16.2,25.556-18.349,30.385-2.274,5.113-.331,8.212.962,10.5,1.392,2.463,9.8,2.946,13.85-.906,1.736-1.652,11.319-9.384,11.319-9.384Z" transform="translate(-16.275 -73.368)" fill="#8742f5"/>
        <path id="Path_776" data-name="Path 776" d="M82.919,254.575a2.519,2.519,0,0,0,.129.417l.42,1.172c.35,1.024.835,2.512,1.376,4.369,1.1,3.711,2.4,8.9,3.771,14.64,1.336,5.743,2.545,10.94,3.427,14.735.442,1.885.813,3.408,1.078,4.457q.2.754.321,1.2a2.542,2.542,0,0,0,.13.415,2.492,2.492,0,0,0-.075-.429c-.067-.3-.157-.709-.269-1.217-.241-1.085-.578-2.607-.991-4.476-.836-3.78-1.983-9.005-3.347-14.756s-2.709-10.931-3.855-14.633c-.566-1.852-1.082-3.334-1.464-4.349L83.1,254.97a2.492,2.492,0,0,0-.182-.4" transform="translate(-24.931 -76.543)" fill="#263238"/>
        <path id="Path_777" data-name="Path 777" d="M140.024,243.908a9.715,9.715,0,0,1,3.983,2.136c1.457,1.5,17.608,27.107,19.234,34.289.943,4.165-4.064,12.382-8.907,11.69-6.333-.9-29.675-11.456-29.675-11.456l6.034-11.332,13.37,2.947-9.24-10.433,4.732-18.125" transform="translate(-37.481 -73.251)" fill="#8742f5"/>
        <path id="Path_778" data-name="Path 778" d="M62.762,284.823a1.061,1.061,0,0,0,.25-.13l.686-.418,2.493-1.583c2.1-1.347,4.988-3.224,8.168-5.311l2.127-1.4-.191-.038c1.8,2.647,3.4,4.957,4.565,6.593a18.684,18.684,0,0,0,1.962,2.553l-1.814-2.656-4.483-6.645-.076-.113-.115.075L74.2,277.145c-3.181,2.087-6.052,3.99-8.123,5.38l-2.444,1.658-.657.462a1.032,1.032,0,0,0-.218.178" transform="translate(-18.871 -82.888)" fill="#263238"/>
        <path id="Path_779" data-name="Path 779" d="M117.529,273.422l10.426,5.421-4.811,9.036-6.437-4.812Z" transform="translate(-35.09 -82.21)" fill="#ffbe9d"/>
        <path id="Path_780" data-name="Path 780" d="M95.664,271.5l-6.88-5.267a1.327,1.327,0,0,0-.845-.274l-9.414.255a.713.713,0,0,0-.7.7,1.27,1.27,0,0,0,.334,1.018l14.6,11.447,11.442-1.141Z" transform="translate(-23.4 -79.966)" fill="#e0e0e0"/>
        <path id="Path_781" data-name="Path 781" d="M112.235,271.819s-3.7-3.09-4.6-3.3-4.986-.429-4.986-.429l-3.55,1.762,2.043,1.569a3.266,3.266,0,0,0,1.954-.79l2.367.3Z" transform="translate(-29.796 -80.607)" fill="#ffbe9d"/>
        <path id="Path_782" data-name="Path 782" d="M105.281,271.279l-6.239,1.744-8.853.728a1.919,1.919,0,0,0,1.634,2.074c1.053.175,2.9.41,2.9.41a2.973,2.973,0,0,0,1.7,2.08,4.562,4.562,0,0,0,1.233,1.639,1.218,1.218,0,0,0,.261.132c.831.294,2.378,2.68,3.486,3.053s7.334-.715,7.334-.715l.822-9.645Z" transform="translate(-27.116 -81.566)" fill="#ffbe9d"/>
        <path id="Path_783" data-name="Path 783" d="M105.015,278.261c-.006-.027-.489.075-1.277.185a23.88,23.88,0,0,1-3.095.224,23.181,23.181,0,0,1-3.1-.186c-.788-.1-1.272-.2-1.278-.174a1.408,1.408,0,0,0,.332.1c.217.056.534.123.929.188a18.432,18.432,0,0,0,3.116.236,18.9,18.9,0,0,0,3.112-.274c.394-.07.711-.138.927-.2a1.414,1.414,0,0,0,.332-.1" transform="translate(-28.945 -83.664)" fill="#eb996e"/>
        <path id="Path_784" data-name="Path 784" d="M106.872,281.745a1.43,1.43,0,0,0,.029.606,1.244,1.244,0,0,0,.294.611,1.048,1.048,0,0,0,.777.308,1.987,1.987,0,0,0,.8-.181c.229-.1.422-.2.586-.286.327-.168.544-.229.54-.253a1.251,1.251,0,0,0-.588.145,3.642,3.642,0,0,1-1.339.408.929.929,0,0,1-.669-.248,1.228,1.228,0,0,1-.29-.532,4.649,4.649,0,0,0-.143-.578" transform="translate(-32.128 -84.712)" fill="#eb996e"/>
        <path id="Path_785" data-name="Path 785" d="M100.379,282.225a2.513,2.513,0,0,0,.657.208,15.25,15.25,0,0,0,3.293.416,2.558,2.558,0,0,0,.689-.038c0-.05-1.047-.082-2.326-.246s-2.3-.389-2.313-.341" transform="translate(-30.181 -84.855)" fill="#eb996e"/>
        <path id="Path_786" data-name="Path 786" d="M106.791,286.237a2.157,2.157,0,0,0,2.078.448c-.008-.05-.49.013-1.063-.114s-.988-.376-1.015-.334" transform="translate(-32.109 -86.062)" fill="#eb996e"/>
        <path id="Path_787" data-name="Path 787" d="M103.651,285.887c-.009.045.282.14.648.211a1.439,1.439,0,0,0,.68.047c.009-.045-.281-.14-.648-.211a1.438,1.438,0,0,0-.68-.047" transform="translate(-31.165 -85.951)" fill="#eb996e"/>
        <path id="Path_788" data-name="Path 788" d="M102.85,272.973a16.954,16.954,0,0,0,2.917-.791c.794-.256,1.508-.506,2.02-.7a3.718,3.718,0,0,0,.809-.364,6.171,6.171,0,0,0-.848.253l-2.032.655-2.03.659a8.15,8.15,0,0,0-.836.291" transform="translate(-30.924 -81.516)" fill="#eb996e"/>
        <path id="Path_789" data-name="Path 789" d="M87.377,275.419s.694-.194.025-1.3-2.787.066-2.787.066l-2.7,1.4s-.666,1.324.041,1.725l.5.694s-1.078.971-.72,1.9a1.406,1.406,0,0,0,1.375.859,4.7,4.7,0,0,0,.328,2.56,1.987,1.987,0,0,0,1.092.832,3.268,3.268,0,0,0,2.14,2.095c1.728.549,2.641.635,3.161-.074a8.145,8.145,0,0,0,.873-1.629s3.873-1.754,4.011-2.748-.026-1.1-.026-1.1a1.876,1.876,0,0,0,.006-1.448c-.344-.633-1.867-.187-1.867-.187l-4.859.848s3.94-1.581,4.431-2.144.045-1.312-1.508-1.219-6.256.7-6.256.7a1.417,1.417,0,0,1,.577-.563c.319-.112,1.313-.618,1.313-.618Z" transform="translate(-24.544 -82.275)" fill="#ffbe9d"/>
        <path id="Path_790" data-name="Path 790" d="M87.609,285.67c.01.045,1.983-.339,4.406-.856s4.382-.975,4.372-1.02-1.982.338-4.407.856-4.381.975-4.372,1.02" transform="translate(-26.341 -85.328)" fill="#eb996e"/>
        <path id="Path_791" data-name="Path 791" d="M90.662,290.054a5.761,5.761,0,0,0,1.422-.28,9.934,9.934,0,0,0,.979-.309,1.847,1.847,0,0,0,.286-.134.264.264,0,0,0,.071-.059c.02-.021,0-.047,0-.037.028.017-.609.171-1.376.379a7,7,0,0,0-1.379.441" transform="translate(-27.259 -86.964)" fill="#eb996e"/>
        <path id="Path_792" data-name="Path 792" d="M85.176,283.1c.008.047.954-.087,2.124-.211s2.122-.193,2.12-.241a15.029,15.029,0,0,0-4.244.451" transform="translate(-25.61 -84.976)" fill="#eb996e"/>
        <path id="Path_793" data-name="Path 793" d="M83.707,279.394c.028.041.423-.2.964-.363s1-.178,1-.228a2.341,2.341,0,0,0-1.969.591" transform="translate(-25.168 -83.814)" fill="#eb996e"/>
        <path id="Path_794" data-name="Path 794" d="M78.429,267.338a.7.7,0,0,0,.177,0l.5-.034c.437-.031,1.069-.076,1.85-.118,1.562-.087,3.725-.15,6.109-.067a3.374,3.374,0,0,1,1.657.292,6.437,6.437,0,0,1,.655.49l.621.5,2.152,1.713c.6.472,1.1.86,1.46,1.144l.4.3a.662.662,0,0,0,.148.1.705.705,0,0,0-.127-.123l-.383-.329-1.427-1.185L90.1,268.278l-.618-.5a6.286,6.286,0,0,0-.671-.5,2.023,2.023,0,0,0-.844-.272c-.3-.034-.592-.036-.891-.048a57.593,57.593,0,0,0-6.123.116c-.781.058-1.413.121-1.848.172l-.5.064a.7.7,0,0,0-.173.034" transform="translate(-23.581 -80.254)" fill="#263238"/>
        <path id="Path_795" data-name="Path 795" d="M86.694,269.131a.463.463,0,0,1,.463-.148l-.018-.006a.712.712,0,0,1,.073.019l.031.007a.661.661,0,0,1,.355.229.39.39,0,0,1-.016.494.454.454,0,0,1-.269.108.66.66,0,0,1-.537-.169.45.45,0,0,1-.081-.534" transform="translate(-26.05 -80.873)" fill="#fff"/>
        <path id="Path_796" data-name="Path 796" d="M142.625,299.284a2.328,2.328,0,0,0-.336-.17l-.991-.451-3.731-1.65-12.936-5.628.066.187,3.981-7.462,2.057-3.868-.152.071,13.124,2.774-.013,0a26.888,26.888,0,0,1,6.667,3.4c.73.511,1.275.943,1.644,1.237l.417.338a.815.815,0,0,0,.149.108.807.807,0,0,0-.128-.133l-.4-.363c-.357-.311-.891-.759-1.615-1.288a26,26,0,0,0-6.665-3.506l-.006,0h-.007l-13.11-2.834-.1-.022-.05.093-2.06,3.867c-1.393,2.62-2.734,5.145-3.969,7.467l-.069.129.134.057,12.975,5.535,3.762,1.578,1.008.411a2.31,2.31,0,0,0,.355.127" transform="translate(-37.4 -84.193)" fill="#263238"/>
        <path id="Path_797" data-name="Path 797" d="M141.158,272.124a10.007,10.007,0,0,0,1.011,1.394c.655.836,1.579,1.977,2.629,3.213s2.029,2.332,2.78,3.09a8.749,8.749,0,0,0,.937.852c.128.082.217.164.336.145a.079.079,0,0,0,.036-.1c-.007-.02-.013-.03-.017-.029s-.006.07-.036.078a.71.71,0,0,1-.249-.177c-.215-.2-.508-.511-.862-.9-.708-.787-1.661-1.9-2.71-3.135l-2.69-3.157a10.844,10.844,0,0,0-1.165-1.267" transform="translate(-42.442 -81.819)" fill="#263238"/>
        <path id="Path_798" data-name="Path 798" d="M137.841,258.633c.057-.006-.063-.855.015-2.221a14.651,14.651,0,0,1,.341-2.373,14.675,14.675,0,0,1,2.408-5.312,14.532,14.532,0,0,1,1.559-1.82c.976-.96,1.693-1.43,1.66-1.476a2.46,2.46,0,0,0-.516.308,5.223,5.223,0,0,0-.569.417,8.812,8.812,0,0,0-.712.606,13.2,13.2,0,0,0-1.631,1.811,13.937,13.937,0,0,0-2.452,5.409,13.229,13.229,0,0,0-.287,2.42,8.782,8.782,0,0,0,.013.936,5.306,5.306,0,0,0,.062.7,2.447,2.447,0,0,0,.108.592" transform="translate(-41.387 -73.793)" fill="#263238"/>
        <path id="Path_799" data-name="Path 799" d="M110.051,319.1c0-.049-.683-.019-1.772-.11a16.287,16.287,0,0,1-7.928-2.851c-.9-.622-1.4-1.079-1.437-1.043-.013.015.1.141.323.357a10.174,10.174,0,0,0,1,.848,14.442,14.442,0,0,0,8.032,2.887,10.146,10.146,0,0,0,1.308-.018,1.576,1.576,0,0,0,.476-.07" transform="translate(-29.74 -94.738)" fill="#263238"/>
        <path id="Path_800" data-name="Path 800" d="M104.353,303.075a2.36,2.36,0,0,0,.335.483c.229.3.573.725,1.008,1.241.87,1.033,2.117,2.422,3.569,3.884s2.836,2.717,3.863,3.593c.514.438.936.785,1.235,1.015a2.307,2.307,0,0,0,.481.338,2.4,2.4,0,0,0-.41-.421l-1.173-1.082c-.992-.912-2.347-2.186-3.8-3.642s-2.713-2.82-3.619-3.817l-1.075-1.18a2.356,2.356,0,0,0-.419-.413" transform="translate(-31.376 -91.125)" fill="#263238"/>
        <path id="Path_801" data-name="Path 801" d="M120.52,212.583a48.621,48.621,0,0,0,1.006-8.326,16.981,16.981,0,0,0-1.771-8.12c-.2-.374-1.806-2.85-2.22-2.752-.3.07.808,2.433.692,2.713a14.4,14.4,0,0,0-.479,8.536,37.926,37.926,0,0,0,2.771,7.949" transform="translate(-35.278 -58.145)" fill="#1c3a3e"/>
        <path id="Path_802" data-name="Path 802" d="M97.948,228.774c-.285-1.956-.518-3.5-.532-3.5s-6.814.231-8.156-6.371c-.648-3.189-1.448-9.865-2.1-15.914a12.55,12.55,0,0,1,10.133-13.675l.638-.122c6.961-.908,11.621,4.5,12.338,11.479l3.281,24.349L102.142,235.64Z" transform="translate(-26.184 -56.855)" fill="#ffbe9d"/>
        <path id="Path_803" data-name="Path 803" d="M101.858,239.032a16.276,16.276,0,0,0,8.131-4.188s-1.185,5.213-7.9,5.874Z" transform="translate(-30.626 -70.611)" fill="#eb996e"/>
        <path id="Path_804" data-name="Path 804" d="M91.515,216.192a.961.961,0,0,0,1.092.78.92.92,0,0,0,.812-1.037.962.962,0,0,0-1.092-.781.921.921,0,0,0-.813,1.038" transform="translate(-27.513 -64.688)" fill="#1c3a3e"/>
        <path id="Path_805" data-name="Path 805" d="M89.949,211.91c.141.1.755-.565,1.773-.756s1.86.176,1.946.03c.044-.066-.118-.265-.488-.44a2.639,2.639,0,0,0-1.587-.177,2.535,2.535,0,0,0-1.382.756c-.267.3-.331.543-.262.587" transform="translate(-27.037 -63.296)" fill="#1c3a3e"/>
        <path id="Path_806" data-name="Path 806" d="M104.661,214.453a.962.962,0,0,0,1.093.78.919.919,0,0,0,.811-1.037.962.962,0,0,0-1.092-.781.921.921,0,0,0-.813,1.038" transform="translate(-31.465 -64.165)" fill="#1c3a3e"/>
        <path id="Path_807" data-name="Path 807" d="M104.3,209.785c.141.1.757-.565,1.773-.756s1.86.176,1.946.03c.043-.065-.117-.265-.488-.44a2.64,2.64,0,0,0-1.587-.177,2.549,2.549,0,0,0-1.383.757c-.266.3-.33.543-.262.586" transform="translate(-31.354 -62.658)" fill="#1c3a3e"/>
        <path id="Path_808" data-name="Path 808" d="M100.044,218.87a6.845,6.845,0,0,0-1.708.017c-.264.022-.52.017-.6-.151a1.353,1.353,0,0,1,.027-.8q.188-1.012.392-2.124a34.589,34.589,0,0,0,.741-5.5,34.528,34.528,0,0,0-1.181,5.428q-.187,1.114-.357,2.129a1.532,1.532,0,0,0,.059,1.045.664.664,0,0,0,.5.3,1.772,1.772,0,0,0,.453-.023,6.719,6.719,0,0,0,1.674-.316" transform="translate(-29.253 -63.234)" fill="#1c3a3e"/>
        <path id="Path_809" data-name="Path 809" d="M104.524,222.741c-.167.022.041,1.126-.755,2.09s-1.994,1.065-1.974,1.221c0,.073.3.165.8.084a2.8,2.8,0,0,0,1.659-.957,2.433,2.433,0,0,0,.562-1.739c-.045-.469-.221-.72-.3-.7" transform="translate(-30.607 -66.971)" fill="#1c3a3e"/>
        <path id="Path_810" data-name="Path 810" d="M103.266,203.947c.153.258,1.143-.067,2.364-.15,1.219-.107,2.248.059,2.359-.22.048-.131-.17-.36-.61-.554a4.117,4.117,0,0,0-3.6.282c-.4.259-.584.519-.515.642" transform="translate(-31.045 -60.957)" fill="#1c3a3e"/>
        <path id="Path_811" data-name="Path 811" d="M89.62,206.942c.222.2.878-.176,1.718-.348.834-.2,1.585-.141,1.7-.414.05-.131-.106-.341-.46-.5a2.54,2.54,0,0,0-2.757.613c-.252.294-.3.55-.2.648" transform="translate(-26.932 -61.789)" fill="#1c3a3e"/>
        <path id="Path_812" data-name="Path 812" d="M120.8,212.564c.1-.071,4.291-2.211,5.008,2.341s-4,4.332-4.03,4.2-.978-6.544-.978-6.544" transform="translate(-36.32 -63.742)" fill="#ffbe9d"/>
        <path id="Path_813" data-name="Path 813" d="M123.711,217.775c.017-.017.088.043.231.083a.8.8,0,0,0,.6-.081,1.986,1.986,0,0,0,.63-1.9,2.641,2.641,0,0,0-.4-1.1.928.928,0,0,0-.692-.515.409.409,0,0,0-.434.291c-.041.137,0,.224-.02.235s-.11-.061-.1-.255a.51.51,0,0,1,.134-.313.6.6,0,0,1,.42-.185,1.129,1.129,0,0,1,.939.576,2.726,2.726,0,0,1,.475,1.225,2.082,2.082,0,0,1-.848,2.148.858.858,0,0,1-.744-.006c-.159-.09-.2-.188-.184-.2" transform="translate(-37.138 -64.352)" fill="#eb996e"/>
        <path id="Path_814" data-name="Path 814" d="M89.721,194.6c-.8-.3,1.061-3.015,2.752-4.106,2.555-1.65,6.625-3.036,9.257-2.695,3.169.411,5.921,1.549,7.858,4.09a18.12,18.12,0,0,1,3.371,8.854,5.506,5.506,0,0,1-.229,2.88c-.487,1.1-1.614,1.918-1.355,3.3a1.929,1.929,0,0,1-.266,1.462c-.7,1.011-1.846.329-2.439-.437a13.333,13.333,0,0,1-2.087-5.783,13.485,13.485,0,0,1-.355-4.377c.11-.793.362-1.564.428-2.362A2.764,2.764,0,0,0,106,193.2a2.883,2.883,0,0,0-.425-.32,4.807,4.807,0,0,0-4.849-.2c-2.432,1.29-6.614,3.3-7.887,2.6a7.1,7.1,0,0,1-2.348-1.767Z" transform="translate(-26.919 -56.449)" fill="#1c3a3e"/>
      </g>
    </g>
  </g>
</svg>
