<svg id="Group_34" data-name="Group 34" xmlns="http://www.w3.org/2000/svg" xmlns:xlink="http://www.w3.org/1999/xlink" width="355.383" height="252.842" viewBox="0 0 355.383 252.842">
  <defs>
    <clipPath id="clip-path">
      <rect id="Rectangle_118" data-name="Rectangle 118" width="355.383" height="252.842" fill="none"/>
    </clipPath>
    <clipPath id="clip-path-3">
      <rect id="Rectangle_101" data-name="Rectangle 101" width="52.985" height="18.438" fill="#efefef"/>
    </clipPath>
    <clipPath id="clip-path-4">
      <rect id="Rectangle_102" data-name="Rectangle 102" width="62.542" height="53.833" fill="none"/>
    </clipPath>
    <linearGradient id="linear-gradient" x1="0.732" y1="1" x2="0.276" gradientUnits="objectBoundingBox">
      <stop offset="0" stop-color="#8742f5"/>
      <stop offset="1" stop-color="#f5579c"/>
    </linearGradient>
    <clipPath id="clip-path-6">
      <path id="Path_546" data-name="Path 546" d="M748.256,608.58c-2.989-.731-6.468-1.182-10.068-6.488l-9.5,3.313c2.987,5.952,2.116,12.543,9.277,13.6,4.993.942,14.861,2.872,22.238-2.284a46.713,46.713,0,0,0,7.624-7.076l-5.454-7.749,2.727,3.875-2.719-3.88c-2.84,2.048-7.539,8.294-14.123,6.687" transform="translate(-728.687 -601.893)" fill="none"/>
    </clipPath>
    <linearGradient id="linear-gradient-2" x1="-3.955" y1="6.254" x2="-3.949" y2="6.254" gradientUnits="objectBoundingBox">
      <stop offset="0" stop-color="#f5579c"/>
      <stop offset="1" stop-color="#8742f5"/>
    </linearGradient>
    <clipPath id="clip-path-8">
      <path id="Path_552" data-name="Path 552" d="M630.488,566.2c-13.131.071-14.911,7.071-14.911,7.071-4.112,10.7-2.464,37.809-2.464,37.809,24.829-6.23,36.309-1.474,36.309-1.474-1.747-26.164-.008-43.407-18.768-43.407h-.167" transform="translate(-612.788 -566.204)" fill="none"/>
    </clipPath>
    <linearGradient id="linear-gradient-3" x1="-3.394" y1="2.954" x2="-3.389" y2="2.954" xlink:href="#linear-gradient-2"/>
    <clipPath id="clip-path-9">
      <path id="Path_553" data-name="Path 553" d="M620.262,566.081c-11.438,1.279-17.158,5.977-17.158,5.977l8.576,4.709s19.188,4.2,24.172,3.386,5.944-2.836,5.944-2.836-5.31-9.571-14.334-11.027c-.848-.138-1.727-.239-2.639-.3q-.906-.057-1.811-.059a24.747,24.747,0,0,0-2.751.149" transform="translate(-603.104 -565.932)" fill="none"/>
    </clipPath>
    <linearGradient id="linear-gradient-4" x1="-3.311" y1="8.822" x2="-3.305" y2="8.822" xlink:href="#linear-gradient-2"/>
    <clipPath id="clip-path-11">
      <path id="Path_580" data-name="Path 580" d="M563.284,594.25s-4.333,2.545-8.549,19.258-1.048,17.017-1.048,17.017,5.687.109,7.516-.539,2.807-15.624,6.455-21.715c3.4-5.676,4.763-14.161-2.612-14.161a11.908,11.908,0,0,0-1.761.141" transform="translate(-552.545 -594.109)" fill="none"/>
    </clipPath>
    <linearGradient id="linear-gradient-5" x1="-5.266" y1="3.468" x2="-5.257" y2="3.468" xlink:href="#linear-gradient-2"/>
  </defs>
  <g id="Group_33" data-name="Group 33" clip-path="url(#clip-path)">
    <path id="Path_504" data-name="Path 504" d="M1088.053,392.388l-1.324,84.086-5.764,45.268-12.726-.133-4.3-.047-20.429-.219-1.723-27.6-2.45-96.409Z" transform="translate(-818.578 -309.043)" fill="#ebebeb"/>
    <path id="Path_505" data-name="Path 505" d="M1375.924,543.722h-9.659l-27.69-.261.4-38.116.949-85.674,32.671,7.816,2.175,77.858Z" transform="translate(-1054.256 -330.532)" fill="#ebebeb"/>
    <path id="Path_506" data-name="Path 506" d="M825.57,640.712v67.134l-17.327-.223-34.677-.439-2.481-77.738Z" transform="translate(-607.303 -495.748)" fill="#c9c9c9"/>
    <path id="Path_507" data-name="Path 507" d="M728.959,436.43l-14.092-.171-13.749-.168-6.249-.076.352-43.321.867-107.271,29.857,11.771,1.988,95.5Z" transform="translate(-547.276 -224.798)" fill="#ebebeb"/>
    <path id="Path_508" data-name="Path 508" d="M906.584,419.672l0,.262-.869,122.593-1.471-.02L896.3,542.4l-5.079-.069-8.331-.113.586-53.574.672-61.852Z" transform="translate(-695.358 -330.532)" fill="#ebebeb"/>
    <path id="Path_509" data-name="Path 509" d="M1428.089,519.445l-3.375-.48-.184-6.617,3.56-.242Z" transform="translate(-1121.952 -403.333)" fill="#fff"/>
    <path id="Path_510" data-name="Path 510" d="M1377.475,462.637l-3.375-.48-.184-6.617,3.559-.242Z" transform="translate(-1082.089 -358.591)" fill="#fff"/>
    <path id="Path_511" data-name="Path 511" d="M1201.9,655.155l-3.375-.569-.184-7.839,3.56-.287Z" transform="translate(-943.804 -509.149)" fill="#fff"/>
    <path id="Path_512" data-name="Path 512" d="M743.026,374.033l-3.375-.569-.184-7.839,3.559-.287Z" transform="translate(-582.401 -287.739)" fill="#fff"/>
    <path id="Path_513" data-name="Path 513" d="M959.381,468.737l-3.375-.569-.184-7.839,3.56-.287Z" transform="translate(-752.801 -362.327)" fill="#fff"/>
    <path id="Path_514" data-name="Path 514" d="M1068.838,553.888l-3.375-.569-.184-7.839,3.559-.287Z" transform="translate(-839.008 -429.391)" fill="#fff"/>
    <g id="Group_10" data-name="Group 10">
      <g id="Group_9" data-name="Group 9" clip-path="url(#clip-path)">
        <path id="Path_515" data-name="Path 515" d="M355.383,987.922c0,13.286-79.555,24.057-177.691,24.057S0,1001.208,0,987.922s79.555-24.056,177.691-24.056,177.691,10.77,177.691,24.056" transform="translate(0 -759.136)" fill="#f6f6f6"/>
        <path id="Path_516" data-name="Path 516" d="M1347.456,50.986s-2.329-5.831-8.223-5.1-5.192,6.575-8,6.027-6.736,0-7.578,3.653-4.631,1.644-4.771,4.749,4.35,5.3,9.542,2.557,7.718,2.129,15.016,1.247,8.2-1.977,12.521-1.429,4.217-3.3,2.252-5.859-9.917-2.314-10.759-5.845" transform="translate(-1038.745 -36.09)" fill="#efefef"/>
        <path id="Path_517" data-name="Path 517" d="M676.694,9.018S672.626-1.164,662.333.112s-9.067,11.483-13.969,10.526-11.763,0-13.233,6.379-8.087,2.871-8.332,8.293,7.6,9.25,16.664,4.465,13.479,3.717,26.222,2.178,14.322-3.453,21.865-2.5,7.364-5.765,3.933-10.231-17.319-4.04-18.789-10.208" transform="translate(-493.66 -0.001)" fill="#efefef"/>
        <g id="Group_5" data-name="Group 5" transform="translate(190.856 36.4)" opacity="0.6">
          <g id="Group_4" data-name="Group 4">
            <g id="Group_3" data-name="Group 3" clip-path="url(#clip-path-3)">
              <path id="Path_518" data-name="Path 518" d="M935.807,176.542a10.814,10.814,0,0,0-10.722-5.11c-7.685.732-6.77,6.588-10.43,6.038s-8.783,0-9.881,3.66-6.038,1.647-6.222,4.757,5.672,5.307,12.443,2.562,10.064,2.132,19.579,1.249,10.694-1.981,16.326-1.432,5.5-3.307,2.936-5.869-12.931-2.318-14.029-5.856" transform="translate(-898.549 -171.369)" fill="#efefef"/>
            </g>
          </g>
        </g>
        <path id="Path_519" data-name="Path 519" d="M153.427,361.555l-9.382-.059c-5.62.691-10.5-4.733-10.5-11.676V182.744c0-6.913,4.836-12.327,10.436-11.683h11.605c4.906.564,75.269,14.624,75.269,20.681V340.2c0,6.028-72.551,20.76-77.43,21.36" transform="translate(-105.182 -134.686)" fill="#1c3a3e"/>
        <path id="Path_520" data-name="Path 520" d="M276.9,351.871,198.682,361.5c-5.62.691-10.5-4.733-10.5-11.676V182.744c0-6.913,4.837-12.327,10.436-11.683l78.217,9c4.906.564,8.657,5.626,8.657,11.683V340.2c0,6.028-3.716,11.076-8.6,11.676" transform="translate(-148.214 -134.686)" fill="#1c3a3e"/>
        <path id="Path_521" data-name="Path 521" d="M305.461,211.784V346.089c0,5.454-3.281,10.021-7.593,10.564L258.627,361.6l-29.845,3.762c-4.964.625-9.273-4.282-9.273-10.564V203.642c0-6.255,4.272-11.153,9.218-10.571l53.323,6.285,15.765,1.857c3.736.44,6.713,3.908,7.462,8.37a13.138,13.138,0,0,1,.183,2.2" transform="translate(-172.884 -152.025)" fill="#fafafa"/>
        <path id="Path_522" data-name="Path 522" d="M327.6,377.548V477.636c0,4.065-2.8,7.468-6.47,7.873L287.7,489.194,262.264,492c-4.23.466-7.9-3.191-7.9-7.873V371.48c0-4.661,3.64-8.311,7.855-7.878l45.438,4.684,13.434,1.384a7.475,7.475,0,0,1,6.359,6.237,8.587,8.587,0,0,1,.156,1.64" transform="translate(-200.334 -286.344)" fill="#dfcbff"/>
        <path id="Path_523" data-name="Path 523" d="M197.368,361.3a8.478,8.478,0,0,1-5.629-2.228,12.887,12.887,0,0,1-4.01-9.6V182.388a12.9,12.9,0,0,1,3.98-9.577,8.368,8.368,0,0,1,6.564-2.2l-.022.192a8.177,8.177,0,0,0-6.413,2.154,12.709,12.709,0,0,0-3.915,9.433V349.464a12.692,12.692,0,0,0,3.944,9.459,8.163,8.163,0,0,0,6.445,2.122l.024.192a7.907,7.907,0,0,1-.967.059" transform="translate(-147.854 -134.33)" fill="#1c3a3e"/>
        <g id="Group_8" data-name="Group 8" transform="translate(46.625 40.999)" opacity="0.3">
          <g id="Group_7" data-name="Group 7">
            <g id="Group_6" data-name="Group 6" clip-path="url(#clip-path-4)">
              <path id="Path_524" data-name="Path 524" d="M282.052,199.356l-62.542,47.5V203.642c0-6.255,4.272-11.153,9.218-10.571Z" transform="translate(-219.51 -193.024)" fill="#fff"/>
            </g>
          </g>
        </g>
        <path id="Path_525" data-name="Path 525" d="M351.052,700.141l-3.769.416c1.08-14.553,4.921-27.954,10.607-38.479a63.877,63.877,0,0,1,17.93-21.019c12.493-9.349,24.472-10.973,24.967-11.03v3.579c-.114.013-11.33,1.344-23.115,10.218a60.635,60.635,0,0,0-16.914,19.939c-5.428,10.089-8.665,22.344-9.706,36.377" transform="translate(-273.518 -496.207)" fill="#fff"/>
        <path id="Path_526" data-name="Path 526" d="M297.779,599.77c-.112-.168-11.24-16.864-16.121-21.062-7.764-6.677-27.1-5.146-27.3-5.13v-3.348c.844-.07,20.644-1.628,29.464,5.957,5.227,4.5,16.255,21.04,16.722,21.742Z" transform="translate(-200.334 -448.97)" fill="#fff"/>
        <rect id="Rectangle_103" data-name="Rectangle 103" width="3.325" height="21.727" transform="translate(105.138 120.034) rotate(-25.442)" fill="#fff"/>
        <path id="Path_527" data-name="Path 527" d="M254.362,773.128V769.8l31.645-1.334.14,3.322Z" transform="translate(-200.334 -605.24)" fill="#fff"/>
        <path id="Path_528" data-name="Path 528" d="M508.954,729.312l-3.353.37.105-57.967h3.325Z" transform="translate(-398.208 -529.039)" fill="#fff"/>
        <rect id="Rectangle_104" data-name="Rectangle 104" width="30.153" height="3.325" transform="matrix(0.999, -0.039, 0.039, 0.999, 78.965, 182.466)" fill="#fff"/>
        <rect id="Rectangle_105" data-name="Rectangle 105" width="3.325" height="42.994" transform="translate(63.486 122.761)" fill="#fff"/>
        <path id="Path_529" data-name="Path 529" d="M257.933,416.7c-2.184,0-3.443.005-3.571,0v-3.379c.3.012,29.83,1.082,45.75-7.737a14.7,14.7,0,0,0,7.776-12.273,22.719,22.719,0,0,0-.676-7.757l3.18-.973a25.974,25.974,0,0,1,.809,9.024,18.083,18.083,0,0,1-9.478,14.888c-7.057,3.91-17.2,6.468-30.134,7.606-5.637.5-10.526.6-13.656.6" transform="translate(-200.334 -302.898)" fill="#fff"/>
        <path id="Path_530" data-name="Path 530" d="M379.092,404.119l-3.324-.075.667-31.286,3.48.359Z" transform="translate(-295.953 -293.582)" fill="#fff"/>
        <path id="Path_531" data-name="Path 531" d="M390.737,538.613l-3.243-3.628,44.963-17.527v5.13Z" transform="translate(-305.189 -407.547)" fill="#fff"/>
        <path id="Path_532" data-name="Path 532" d="M497.728,370.845c-5.621.336-8.374,4.576-8.76,10.2-.385,5.569,5.621,13.688,8.587,17.33a2.081,2.081,0,0,0,3.221.016c2.876-3.486,8.579-11.08,8.579-16.509a11.031,11.031,0,0,0-11.627-11.039m.713,16.706a5.619,5.619,0,0,1-5.662-5.692c0-3.248,1.368-5.577,6.031-6.372,3.991-.681,5.9,2.952,6.154,6.192.3,3.928-2.073,6.061-6.523,5.872" transform="translate(-385.095 -292.059)" fill="#8742f5"/>
        <path id="Path_533" data-name="Path 533" d="M490.132,490.508l-8.878-13.895,3.695-2.389,9.2,14.713Z" transform="translate(-379.033 -373.497)" fill="#fff"/>
        <path id="Path_534" data-name="Path 534" d="M425.985,652.194a.83.83,0,0,1-.668-.336l-.661-.89a.831.831,0,1,1,1.335-.991l.661.89a.832.832,0,0,1-.667,1.327" transform="translate(-334.328 -511.654)" fill="#8742f5"/>
        <path id="Path_535" data-name="Path 535" d="M404.909,623.81a.831.831,0,0,1-.668-.336l-1.29-1.737a.831.831,0,1,1,1.335-.991l1.29,1.737a.831.831,0,0,1-.667,1.327m-2.579-3.473a.83.83,0,0,1-.668-.336l-1.29-1.737a.831.831,0,0,1,1.335-.991L403,619.01a.831.831,0,0,1-.667,1.327" transform="translate(-315.202 -485.898)" fill="#8742f5"/>
        <path id="Path_536" data-name="Path 536" d="M392.519,605.65a.83.83,0,0,1-.668-.336l-.661-.89a.831.831,0,0,1,.369-1.271l1.035-.4a.831.831,0,1,1,.6,1.552l-.013.005.008.011a.832.832,0,0,1-.667,1.327" transform="translate(-307.97 -474.683)" fill="#8742f5"/>
        <path id="Path_537" data-name="Path 537" d="M406.9,566.537a.831.831,0,0,1-.3-1.607l2.162-.831a.831.831,0,1,1,.6,1.552l-2.162.831a.827.827,0,0,1-.3.056m4.323-1.663a.831.831,0,0,1-.3-1.607l2.162-.831a.831.831,0,0,1,.6,1.552l-2.162.831a.833.833,0,0,1-.3.055m4.324-1.663a.831.831,0,0,1-.3-1.607l2.162-.831a.831.831,0,1,1,.6,1.552l-2.162.831a.826.826,0,0,1-.3.056m4.323-1.663a.831.831,0,0,1-.3-1.607l2.162-.832a.831.831,0,0,1,.6,1.552l-2.162.831a.828.828,0,0,1-.3.056m4.324-1.663a.831.831,0,0,1-.3-1.607l2.162-.831a.831.831,0,1,1,.6,1.552l-2.162.832a.831.831,0,0,1-.3.055m4.323-1.663a.831.831,0,0,1-.3-1.607l2.162-.831a.831.831,0,1,1,.6,1.552l-2.162.831a.829.829,0,0,1-.3.056" transform="translate(-319.82 -437.69)" fill="#8742f5"/>
        <path id="Path_538" data-name="Path 538" d="M529.03,548.533a.831.831,0,0,1-.3-1.607l.088-.034-.05-.079a.831.831,0,1,1,1.4-.89l.594.936a.831.831,0,0,1-.4,1.221l-1.035.4a.828.828,0,0,1-.3.056" transform="translate(-416.006 -429.662)" fill="#8742f5"/>
        <path id="Path_539" data-name="Path 539" d="M509.955,513.839a.831.831,0,0,1-.7-.386l-1.336-2.107a.831.831,0,1,1,1.4-.89l1.336,2.107a.832.832,0,0,1-.7,1.276m-2.672-4.214a.831.831,0,0,1-.7-.386l-1.336-2.107a.831.831,0,0,1,1.4-.89l1.336,2.107a.832.832,0,0,1-.7,1.277" transform="translate(-397.826 -398.409)" fill="#8742f5"/>
        <path id="Path_540" data-name="Path 540" d="M497.455,494.127a.831.831,0,0,1-.7-.386l-.593-.936a.831.831,0,0,1,1.4-.89l.594.936a.832.832,0,0,1-.7,1.277" transform="translate(-390.67 -387.125)" fill="#8742f5"/>
        <path id="Path_541" data-name="Path 541" d="M486.353,477.155a1.414,1.414,0,1,1,1.414,1.414,1.414,1.414,0,0,1-1.414-1.414" transform="translate(-383.049 -374.691)" fill="#1c3a3e"/>
        <path id="Path_542" data-name="Path 542" d="M434.027,663.666a1.148,1.148,0,1,1,1.148,1.148,1.148,1.148,0,0,1-1.148-1.148" transform="translate(-341.838 -521.796)" fill="#1c3a3e"/>
        <path id="Path_543" data-name="Path 543" d="M1052.822,226.785h-.044a6.727,6.727,0,0,1-5.21-2.507,194.513,194.513,0,0,1-17.473-24.981c-6.887-12-10.109-21.964-9.579-29.622.628-9.161,3.272-16.9,7.647-22.385,4.824-6.047,11.591-9.37,20.111-9.88a34.482,34.482,0,0,1,14.266,2.076,33.506,33.506,0,0,1,11.246,7.038,36.144,36.144,0,0,1,11.292,25.795c0,7.472-3.408,17.007-10.129,28.34a194.923,194.923,0,0,1-16.9,23.673,6.764,6.764,0,0,1-5.226,2.453m-4.522-88.919c-8.386.5-15.041,3.768-19.781,9.709-4.317,5.411-6.927,13.064-7.549,22.131-.524,7.566,2.679,17.445,9.52,29.363a194.051,194.051,0,0,0,17.432,24.921,6.274,6.274,0,0,0,4.859,2.338h.041a6.307,6.307,0,0,0,4.874-2.288,194.407,194.407,0,0,0,16.859-23.614c6.679-11.261,10.066-20.718,10.066-28.107a35.679,35.679,0,0,0-11.149-25.462,33.046,33.046,0,0,0-11.093-6.942,34.025,34.025,0,0,0-14.078-2.048m3.874,52.521q-.814,0-1.656-.036a19.266,19.266,0,0,1-12.879-5.335,17.77,17.77,0,0,1-5.143-12.775c0-11.743,5.907-17.987,19.153-20.245a14.414,14.414,0,0,1,11.746,2.685c4.361,3.4,7.3,9.743,7.871,16.975.447,5.787-.91,10.361-4.034,13.595-3.258,3.374-8.441,5.136-15.057,5.136m2.5-38.2a17.56,17.56,0,0,0-2.95.259c-6.965,1.187-11.82,3.491-14.844,7.044-2.644,3.107-3.93,7.278-3.93,12.751a17.317,17.317,0,0,0,5.008,12.45,18.813,18.813,0,0,0,12.577,5.2h0c7.274.308,12.933-1.407,16.365-4.961,3.029-3.136,4.343-7.591,3.906-13.242-.557-7.106-3.434-13.331-7.7-16.65a13.382,13.382,0,0,0-8.438-2.854" transform="translate(-803.708 -108.171)" fill="#1c3a3e"/>
      </g>
    </g>
    <g id="Group_12" data-name="Group 12" transform="translate(221.788 29.401)">
      <path id="Path_544" data-name="Path 544" d="M1074.017,190.971c-10.2-.412-17.8-7.678-17.8-17.882s4.3-17.521,18.963-20.02c12.548-2.139,18.552,9.276,19.35,19.453.915,11.838-5.923,18.484-18.829,18.485q-.824,0-1.68-.036m-2.241-52.485c-17.676,1.056-26.333,14.378-27.544,32.053-1.211,17.5,17.676,43,27,54.444a6.547,6.547,0,0,0,10.126.051c9.044-10.95,26.977-34.81,26.977-51.867,0-17.1-13.63-34.747-34.342-34.748q-1.1,0-2.22.067" transform="translate(-1044.176 -138.419)" fill="url(#linear-gradient)"/>
    </g>
    <g id="Group_14" data-name="Group 14">
      <g id="Group_13" data-name="Group 13" clip-path="url(#clip-path)">
        <path id="Path_545" data-name="Path 545" d="M548.741,780.013a19.977,19.977,0,0,1,1.735-4.266s5.9.034,6.185.552c.659,1.2,1.424,3.844,2.06,5.052.276.524,1.081,2.348.6,2.689-.422.3-1.753-.851-2.32-1.472-.487,3.868-2.938,9.294-2.508,1.113h-.013c-.12.823-.789,5.4-1.829,4.811-.918-.523-.575-3.821-.392-5.177l-.037-.009c-.306,1.362-1.131,4.631-1.842,3.854-.892-.976-.6-4.6-.6-4.6s-.471,4.623-1.639,3.623c-.8-.682.171-4.373.446-5.672a2.206,2.206,0,0,1,.164-.495" transform="translate(-431.462 -610.975)" fill="#fcbdb6"/>
      </g>
    </g>
    <g id="Group_16" data-name="Group 16" transform="translate(154.777 127.845)">
      <g id="Group_15" data-name="Group 15" clip-path="url(#clip-path-6)">
        <rect id="Rectangle_109" data-name="Rectangle 109" width="39.138" height="19.986" transform="translate(0 0)" fill="url(#linear-gradient-2)"/>
      </g>
    </g>
    <g id="Group_18" data-name="Group 18">
      <g id="Group_17" data-name="Group 17" clip-path="url(#clip-path)">
        <path id="Path_547" data-name="Path 547" d="M852.186,615.135s3.1-4.585,6.254-6,5.151-.241,5.151-.241l3.383-1.341s.485,12.736-8.307,10.492c-.694-.177-6.481-2.914-6.481-2.914" transform="translate(-671.178 -478.509)" fill="#fcbdb6"/>
        <path id="Path_548" data-name="Path 548" d="M859.2,561.384l-3.232,18.461a2.193,2.193,0,0,1-2.6,1.762l-8.658-1.741a2.178,2.178,0,0,1-1.726-2.507l3.185-18.193a2.192,2.192,0,0,1,2.53-1.774l8.705,1.472a2.179,2.179,0,0,1,1.793,2.519" transform="translate(-663.907 -438.975)" fill="#1c3a3e"/>
        <path id="Path_549" data-name="Path 549" d="M906.231,571.859a.922.922,0,1,0-.9.94.919.919,0,0,0,.9-.94" transform="translate(-712.291 -449.693)" fill="#fff"/>
        <path id="Path_550" data-name="Path 550" d="M894.372,594.489s1.139-2.48-1.149-3.5c-2.915-1.294-7.8-.133-5.962.712a23.5,23.5,0,0,0,4.2,1.264s-6.55-1.219-6.34.217,5.857,2.408,5.857,2.408-6.49-.59-5.849.7,5.763,2.207,5.763,2.207-6.311-.915-5.531.569,4.14,1.3,5.582,1.547c1.362.232,1.954-.565,2.085-1.885a3.805,3.805,0,0,0,.766-2.123c-.051-.339.311-.605.38-.836a8.48,8.48,0,0,0,.2-1.29" transform="translate(-697.085 -465.007)" fill="#fcbdb6"/>
        <path id="Path_551" data-name="Path 551" d="M614.324,765.079c.034,1.335,8.172,1.866,18.236,1.554s18.107-1.693,18.073-3.029-8.133-2.119-18.2-1.808-18.146,1.946-18.112,3.282" transform="translate(-483.838 -599.934)" fill="#1c3a3e"/>
      </g>
    </g>
    <g id="Group_20" data-name="Group 20" transform="translate(130.159 120.264)">
      <g id="Group_19" data-name="Group 19" clip-path="url(#clip-path-8)">
        <rect id="Rectangle_111" data-name="Rectangle 111" width="37.958" height="44.881" transform="translate(-1.322 -0.001)" fill="url(#linear-gradient-3)"/>
      </g>
    </g>
    <g id="Group_22" data-name="Group 22" transform="translate(128.102 120.207)">
      <g id="Group_21" data-name="Group 21" clip-path="url(#clip-path-9)">
        <rect id="Rectangle_112" data-name="Rectangle 112" width="38.693" height="15.035" transform="translate(0 0)" fill="url(#linear-gradient-4)"/>
      </g>
    </g>
    <g id="Group_24" data-name="Group 24">
      <g id="Group_23" data-name="Group 23" clip-path="url(#clip-path)">
        <path id="Path_554" data-name="Path 554" d="M678.512,523.315l.991-3.175.288-.924,1.7-5.434.223,5.406.133,3.245.042,1.027c.029.7.457.844.978,1.45.211.246,1.562,1.734.029,2.406-1.91.838-5.482-.431-6.839-2.092.011,0,2.137-.882,2.457-1.908" transform="translate(-532.458 -404.652)" fill="#fcbdb6"/>
        <path id="Path_555" data-name="Path 555" d="M563.687,639.986c.789-8.626,2.6-20.958,6.746-30.724a29.433,29.433,0,0,1,2.11-4.348c.6-.994-.477-3.18-2.18-4.222-1.6-.978-4.086-.818-4.48-.334a26.028,26.028,0,0,0-2.5,4.905c-3.863,8.7-6.177,19.944-7.115,34.438Z" transform="translate(-438.118 -472.537)" fill="#fcbdb6"/>
        <path id="Path_556" data-name="Path 556" d="M714.637,504.175a7.085,7.085,0,0,1,0,2.965c-.346,1.649-2.036-2.4-2.036-2.4Z" transform="translate(-561.241 -397.086)" fill="#5c305d"/>
        <path id="Path_557" data-name="Path 557" d="M687.125,501.166c-.422-3.189-2.924-5.492-5.589-5.145s-4.483,3.214-4.061,6.4,2.924,5.492,5.589,5.145,4.483-3.214,4.061-6.4" transform="translate(-533.528 -390.636)" fill="#fcbdb6"/>
        <path id="Path_558" data-name="Path 558" d="M697.205,521.478a.1.1,0,0,0-.044-.18,1.07,1.07,0,0,0-1.137.642.1.1,0,0,0,.044.131.109.109,0,0,0,.132-.044,1.692,1.692,0,0,1,.944-.534.1.1,0,0,0,.061-.015" transform="translate(-548.177 -410.564)" fill="#1c3a3e"/>
        <path id="Path_559" data-name="Path 559" d="M699.533,526.252c.062.225.246.372.411.327a.378.378,0,0,0,.186-.489c-.062-.225-.246-.372-.411-.327a.379.379,0,0,0-.186.489" transform="translate(-550.933 -414.082)" fill="#1c3a3e"/>
        <path id="Path_560" data-name="Path 560" d="M715.044,519.519a.072.072,0,0,0,.053-.049.117.117,0,0,0-.038-.132.7.7,0,0,0-1.006.113.116.116,0,0,0,0,.137.073.073,0,0,0,.109.015,1.042,1.042,0,0,1,.835-.1.066.066,0,0,0,.048.011" transform="translate(-562.366 -408.896)" fill="#1c3a3e"/>
        <path id="Path_561" data-name="Path 561" d="M714.552,524.116c-.029.232.085.437.254.458s.33-.15.36-.381-.085-.437-.254-.458-.33.15-.36.382" transform="translate(-562.774 -412.49)" fill="#1c3a3e"/>
        <path id="Path_562" data-name="Path 562" d="M662.44,516.655s1.626,3.484,3.933,3.739c0,0-1.865-2.655,2.066-4.273,0,0-3.61-.564-6,.534" transform="translate(-521.735 -406.381)" fill="#1c3a3e"/>
        <path id="Path_563" data-name="Path 563" d="M675.822,521.678a1.012,1.012,0,0,0,1.4-.228,1,1,0,0,0-.385-1.356,1.012,1.012,0,0,0-1.4.228,1,1,0,0,0,.386,1.356" transform="translate(-531.865 -409.481)" fill="#fcbdb6"/>
        <path id="Path_564" data-name="Path 564" d="M684.264,516.658s-.315,2.924.285,3.476,4.559.79,6.406.082a3.826,3.826,0,0,1-3.169,3.846,5.639,5.639,0,0,1-1.89-.006,3.852,3.852,0,0,1-3.084-1.946,11.049,11.049,0,0,1,.31-2.591,2.508,2.508,0,0,0-.59-1.989,3.766,3.766,0,0,1,1.732-.872" transform="translate(-537.559 -406.917)" fill="#1c3a3e"/>
        <path id="Path_565" data-name="Path 565" d="M667.391,492.97s-.325-2.044,1.29-2.19,3.457-.415,4.09,0a6.763,6.763,0,0,1,1.39,2.045s.886-3.065-.737-4.376-6.8-3.037-10.1-.753a4.973,4.973,0,0,0-1.931,5.808,19.367,19.367,0,0,1,6-.534" transform="translate(-520.686 -383.23)" fill="#1c3a3e"/>
        <path id="Path_566" data-name="Path 566" d="M672.854,475.12s-2.435-2-1.884-3.471,3.128-1.008,4.124-.778,1.165,2,.365,3.135a3.458,3.458,0,0,1-2.6,1.114" transform="translate(-528.389 -370.654)" fill="#1c3a3e"/>
        <path id="Path_567" data-name="Path 567" d="M686.267,1080.32a3.048,3.048,0,0,1,2.826,1.549,2.55,2.55,0,0,0,1.234,1.145c1.758.727,6.85,1.383,4.947,3.041-1.092.951-6.238.336-7.691.336s-2.817.628-3.9-.337c-.647-.578-.589-2.408-.4-3.955a2.05,2.05,0,0,1,2.273-1.8,3.364,3.364,0,0,0,.511.028c.068,0,.134,0,.2-.008" transform="translate(-538.053 -850.826)" fill="#1c3a3e"/>
        <path id="Path_568" data-name="Path 568" d="M593.474,1077.574s.065,2.578,1.823,3.305,6.85,1.383,4.947,3.041c-1.092.951-6.238.337-7.691.337s-2.817.628-3.9-.337c-1.188-1.061,0-6.345,0-6.345a5.835,5.835,0,0,0,2.381.619,4.65,4.65,0,0,0,2.436-.619" transform="translate(-463.208 -848.692)" fill="#1c3a3e"/>
        <path id="Path_569" data-name="Path 569" d="M671.035,770.369a1.706,1.706,0,0,1,1.52,1.487c.191,1.569.222,4.884-.725,11.762-1.392,10.1-6.655,46.977-7.529,51.891-.313,1.758-.671,2.84-3.238,3.211l-3.41-.067c-2.776.4-3.845-2.557-3.865-4.448l2.233-56.8-8.874-6.719a125.757,125.757,0,0,1,14.15-.836,96.543,96.543,0,0,1,9.74.52" transform="translate(-509.688 -606.329)" fill="#f5579c"/>
        <path id="Path_570" data-name="Path 570" d="M605.041,774.226l-19.559,62.353a6.3,6.3,0,0,1-5.884,4.445l-1.176.02a4.439,4.439,0,0,1-4.391-5.272l10.7-58.589c.155-.7.553-3.774,1.23-3.968,3.669-1.05,19.441-1.567,19.081,1.012" transform="translate(-452.044 -608.302)" fill="#f5579c"/>
        <path id="Path_571" data-name="Path 571" d="M677.992,839.407l-.311-.1,4.206-12.69a12.38,12.38,0,0,1,5.627-6.887l.162.285a12.05,12.05,0,0,0-5.478,6.706Z" transform="translate(-533.738 -645.612)" fill="#333"/>
        <path id="Path_572" data-name="Path 572" d="M653.423,555.218s-2.041-1.871.413-2.531c.97-.261,2.417-2.639,3.767-2.434s2.146,7.747,7.562,10.079c0,0,1.334,1.153-.837,1.1s-10.9-6.216-10.9-6.216" transform="translate(-514.006 -433.367)" fill="#f5579c"/>
        <path id="Path_573" data-name="Path 573" d="M711.581,564.805s2.711-2.646,2.237-5.115.905-4.581,1.577-3.465,1.448.422,1.6,1.82-1.939,8.271-3.838,8.271-1.578-1.512-1.578-1.512" transform="translate(-560.421 -437.84)" fill="#f5579c"/>
        <path id="Path_574" data-name="Path 574" d="M703.722,600.2a2.083,2.083,0,0,0-1.1,2.633c.649,1.851-.259,2.6-.259,2.6a2.247,2.247,0,0,0,2.38-1.881,4.423,4.423,0,0,0-1.018-3.351" transform="translate(-553.176 -472.716)" fill="#f5579c"/>
        <path id="Path_575" data-name="Path 575" d="M710.914,600.2s2.225.752,2.32,2.188-1.179,1.778-1.627.923-1.378-2.529-1.378-2.529Z" transform="translate(-559.373 -472.716)" fill="#f5579c"/>
        <path id="Path_576" data-name="Path 576" d="M683.849,535.3a4.405,4.405,0,0,0,1.452,3.139c1.437,1.129.486,2.112,1.75,3.715s-.24,1.639,2,2.8,3.927.109,3.487-1.675,1.5-1.311.587-3.569-1.585-.874-.811-3.278-.32-3.03-.32-3.03-1.237.084-2.237.262-1.9-.134-2.6.087-3.311,1.545-3.311,1.545" transform="translate(-538.596 -420.11)" fill="#1c3a3e"/>
        <path id="Path_577" data-name="Path 577" d="M705.826,538.374a10.061,10.061,0,0,1-3.174.248,1.529,1.529,0,0,0,1.92,1.22c.976-.176,1.254-1.468,1.254-1.468" transform="translate(-553.405 -424.021)" fill="#fff"/>
        <path id="Path_578" data-name="Path 578" d="M554.535,772.353s5.112.544,7.76,0c0,0,.344,1.351-.209,1.968,0,0-6.125.46-7.551,0a1.31,1.31,0,0,1,0-1.968" transform="translate(-436.38 -608.302)" fill="#1c3a3e"/>
        <path id="Path_579" data-name="Path 579" d="M564.779,772.047h-.1a1.834,1.834,0,0,1-1.829-1.829v-.345a1.834,1.834,0,0,1,1.829-1.828h.1a1.834,1.834,0,0,1,1.829,1.828v.345a1.834,1.834,0,0,1-1.829,1.829" transform="translate(-443.302 -604.909)" fill="#f5579c"/>
      </g>
    </g>
    <g id="Group_26" data-name="Group 26" transform="translate(117.363 126.192)">
      <g id="Group_25" data-name="Group 25" clip-path="url(#clip-path-11)">
        <rect id="Rectangle_114" data-name="Rectangle 114" width="21.901" height="36.524" transform="translate(-2.026)" fill="url(#linear-gradient-5)"/>
      </g>
    </g>
    <g id="Group_28" data-name="Group 28">
      <g id="Group_27" data-name="Group 27" clip-path="url(#clip-path)">
        <path id="Path_581" data-name="Path 581" d="M713.725,648.736a.646.646,0,1,1,.646.641.643.643,0,0,1-.646-.641" transform="translate(-562.126 -510.436)" fill="#5c305d"/>
        <path id="Path_582" data-name="Path 582" d="M713.725,685.489a.646.646,0,1,1,.646.641.643.643,0,0,1-.646-.641" transform="translate(-562.126 -539.383)" fill="#5c305d"/>
        <path id="Path_583" data-name="Path 583" d="M713.725,729.053a.646.646,0,1,1,.646.641.643.643,0,0,1-.646-.641" transform="translate(-562.126 -573.694)" fill="#5c305d"/>
        <path id="Path_584" data-name="Path 584" d="M612.353,651.159l-.32-.077a67.756,67.756,0,0,1,3.394-10.149l.3.132a67.442,67.442,0,0,0-3.374,10.094" transform="translate(-482.034 -504.796)" fill="#5c305d"/>
        <path id="Path_585" data-name="Path 585" d="M767.267,634.918c-.36-5.815-3.272-13.285-3.3-13.36l.306-.119c.031.074,2.96,7.592,3.323,13.456Z" transform="translate(-601.696 -489.443)" fill="#5c305d"/>
        <path id="Path_586" data-name="Path 586" d="M1476.524,927.973s-10.32.323-11.591-1.985c-4.677-8.488.184-28.171,5.707-33.1s9.608,3.668,9.608,3.668Z" transform="translate(-1152.293 -702.037)" fill="#1c3a3e"/>
        <path id="Path_587" data-name="Path 587" d="M1516.676,910.483s-1.887-6.931-6.081-4.765-3.984,33.1,1.048,33.227,7.129-18.716,5.032-28.462" transform="translate(-1187.413 -713.009)" fill="#24555e"/>
        <path id="Path_588" data-name="Path 588" d="M1523.182,927.117s-1.147-5.373-3.7-3.694-2.421,25.662.637,25.76,4.333-14.51,3.059-22.066" transform="translate(-1195.328 -727.027)" fill="#e1e1e1"/>
        <path id="Path_589" data-name="Path 589" d="M1266.152,933.325s-13.8.922-15.228-2.055c-4.523-9.45-9-35.16,6.912-43.5,13.775-7.22,17.512,11.055,17.512,11.055Z" transform="translate(-981.885 -697.871)" fill="#1c3a3e"/>
        <path id="Path_590" data-name="Path 590" d="M1325.323,919.552s-2.5-8.547-8.067-5.876-5.286,40.821,1.391,40.977,9.458-23.082,6.676-35.1" transform="translate(-1034.38 -719.2)" fill="#24555e"/>
        <path id="Path_591" data-name="Path 591" d="M1333.955,940.066s-1.521-6.626-4.9-4.556-3.212,31.648.845,31.768,5.749-17.894,4.058-27.213" transform="translate(-1044.881 -736.488)" fill="#e1e1e1"/>
        <path id="Path_592" data-name="Path 592" d="M1337.568,985.182l-.176-.325c1.527-.83,2.781-4.809,3.355-10.646a62.37,62.37,0,0,0-.378-15.856l.363-.066c1.527,8.416.54,24.88-3.164,26.892" transform="translate(-1053.324 -754.745)" fill="#1c3a3e"/>
        <path id="Path_593" data-name="Path 593" d="M870.339,919.376a11.9,11.9,0,0,0-1.737-3.137h0s-5.421-9.133-12.747-3.9-4.734,33.195-3.156,35.693,10.963,1.594,10.963,1.594c6.677.134,9.458-19.893,6.677-30.252" transform="translate(-670.192 -717.28)" fill="#1c3a3e"/>
      </g>
    </g>
    <g id="Group_30" data-name="Group 30" transform="translate(172.108 130.701)">
      <path id="Path_594" data-name="Path 594" d="M856.062,620.474c-9.591,5.338-21.945,25.82-21.945,25.82s-22.758,9.428-20.807,31.048c0,0-2.113.325-2.926,4.552s3.414,24.058,6.5,24.546,92.007,3.089,94.283,1.788,4.552-4.389,4.389-11.867,1.892-23.054,8.453-22.393c5.61.564,6.955,19.093,5.61,30.767-.667,5.789,7.557-2.359,14.71-3.009s11.842.429,12.168-3.635-.718-21.416,5.47-21.687c5.846-.255,6.276,11.722,6.276,11.722.65-.813,1.445-10.055-.343-14.158s.813-20.847-3.414-23.285-1.138-27.635-25.359-32.511c-9.727-1.958-23.495-2.833-37.107-2.833-20.281,0-40.221,1.942-45.96,5.136" transform="translate(-810.282 -615.338)" fill="url(#linear-gradient)"/>
    </g>
    <g id="Group_32" data-name="Group 32">
      <g id="Group_31" data-name="Group 31" clip-path="url(#clip-path)">
        <path id="Path_595" data-name="Path 595" d="M944.7,876.549H910.6a5.56,5.56,0,0,1-3.957-1.639l-.692-.692a5.191,5.191,0,0,0-3.7-1.531h-3.128v-.369h3.128a5.558,5.558,0,0,1,3.956,1.639l.692.692a5.192,5.192,0,0,0,3.7,1.53h34.1a5.241,5.241,0,0,0,2.512-.643l4.614-2.529a5.609,5.609,0,0,1,2.69-.689h4.57v.369h-4.57a5.242,5.242,0,0,0-2.512.643l-4.614,2.529a5.609,5.609,0,0,1-2.69.689" transform="translate(-708.152 -687.034)" fill="#1c3a3e"/>
        <path id="Path_596" data-name="Path 596" d="M1018.006,634.972a2.6,2.6,0,0,1,2.3,3.111,68.516,68.516,0,0,0-1.369,11.7c-.162,7.478,3.739,12.029-8.616,12.842s-79.791,1.107-79.3-1.169,17.532-23.973,22.409-25.49c4.331-1.348,52.087-2.14,64.577-.991" transform="translate(-733.265 -499.665)" fill="#1c3a3e"/>
        <path id="Path_597" data-name="Path 597" d="M848.427,982.345a4.055,4.055,0,1,1-8.074,0,4.415,4.415,0,0,1,4.443-4.172c2.454,0,3.63,2.018,3.63,4.172" transform="translate(-661.858 -770.404)" fill="#1c3a3e"/>
        <path id="Path_598" data-name="Path 598" d="M1215.4,982.345a4.055,4.055,0,1,1-8.074,0,4.415,4.415,0,0,1,4.443-4.172c2.454,0,3.63,2.018,3.63,4.172" transform="translate(-950.885 -770.404)" fill="#1c3a3e"/>
        <path id="Path_599" data-name="Path 599" d="M810.74,917.744s-.434,3.414,6.286,4.308,12.571-.731,14.2,4.8-1.626,10.729,9.1,12.192,38.157,3.089,39.723-1.3-1.685-11.7,5.143-13,22.433.325,26.172-1.788,3.9-4.714,1.626-6.5-87.131-1.625-91.926-1.625-10.324-.488-10.322,2.926" transform="translate(-638.531 -720.487)" fill="#1c3a3e"/>
        <path id="Path_600" data-name="Path 600" d="M946.48,943.732l32.848-.25a1.719,1.719,0,0,1,1.691,2.1l-.749,3.334a1.719,1.719,0,0,1-1.677,1.342H947.3a1.719,1.719,0,0,1-1.663-1.282l-.811-3.084a1.719,1.719,0,0,1,1.65-2.156" transform="translate(-744.099 -743.083)" fill="#fff"/>
        <path id="Path_601" data-name="Path 601" d="M1452.348,804.023c.4,1.427-.068,2.8-1.041,3.075s-2.084-.666-2.482-2.092.068-2.8,1.041-3.075,2.084.665,2.482,2.092" transform="translate(-1140.975 -631.56)" fill="#1c3a3e"/>
        <path id="Path_602" data-name="Path 602" d="M1516.528,796.783c.4,1.427-.068,2.8-1.041,3.075s-2.084-.666-2.482-2.092.068-2.8,1.041-3.075,2.084.665,2.482,2.092" transform="translate(-1191.523 -625.858)" fill="#1c3a3e"/>
        <path id="Path_603" data-name="Path 603" d="M1402.9,670.012s.086-12.463-6.958-17.556-17.231-7.369-19.182-5.852-2.276,21.458-.542,23.408,24.862,1.951,26.682,0" transform="translate(-1083.016 -508.897)" fill="#1c3a3e"/>
        <path id="Path_604" data-name="Path 604" d="M1395,744.193a7.874,7.874,0,0,1-1.544-8.047c1.626-5.039,14.143-1.625,15.443.894s-3.82,6.827-7.234,7.559-2.682,6.909-5.283,6.584-4.666-2.113-3.39-3.251,3.634-2.763,2.008-3.739" transform="translate(-1096.805 -577.74)" fill="#24555e"/>
        <path id="Path_605" data-name="Path 605" d="M1283.2,655.84s2.07-7.76.92-9.1-11.21-2.2-11.21-.862,3.956,2.106,5,4.646,4.709,7.8,5.293,5.318" transform="translate(-1002.539 -508.159)" fill="#24555e"/>
        <path id="Path_606" data-name="Path 606" d="M1246.227,795.2l-.34-.143c.849-2.014,2.993-4.753,6.373-8.141,2.51-2.516,4.8-4.47,4.826-4.49l.24.281c-.091.077-9.113,7.785-11.1,12.492" transform="translate(-981.255 -616.238)" fill="#1c3a3e"/>
        <path id="Path_607" data-name="Path 607" d="M865.517,787.687a.084.084,0,0,1-.029-.005.086.086,0,0,1-.052-.11c2.087-5.776,11.87-12.629,11.969-12.7a.086.086,0,1,1,.1.141,60.954,60.954,0,0,0-5.174,4.142c-2.475,2.216-5.652,5.485-6.732,8.473a.086.086,0,0,1-.081.057" transform="translate(-681.61 -610.275)" fill="#1c3a3e"/>
        <path id="Path_608" data-name="Path 608" d="M855.1,826.4c-1.811,4.234-6.711,7.667-10.945,7.667s-6.2-3.433-4.389-7.667,6.711-7.667,10.945-7.667,6.2,3.433,4.389,7.667" transform="translate(-660.867 -644.829)" fill="#ececec"/>
        <path id="Path_609" data-name="Path 609" d="M852.2,835.2a4.7,4.7,0,0,1-4.111-1.927,5.658,5.658,0,0,1-.068-5.355c1.7-3.978,6.323-7.214,10.3-7.214a6.154,6.154,0,0,1,1.774.245.086.086,0,1,1-.05.165,5.993,5.993,0,0,0-1.724-.238c-3.918,0-8.469,3.19-10.145,7.11a5.491,5.491,0,0,0,.054,5.192,4.53,4.53,0,0,0,3.967,1.85,8.59,8.59,0,0,0,2.386-.359.086.086,0,0,1,.048.166,8.763,8.763,0,0,1-2.434.366" transform="translate(-667.396 -646.383)" fill="#1c3a3e"/>
        <path id="Path_610" data-name="Path 610" d="M1193.122,826.4c-1.811,4.234-6.711,7.667-10.945,7.667s-6.2-3.433-4.389-7.667,6.711-7.667,10.946-7.667,6.2,3.433,4.389,7.667" transform="translate(-927.089 -644.829)" fill="#ececec"/>
        <path id="Path_611" data-name="Path 611" d="M1190.214,835.2a4.7,4.7,0,0,1-4.111-1.927,5.658,5.658,0,0,1-.068-5.355c1.7-3.978,6.323-7.214,10.3-7.214a6.157,6.157,0,0,1,1.774.245.086.086,0,0,1-.05.165,6,6,0,0,0-1.724-.238c-3.918,0-8.469,3.19-10.145,7.11a5.492,5.492,0,0,0,.054,5.192,4.53,4.53,0,0,0,3.967,1.85,8.588,8.588,0,0,0,2.386-.359.086.086,0,0,1,.048.166,8.761,8.761,0,0,1-2.434.366" transform="translate(-933.617 -646.383)" fill="#1c3a3e"/>
        <path id="Path_612" data-name="Path 612" d="M1485.854,860.9h-.013a.087.087,0,0,1-.073-.1,12.908,12.908,0,0,1,6.941-9.725,3.1,3.1,0,0,0,1.679-2.75v-6.416a.086.086,0,0,1,.173,0v6.416a3.271,3.271,0,0,1-1.772,2.9,12.736,12.736,0,0,0-6.85,9.6.086.086,0,0,1-.085.073" transform="translate(-1170.184 -663.017)" fill="#1c3a3e"/>
        <path id="Path_613" data-name="Path 613" d="M1478.5,785.662h-.011a.087.087,0,0,1-.075-.1c.728-5.765-1.953-15.064-1.979-15.158a.086.086,0,1,1,.165-.048c.027.094,2.718,9.427,1.985,15.227a.086.086,0,0,1-.085.075" transform="translate(-1162.833 -606.682)" fill="#1c3a3e"/>
        <path id="Path_614" data-name="Path 614" d="M1017.375,867.92c0,.578-.965,1.047-2.155,1.047s-2.155-.469-2.155-1.047.965-1.047,2.155-1.047,2.155.469,2.155,1.047" transform="translate(-797.885 -682.745)" fill="#e3eeec"/>
      </g>
    </g>
  </g>
</svg>
