<svg xmlns="http://www.w3.org/2000/svg" width="18.013" height="18.013" viewBox="0 0 18.013 18.013">
  <g id="Icon_akar-question" data-name="Icon akar-question" transform="translate(-3 -3)">
    <g id="Path_1139" data-name="Path 1139" fill="none">
      <path d="M21.013,12.007A9.007,9.007,0,1,1,12.007,3,9.007,9.007,0,0,1,21.013,12.007Z" stroke="none"/>
      <path d="M 12.00653076171875 4.700000762939453 C 7.977701187133789 4.700000762939453 4.700000762939453 7.977701187133789 4.700000762939453 12.00653076171875 C 4.700000762939453 16.03536033630371 7.977701187133789 19.31306076049805 12.00653076171875 19.31306076049805 C 16.03536033630371 19.31306076049805 19.31306076049805 16.03536033630371 19.31306076049805 12.00653076171875 C 19.31306076049805 7.977701187133789 16.03536033630371 4.700000762939453 12.00653076171875 4.700000762939453 M 12.00653076171875 3 C 16.9807014465332 3 21.0130615234375 7.032360076904297 21.0130615234375 12.00653076171875 C 21.0130615234375 16.9807014465332 16.9807014465332 21.0130615234375 12.00653076171875 21.0130615234375 C 7.032360076904297 21.0130615234375 3 16.9807014465332 3 12.00653076171875 C 3 7.032360076904297 7.032360076904297 3 12.00653076171875 3 Z" stroke="none" fill="#f5579c"/>
    </g>
    <path id="Path_1140" data-name="Path 1140" d="M15,11.837c.45-.892.9-1.337,1.8-1.337a1.768,1.768,0,0,1,1.8,1.781c0,.891-.45,1.336-1.8,2.227v1.4m0,3.152v.45" transform="translate(-4.795 -2.997)" fill="none" stroke="#f5579c" stroke-linecap="round" stroke-width="1.7"/>
  </g>
</svg>
