<svg xmlns="http://www.w3.org/2000/svg" width="20.018" height="19.699" viewBox="0 0 20.018 19.699">
  <g id="Group_96" data-name="Group 96" transform="translate(-56.491 -813.65)">
    <g id="Icon_akar-arrow-cycle" data-name="Icon akar-arrow-cycle" transform="translate(54.4 811.4)">
      <path id="Path_1104" data-name="Path 1104" d="M21.2,12.1a8.748,8.748,0,0,1-8.923,9.1c-4.006,0-7.238-2.125-8.366-5.46" fill="none" stroke="#8742f5" stroke-linecap="round" stroke-linejoin="round" stroke-width="1.5"/>
      <path id="Path_1105" data-name="Path 1105" d="M7.55,17.829l-3.64-.91L3,20.559" transform="translate(0 -1.18)" fill="none" stroke="#8742f5" stroke-linecap="round" stroke-linejoin="round" stroke-width="1.5"/>
    </g>
    <g id="Icon_akar-arrow-cycle-2" data-name="Icon akar-arrow-cycle" transform="translate(54.4 811.4)">
      <path id="Path_1104-2" data-name="Path 1104" d="M3,12.1A8.748,8.748,0,0,1,11.923,3,9.278,9.278,0,0,1,18.7,5.768,7.153,7.153,0,0,1,20.289,8.46" fill="none" stroke="#f5579c" stroke-linecap="round" stroke-linejoin="round" stroke-width="1.5"/>
      <path id="Path_1105-2" data-name="Path 1105" d="M16.649,8.73l3.64.91L21.2,6" transform="translate(0 -1.18)" fill="none" stroke="#f5579c" stroke-linecap="round" stroke-linejoin="round" stroke-width="1.5"/>
    </g>
  </g>
</svg>
