<svg xmlns="http://www.w3.org/2000/svg" width="19.124" height="19.124" viewBox="0 0 19.124 19.124">
  <g id="Icon_feather-settings" data-name="Icon feather-settings" transform="translate(-0.65 -0.65)">
    <path id="Path_1141" data-name="Path 1141" d="M18.252,15.876A2.376,2.376,0,1,1,15.876,13.5,2.376,2.376,0,0,1,18.252,15.876Z" transform="translate(-5.664 -5.664)" fill="none" stroke="#f5579c" stroke-linecap="round" stroke-linejoin="round" stroke-width="1.7"/>
    <path id="Path_1142" data-name="Path 1142" d="M16.072,12.588a1.307,1.307,0,0,0,.261,1.441l.048.048a1.585,1.585,0,1,1-2.241,2.241l-.048-.048a1.317,1.317,0,0,0-2.233.935v.135a1.584,1.584,0,0,1-3.168,0v-.071a1.307,1.307,0,0,0-.855-1.2,1.307,1.307,0,0,0-1.441.261l-.048.048A1.585,1.585,0,1,1,4.106,14.14l.048-.048a1.317,1.317,0,0,0-.935-2.233H3.084a1.584,1.584,0,1,1,0-3.168h.071a1.307,1.307,0,0,0,1.2-.855A1.307,1.307,0,0,0,4.09,6.394l-.048-.048A1.585,1.585,0,1,1,6.284,4.106l.048.048a1.307,1.307,0,0,0,1.441.261h.063a1.307,1.307,0,0,0,.792-1.2V3.084a1.584,1.584,0,1,1,3.168,0v.071a1.317,1.317,0,0,0,2.233.935l.048-.048a1.585,1.585,0,1,1,2.241,2.241l-.048.048a1.307,1.307,0,0,0-.261,1.441v.063a1.307,1.307,0,0,0,1.2.792h.135a1.584,1.584,0,0,1,0,3.168h-.071a1.307,1.307,0,0,0-1.2.792Z" fill="none" stroke="#f5579c" stroke-linecap="round" stroke-linejoin="round" stroke-width="1.7"/>
  </g>
</svg>
