<svg xmlns="http://www.w3.org/2000/svg" width="15.447" height="15.446" viewBox="0 0 15.447 15.446">
  <path id="Icon_akar-star" data-name="Icon akar-star" d="M10.007,3.489a.768.768,0,0,1,1.43,0l1.6,4.428a.765.765,0,0,0,.715.489H17.68a.752.752,0,0,1,.472,1.346l-2.8,2.515a.748.748,0,0,0-.249.843l1.021,4.327a.761.761,0,0,1-1.165.864l-3.8-2.41a.772.772,0,0,0-.888,0l-3.8,2.41a.761.761,0,0,1-1.165-.864l1.021-4.327a.748.748,0,0,0-.249-.843l-2.8-2.515a.752.752,0,0,1,.471-1.346H7.693a.764.764,0,0,0,.715-.489l1.6-4.428Z" transform="translate(-2.999 -3)" fill="#fe9901"/>
</svg>
