<svg xmlns="http://www.w3.org/2000/svg" width="17.695" height="17.695" viewBox="0 0 17.695 17.695">
  <g id="Icon_akar-newspaper" data-name="Icon akar-newspaper" transform="translate(-3.735 -3.735)">
    <path id="Path_1135" data-name="Path 1135" d="M7.5,20.665H18.277a3.592,3.592,0,0,0,3.592-3.592V6.3a1.8,1.8,0,0,0-1.8-1.8h-8.98A1.8,1.8,0,0,0,9.3,6.3V17.971C9.3,19.459,8.988,20.665,7.5,20.665Z" transform="translate(-1.204)" fill="none" stroke="#f5579c" stroke-linecap="round" stroke-linejoin="round" stroke-width="1.53"/>
    <path id="Path_1136" data-name="Path 1136" d="M4.5,13.8A1.8,1.8,0,0,1,6.3,12h1.8v9.429c0,1.239-.557,2.245-1.8,2.245s-1.8-1.006-1.8-2.245Z" transform="translate(0 -3.01)" fill="none" stroke="#f5579c" stroke-linecap="round" stroke-linejoin="round" stroke-width="1.53"/>
    <path id="Path_1137" data-name="Path 1137" d="M18.3,11.4a.9.9,0,1,1-.9-.9A.9.9,0,0,1,18.3,11.4Z" transform="translate(-4.816 -2.408)" fill="none" stroke="#f5579c" stroke-linecap="round" stroke-width="1.53"/>
    <path id="Path_1138" data-name="Path 1138" d="M16.5,21h5.388M16.5,23.694h2.694" transform="translate(-4.816 -6.622)" fill="none" stroke="#f5579c" stroke-linecap="round" stroke-width="1.53"/>
  </g>
</svg>
