<svg xmlns="http://www.w3.org/2000/svg" width="21.999" height="25.142" viewBox="0 0 21.999 25.142">
  <path id="Icon_fa-regular-user" data-name="Icon fa-regular-user" d="M14.928,6.285A3.928,3.928,0,1,0,11,10.214,3.928,3.928,0,0,0,14.928,6.285Zm-10.214,0A6.285,6.285,0,1,1,11,12.571,6.285,6.285,0,0,1,4.714,6.285Zm-2.293,16.5H19.578a6.4,6.4,0,0,0-6.335-5.5H8.755a6.4,6.4,0,0,0-6.335,5.5ZM0,23.683a8.754,8.754,0,0,1,8.755-8.755h4.488A8.754,8.754,0,0,1,22,23.683a1.459,1.459,0,0,1-1.458,1.458H1.458A1.459,1.459,0,0,1,0,23.683Z" fill="#afafaf"/>
</svg>
