<svg xmlns="http://www.w3.org/2000/svg" width="17.663" height="16.734" viewBox="0 0 17.663 16.734">
  <g id="Icon_material-outline-account-balance-wallet" data-name="Icon material-outline-account-balance-wallet" transform="translate(-4.5 -4.5)">
    <path id="Path_1133" data-name="Path 1133" d="M21.234,8.479V6.359A1.865,1.865,0,0,0,19.374,4.5H6.359A1.859,1.859,0,0,0,4.5,6.359V19.374a1.859,1.859,0,0,0,1.859,1.859H19.374a1.865,1.865,0,0,0,1.859-1.859v-2.12a1.859,1.859,0,0,0,.93-1.6V10.078A1.859,1.859,0,0,0,21.234,8.479Zm-.93,1.6v5.578H13.8V10.078Zm-13.945,9.3V6.359H19.374V8.219H13.8a1.865,1.865,0,0,0-1.859,1.859v5.578A1.865,1.865,0,0,0,13.8,17.515h5.578v1.859Z" fill="#f5579c"/>
    <path id="Path_1134" data-name="Path 1134" d="M24.539,17.144a1.394,1.394,0,1,1-1.394-1.394A1.394,1.394,0,0,1,24.539,17.144Z" transform="translate(-6.559 -4.278)" fill="#f5579c"/>
  </g>
</svg>
