<svg xmlns="http://www.w3.org/2000/svg" width="21.061" height="18.428" viewBox="0 0 21.061 18.428">
  <path id="Icon_fa-solid-wallet" data-name="Icon fa-solid-wallet" d="M2.633,2.25A2.635,2.635,0,0,0,0,4.883V18.046a2.635,2.635,0,0,0,2.633,2.633h15.8a2.635,2.635,0,0,0,2.633-2.633V8.832A2.635,2.635,0,0,0,18.428,6.2H3.291a.658.658,0,1,1,0-1.316H18.428a1.316,1.316,0,0,0,0-2.633Zm14.479,9.872A1.316,1.316,0,1,1,15.8,13.439,1.316,1.316,0,0,1,17.112,12.122Z" transform="translate(0 -2.25)" fill="#dbd0e9"/>
</svg>
